<svg id="ca76df08-5f58-4e4f-98c7-7b2c3f2cd11a" data-name="Layer 1" xmlns="http://www.w3.org/2000/svg" viewBox="0 0 300 132.26">
  <defs>
    <style>
      .c9b0295c-2116-464e-9091-fcdcc85b82de {
        fill: #bab9b7;
      }
    </style>
  </defs>
  <title>ktm-</title>
  <g id="f77386d2-a9c8-4919-8400-ee4695a718f3" data-name="h77Aio.tif">
    <g>
      <g>
        <path class="c9b0295c-2116-464e-9091-fcdcc85b82de" d="M15.69,54.47c0,1,0,1.83,0,2.72s.16,2.08.24,3.13c0,.51.24,1-.31,1.44-.09.06-.08.3-.08.45,0,.84-.13,1.72.6,2.4.11.1.11.39.07.58a3.12,3.12,0,0,1-.32.9,2.44,2.44,0,0,0-.14,1.22c0,.33-.33.65-.54,1l.48.41c-.45.25-.82.46-1.2.64a1.35,1.35,0,0,1-.41.06,4.94,4.94,0,0,0,.15.55,6,6,0,0,1,.36.9,1.08,1.08,0,0,0,1.37,0c.29-.22.68-.17.64.4,0,.18.11.37.11.55a4.58,4.58,0,0,1-.07,1.29.92.92,0,0,0,.1.83,8.36,8.36,0,0,1,.42,1.79c.24.91-.31,1.83.13,2.75a.69.69,0,0,1-.55.94,4.36,4.36,0,0,1-1,.17c-3,0-6,.13-9,0-1.83-.06-2-.06-2.66-2.12a15.08,15.08,0,0,1-.26-2.36c-.09-.62-.31-1.23-.36-1.86s0-1.51,0-2.07l1.18-.77v-.25L3.18,70a1.32,1.32,0,0,1,.26-1.37.62.62,0,0,0,.11-.56,11.68,11.68,0,0,1-.62-1.53,11.26,11.26,0,0,1-.06-1.93c0-.16.11-.33.1-.5a1.68,1.68,0,0,1,1-1.57L3.55,62c-.2-.24-.53-.41-.27-.8,0-.06,0-.19,0-.26-.21-.47-.42-.93-.64-1.39s-.27-.82.55-.7c-.58-1.19.68-.92,1-1.44-.3-.31-.58-.48-1-.25-.65.34-.86-.1-.89-.63,0-.87,0-1.74,0-2.61H2.5l.08.64.22,0c0-.39.06-.87-.13-1.16A5.16,5.16,0,0,1,2,50c0-.43-.1-1,.12-1.25a3,3,0,0,0,.5-2.19c0-.31.27-.6.32-.91a5.66,5.66,0,0,0-.05-1.11l-1.33.07c.05-.64.08-1.34.18-2,0-.15.32-.25.53-.41a.77.77,0,0,0-.15-.2c-.21-.21-.62-.39-.62-.59A4,4,0,0,1,1.77,40a2.6,2.6,0,0,1,.48-.9c.3-.3.41-.84,1.08-.77.25,0,.67-.39.8-.69S4,37,3.83,36.57L2.28,38.2l-.22-.09-.15-.77c-.7-.2-.84-.49-.62-1.21a1.92,1.92,0,0,0-.07-.74C1.14,34.47,1,33.55,1,32.62c0-.71-.1-1.43-.08-2.14a5.52,5.52,0,0,1,.27-1.1l.18,0a3.6,3.6,0,0,1-.56-.93,5.59,5.59,0,0,1,0-1.16C.7,26.4.64,25.49.55,24.58s.62-.6,1-.84a1.89,1.89,0,0,0,.27-.29,1.17,1.17,0,0,1-.19-.16c-.29-.37-.43-.72-.67-.83a1.05,1.05,0,0,1-.59-1.12c0-.45-.1-.91-.09-1.36a1.48,1.48,0,0,1,.24-.81.76.76,0,0,0,0-1.09c-.47-.63-.38-.89.22-1.4a3.89,3.89,0,0,0,.61-1.16A1.27,1.27,0,0,1,0,14.06c0-1.82.1-3.64.31-5.44A2.48,2.48,0,0,1,3.4,7c.32.16.49.65.72,1s.32.46.48.7l.18-.11-.31-.64.88-.63a2.41,2.41,0,0,1,2.5.21,5.15,5.15,0,0,1,1.9,2.83c.25.84.68,1.64.92,2.49.51,1.84,1,3.71,1.4,5.57A4.32,4.32,0,0,1,12,19.51c0,.13,0,.29,0,.38A5.31,5.31,0,0,1,12.68,24a7.5,7.5,0,0,0,0,1.28l-.47-1.51L10.64,25l1.56.91c.86-.25,1.14-.06,1.25.83s.24,1.78.32,2.67a1.56,1.56,0,0,1-.18.88c-.53.82-.55.81.28,1.45.12-.16.25-.31.36-.48,1.09-1.67,2.17-3.36,3.29-5,2.38-3.54,4.76-7.06,7.18-10.56a6.32,6.32,0,0,1,1.33-1c.09-.07.22-.25.19-.31-.31-.56.14-.87.44-1.15,1.14-1,2.31-2.06,3.49-3.06a1.11,1.11,0,0,1,.68-.25c1.29,0,2.58.07,3.87.09.71,0,1,.47,1.16,1a4.5,4.5,0,0,1-.11,2.81q-.84,2.45-1.91,4.82c-.7,1.56-1.48,3.08-2.29,4.59-.67,1.23-1.43,2.41-2.14,3.62-.41.71-.8,1.43-1.2,2.15-1.45,2.61-2.86,5.25-4.38,7.82-1,1.64-2.07,3.21-3.18,4.77-.69,1-1.49,1.83-2.31,2.81a7.55,7.55,0,0,0,.57.64c5.26,4.8,10.54,9.58,15.79,14.4,2.44,2.23,4.91,4.46,7.19,6.85,3.73,3.89,7.34,7.88,10.94,11.88,1.31,1.45,2.47,3,3.68,4.57.77,1,1.53,1.91,2.27,2.89a7.75,7.75,0,0,1,1.76,3.57c.3,2.14-.94,3.06-2.82,3.12a13.63,13.63,0,0,1-7-1.94,17.71,17.71,0,0,1-5.51-4.75c-1.94-2.51-4-4.94-5.86-7.51-1-1.3-2.22-2.27-3.2-3.53S34,72.17,32.91,71c-4.12-4.5-8.62-8.61-13.11-12.73-1.2-1.09-2.37-2.21-3.56-3.31C16.07,54.78,15.88,54.63,15.69,54.47ZM30.94,22.28a6,6,0,0,1-.68.45c-.43.21-.68.83-1.32.57-.09,0-.22,0-.5.05.81.49,1.34,1.23,2.2.71ZM14.65,62,15.19,63C15.5,62.15,15.34,61.87,14.65,62Z"/>
        <path class="c9b0295c-2116-464e-9091-fcdcc85b82de" d="M61.29,48.31c1,3.09,2,6.1,2.93,9.13a35.44,35.44,0,0,1,1.12,4.28,19.28,19.28,0,0,1,0,3.25,11.19,11.19,0,0,0-1.28-.26,1.75,1.75,0,0,0-.71.1c-.3.08-.59.32-.88.31-1.27,0-2.54-.11-3.82-.13a2.41,2.41,0,0,1-2.26-1.68,11.31,11.31,0,0,1-.68-1.84,4.75,4.75,0,0,1-.7-1.06c-1-2.88-2-5.77-3-8.66-.06-.17-.13-.33-.21-.53l-5.35,1.51a4.1,4.1,0,0,1-.66.19c-1.55.15-2.53.83-2.66,2.53a1.76,1.76,0,0,1-1.68,1.31c-1,0-1.91,0-2.86-.12a1.44,1.44,0,0,1-1.38-1.16c-.38-1.4-.4-1.4-1.84-1.43a3,3,0,0,1-.93-.1c.56-.28,1.12-.58,1.7-.81a.59.59,0,0,0,.45-.7,70.13,70.13,0,0,1-.1-13.82,28.85,28.85,0,0,1,1.74-8.35A5,5,0,0,1,39.08,29c.16-.2.47-.26.73-.41s.61-.43.91-.43c2.79,0,5.57,0,8.36,0a3.44,3.44,0,0,1,2.34,1,20.18,20.18,0,0,1,4.44,6.1c1.4,3,2.67,6,4,9,.18.42.36.47.8.44,1.73-.13,3.46-.2,5.19-.24a.88.88,0,0,1,.61.39,1.24,1.24,0,0,1-.6,1.88C64.34,47.26,62.85,47.77,61.29,48.31Zm-10.35-.39a141.11,141.11,0,0,0-5.47-14.09c-1.13,5.39-1.23,10.84-1.38,16.36Z"/>
        <path class="c9b0295c-2116-464e-9091-fcdcc85b82de" d="M68.07,22.61c-1.33.18-2.57.31-3.8.53-2.69.48-5.36,1.12-8.07,1.49a26.08,26.08,0,0,1-5-.06c1.37-.36,2.72-.8,4.11-1.05,3.28-.59,6.58-1.08,9.86-1.65.94-.17,1.85-.48,2.79-.7a.94.94,0,0,0,.7-.72c.52-1.46,1-2.92,1.69-4.33A10.35,10.35,0,0,1,71.78,14,5.28,5.28,0,0,1,76.39,12c1.8.11,3.61,0,5.41,0a5.5,5.5,0,0,1,1.61.28c.67.23.71.64.31,1.22-.13.19-.19.64-.09.73.4.33.11.59,0,.83a9.13,9.13,0,0,1-3.36,3.45,48.14,48.14,0,0,1-4.82,2.41.93.93,0,0,0-.64.83,65.08,65.08,0,0,0-.28,10.54c0,1.5,0,3,0,4.56l-.67.22.65,1,.1-.09q.89,8.86,1.77,17.71c.43,4.43.86,8.86,1.25,13.29a7.72,7.72,0,0,1-.19,1.64c0,.07-.06.15,0,.2.68,1.15.25,2.36.12,3.53a2.57,2.57,0,0,1-2,2.35,15.88,15.88,0,0,1-5.16.28c.09-.34.26-.62.2-.82a17.57,17.57,0,0,1-.74-4.84c-.05-1.48-.33-3-.49-4.44q-.43-4.15-.83-8.31c-.14-1.48-.21-3-.33-4.46-.29-3.47-.7-6.93-.88-10.41A118.58,118.58,0,0,1,67.84,24C67.89,23.61,68,23.18,68.07,22.61Zm2.82,6.05L71,28.4a3.53,3.53,0,0,1-.82-.76c-.32-.58-.76-.12-1.13-.22,0,.3,0,.6,0,.9s0,.42,0,.78Z"/>
        <path class="c9b0295c-2116-464e-9091-fcdcc85b82de" d="M97,27.27a7.65,7.65,0,0,0-1,.6,1.27,1.27,0,0,0,.28.61c.07.07.32,0,.55,0l.41.5.47-.9a1.15,1.15,0,0,1-.49,1.62,4.8,4.8,0,0,1-.26,1.24,38.17,38.17,0,0,1-8.39,10,3.39,3.39,0,0,0-1.33,3.3,23.38,23.38,0,0,0,8.21,15.28c1,.9.79.91,1.81-.14a15.63,15.63,0,0,0,3.14-5.7c.24-.65.28-1.37.5-2s.74-1.16.69-1.7a3.35,3.35,0,0,1,0-1.48c.15-.49.42-1,.55-1.44s0-.82.14-1.21c.15-.65.43-1.27.57-1.92s.15-1.31.22-2a5.81,5.81,0,0,1,.13-1c.12-.45.58-.7.89-.44a11.56,11.56,0,0,1,1.4,1.65h-1l0,.19c.11.05.23.14.33.13.89-.14,1.17.46,1.49,1.1s.64.68,1.36,0v.88c0,.27,0,.54,0,.82,0,.53.16.86.91.53-.11,1.16-.2,2.21-.32,3.25s-.31,2.2-.42,3.3,0,2.51-1.27,3.33l.33.22.4-.62.14,0c-.22.58-.45,1.16-.65,1.74-.09.24-.12.49-.19.73-.52,1.79-3.13,4.24-5.46,4.07a76.7,76.7,0,0,0-7.88,0,10.2,10.2,0,0,1-7.84-3.44,21.44,21.44,0,0,1-4.48-7c-.12-.28,0-.65-.14-.94s-.4-.61-.48-.94c-.35-1.29-.65-2.59-1-3.89a2.73,2.73,0,0,1-.07-.37l-.91-.1c0-.09,0-.16,0-.17.86-.32.92-1,.94-1.8a22.22,22.22,0,0,1,2-9.1,12.64,12.64,0,0,1,6.51-6.37,6.27,6.27,0,0,1,2.32-.46c2.15-.05,4.29,0,6.44,0A2.36,2.36,0,0,1,97,27.27Zm-5,1.8a11.37,11.37,0,0,0-4.35,7C89.43,34,91.28,31.85,92,29.07Z"/>
      </g>
      <g>
        <path class="c9b0295c-2116-464e-9091-fcdcc85b82de" d="M185.47,132a4.94,4.94,0,0,0-.75-.14c-.92,0-1.83-.05-2.74,0a4.46,4.46,0,0,1-2.42-.59,20.56,20.56,0,0,0-2.46-1.18,4,4,0,0,1-1.85-1.9,2.88,2.88,0,0,0-.31-.44,60.17,60.17,0,0,1-10.16-13.29c-2-3.42-3.67-7-5.5-10.48-.26-.5-.63-.94-.89-1.45-.1-.2,0-.51-.06-.73-.29-.71-.64-1.4-1-2.09-.06-.12-.21-.23-.2-.33.08-.58-.25-.72-.72-.75a1.86,1.86,0,0,1-.44-.16l.87-.43-1.42-.59.83-.25.09-.2-1.13-.63.56-.24c.15-.32-.73-1.67-1.35-2l.34-.81-.46-.19c0-.08,0-.15,0-.17.45-.43.41-.73-.13-1a.57.57,0,0,1-.25-.39.73.73,0,0,0-.83-.78c-.32,0-.64-.07-1-.11v-.22l1.09-.11c.71-1.5-.43-2.52-.89-3.88-.12.21-.17.27-.2.34s0,.12-.22.22l-.41-1.35c.57,0,.47-.33.31-.7-.47-1.08-1-2.17-1.37-3.27a.92.92,0,0,1,.21-.74,1.44,1.44,0,0,0,.19-1.55l.14-.13a3.19,3.19,0,0,1,.61.67c.66,1.43,1.28,2.88,1.92,4.31a7.53,7.53,0,0,0,.41.73l.18,0,.18-.6,1.4,2.83-.83-.09-.06.23,1.14.33-.82.18c.25.59.34,1.19,1.19,1.22.25,0,.48.5.78.82l-.59.27c0,.08.06.14.09.14,1,0,1,1,1.32,1.52A17,17,0,0,1,159,93.89c.06.12,0,.28,0,.42s0,.49.07.51c.83.25.91,1.09,1.22,1.67A138.16,138.16,0,0,0,171,113a99.77,99.77,0,0,0,10.26,12.12,8.14,8.14,0,0,0,1.24.78c.86.56,1.72,1.12,2.57,1.69.51.35,1,.7,1.5,1.08a1,1,0,0,0,1.25,0c.37-.27.75-.52,1.09-.82,1.42-1.26,2.87-2.48,4.2-3.82a23,23,0,0,0,2.28-2.82c.65-.9,1.19-1.88,1.83-2.78a5.38,5.38,0,0,1,1-.87l.13.14s.06-.08,0-.12c-.26-1.66,1.13-2.51,1.83-3.69.22-.37.46-.72.68-1.08.06-.09.09-.24.18-.28.44-.22.82-.42.1-.79-.05,0,0-.21,0-.32.08-1.32.13-2.64.27-4a8.57,8.57,0,0,1,.47-1.6,2.1,2.1,0,0,0,.17-.71c0-.14-.29-.24-.43-.38s-.19-.24-.17-.35c.07-.53-.34-1.18.38-1.56,0,0,.1-.15.08-.18-.39-.57,0-1,.33-1.36-.51-.38.26-1.25-.59-1.54-.13,0-.19-.45-.19-.68,0-.78-.27-1.56.25-2.33.21-.3,0-.85.06-1.28v-.38l.57-.19c-.13-.13-.24-.32-.4-.38-.39-.15-.48-.42-.54-.81-.11-.76-.37-1.5-.48-2.25-.07-.52.05-1.06,0-1.59a5.18,5.18,0,0,0-.16-.93c.6-.29.57-.26.08-.74a2.06,2.06,0,0,1-.39-.89c-.15-.7-.26-1.42-.39-2.13-.1-.54-.24-1.1.59-1.37l-.57-.3c.21-.37.34-.73-.22-1-.14-.06-.23-.33-.27-.52-.2-.94-.3-1.9-.56-2.81a3.5,3.5,0,0,1,.48-2.9l-.86,0a3.36,3.36,0,0,1-.27-1.15c0-.3.36-.57.57-.88l-.87-.12c-.24-1.21-.49-2.43-.71-3.66,0-.08.09-.22.17-.29a.68.68,0,0,0,0-1,1.82,1.82,0,0,1-.74-2.09l.41.26.06-.06-.91-1.14c.26-.22.57-.38.55-.49a1,1,0,0,0-.39-.63,1.43,1.43,0,0,1-.42-2.15c-.5-.38-.76-.77-.3-1.43.16-.22-.08-.75-.18-1.12-.19-.69-.41-1.36-.58-1.91-.29-.28-.65-.46-.7-.72A11.4,11.4,0,0,1,194.2,56a1.47,1.47,0,0,0-.14-.45,9.42,9.42,0,0,1-.61-1.18c-.22-.67-.36-1.37-.57-2.23-.24.38-.41.6-.55.84a2.14,2.14,0,0,1-2,1.12h-9.12a3.87,3.87,0,0,1-2.92-1.29,11.29,11.29,0,0,1-2.42-4c-.08-.22.26-.57.29-.87a1.68,1.68,0,0,0-.16-1c-.12-.18-.57-.13-1-.21-.17-.53-.45-1.23-.61-2-.06-.31.19-.68.17-1s-.15-.75-.36-.85c-.56-.25-.61-.67-.62-1.17s-.51-.71.12-1.15c.24-.18,0-1,0-1.56l-.69.14a7.52,7.52,0,0,1-.3-1.2,1,1,0,0,1,.25-.65c.5-.53.52-.87,0-1.33-.07-.07-.16-.2-.14-.26.16-.42,0-.59-.41-.62-.09,0-.22-.28-.24-.44q-.79-7.09-1.55-14.2a2.38,2.38,0,0,1,.09-.88,1,1,0,0,1,1.14-.84c1.21.05,2.42,0,3.63,0a2.85,2.85,0,0,1,2.54,2.44,3,3,0,0,0,.25.8c.28.67.91,1.27.35,2.1-.08.11.08.54.17.56.63.1.61.63.71,1.05a13.74,13.74,0,0,1,.75,3.72c0,.88.54,1.43.51,2.18-.07,1.3.57,2.45.75,3.69a4.79,4.79,0,0,1,0,.9c.7.7,1.28,4.25.67,5,.69-.13.86.29,1,.8.13.7.24,1.42.41,2.12a5.67,5.67,0,0,0,.42.81c.47,1.17.93,2.34,1.4,3.52h.2c.24-.86.51-1.71.71-2.58a56,56,0,0,0,1.34-13.6,30.19,30.19,0,0,0-.85-4.42c-.1-.59-.47-1.19,0-1.8.1-.15.22-.29.39-.5C186.88,25,187,24,186,23.69c0-1.63,0-3.29,0-5,0-.25.28-.49.51-.88,2.54,0,5.23,0,7.92,0,.55,0,.46.38.5.7.27,2.27.5,4.53.83,6.79.15,1,.61,2,.71,3,.15,1.43.85,2.68,1.1,4.06a8.39,8.39,0,0,1,.06,1,.52.52,0,0,0,.06.28,3.8,3.8,0,0,1,.72,2.67.38.38,0,0,0,.07.32c.9.92.7,2.21,1.15,3.29a8.9,8.9,0,0,1,.44,1.63,1.9,1.9,0,0,1-.13.68l-.74-.21c.08.93,1,1.17,1.37,1.81l-.47.62.18,0c.26.49.52,1,.76,1.47a3.3,3.3,0,0,1,.42,1c.14,1.45.9,2.71,1.14,4.13a5.94,5.94,0,0,1,.29,2.38c-.07.33.23.75.36,1.12a2.07,2.07,0,0,1,.08.42c0,.12,0,.3,0,.37.93,1,.83,2.38,1.18,3.59.05.19-.27.49-.41.74l-.25.44.16.1.66-.71c.38,1.61.75,3,1,4.51a9.2,9.2,0,0,1,.13,2.1c0,.25-.31.5-.49.77.14,0,.2.09.23.07.21-.08.41-.17.62-.27a2.64,2.64,0,0,1,.29.81,4.19,4.19,0,0,1-.14,1l-1.24.43a.88.88,0,0,0,1.31,0l.48.46-.49.36c.84.62,1.81,4.64,1.27,5.44l-.45-.53.1,1.08.51-.2.82,2.23a.5.5,0,0,1,.06.26c-.3,1.44.65,2.63.77,4s.45,2.74.61,4.12A9.71,9.71,0,0,1,210,88l-.79-.31.15.91c.24,0,.42-.06.6-.07.35,0,.53.08.54.5,0,.58.17,1.1-.55,1.47-.35.18-.2.72.17,1.11l.18-.43a3.9,3.9,0,0,1,.58,1.1,4.11,4.11,0,0,1-.07,1.63,5.52,5.52,0,0,0,.24,2.43c.13.5.19.8-.18,1.21l-.5,0c0,.19-.05.5,0,.55,1.1.64.86,1.69.86,2.66s0,2.14,0,3.21,0,2.23,0,3.35c0,.76,0,1.53-.07,2.29,0,.17-.29.37-.48.44a6.18,6.18,0,0,0-1,.33l.37.09c.23.46.44.82.59,1.2a1.57,1.57,0,0,1,.14.81c-.2.89-.47,1.76-.71,2.63a35.93,35.93,0,0,1-1,3.58,38.19,38.19,0,0,1-2.43,5.37A18.11,18.11,0,0,1,202,129.8a17,17,0,0,1-2.41,1.55,6,6,0,0,1-2,.48c-.9.09-1.82,0-2.74,0a6.42,6.42,0,0,0-.86.14Z"/>
        <path class="c9b0295c-2116-464e-9091-fcdcc85b82de" d="M265.41,47.12c.32,1.47.65,2.83.91,4.21.1.57.48,1.14.09,1.78-.06.11.26.43.36.68.16.42.56.87-.13,1.29.81.25.68,1,.8,1.52.31,1.4.52,2.83.84,4.22s.78,2.89,1.16,4.34q1.5,5.59,3,11.19c.19.72.15.79-.6.79-2.51,0-5,0-7.54,0a1,1,0,0,1-1.16-.83c-.88-3.18-1.8-6.35-2.65-9.54-.65-2.47-1.24-5-1.81-7.45-.24-1.06-.35-2.16-.57-3.24-.28-1.3-.64-2.58-.91-3.88-.09-.43-.41-.9.15-1.34.15-.13.06-.76-.12-1a3.09,3.09,0,0,1-.74-1.67,19.6,19.6,0,0,0-.75-3.49c-.08-.36-.14-.72-.22-1.12l-1.67-.17v-.08l1.64-.08c-.15-.88-.31-1.72-.44-2.56-.35-2.14-.65-4.28-1.05-6.4-.35-1.83-.81-3.64-1.23-5.45-.52-2.24-1.06-4.47-1.58-6.7-.15-.61-.29-1.2-1.19-1.05l.87-.48a3.05,3.05,0,0,0-.78-.42c-.54-.06-1.1,0-1.64-.05-.14,0-.34.05-.41,0-.58-.63-1.15-.17-1.63.09a51,51,0,0,0-5,2.78c-2.74,1.85-5.38,3.85-8,5.92h3a11,11,0,0,1,7.44,2.84,21.64,21.64,0,0,1,4.69,6.44,17.8,17.8,0,0,1,1.85,8.95,1.6,1.6,0,0,1-.56,1.25.78.78,0,0,0,.14,1.28.75.75,0,0,1,.31.56,13.28,13.28,0,0,1-2.53,7.47,3.41,3.41,0,0,1-2.75,1.46c-2.69,0-5.39,0-8.08,0-2.36,0-3.95-1.34-5.16-3.24l-.53-.82c0,1.19,0,2.18,0,3.17,0,1.35.05,2.69.06,4,0,1,.05,2,0,3a42,42,0,0,1-1.68,10,6.22,6.22,0,0,1-.84,1.85,1.78,1.78,0,0,1-1.25.64c-2.9,0-5.8,0-8.7,0a3.08,3.08,0,0,1-2.62-1.61,2.1,2.1,0,0,1-.12-.59c-.14-.14-.45-.32-.54-.57-.59-1.69-1.14-3.4-1.69-5.1-.11-.32-.19-.64-.29-1l1-.78-.12-.13-.87.32c-.3-1-.62-2-.82-2.91-.16-.77-.57-1.56,0-2.36.06-.09-.06-.44-.12-.44-.64-.05-.6-.59-.62-1-.05-1,0-2,0-3.09l-.36.1c-.56-1.36-.55-2.91.07-3.1-.27-.54-.19-1.13-.78-1.64-.37-.31-.2-1.26-.22-1.93,0-.18.18-.36.19-.38a4.21,4.21,0,0,1-.5-1c-.15-1.22-.26-2.45-.33-3.68,0-.26.25-.53.28-.81a2,2,0,0,0-.14-.82c-.17-.45-.4-.88-.63-1.37l.43-.11a5.14,5.14,0,0,1-.38-1.1c-.27-2.24-.51-4.48-.75-6.72-.16-1.61-.31-3.22-.44-4.83a2.24,2.24,0,0,1,.12-.71c-.15-.83-.33-1.54-.41-2.25-.24-2-.42-3.94-.67-5.91-.34-2.65-.74-5.29-1.09-7.93-.2-1.49-.37-3-.52-4.48a22.56,22.56,0,0,1,.92-8.33c.3-1.12.76-1.38,2-1.38s1.58.24,1.86,1.38c.47,1.86.82,3.75,1.3,5.61.55,2.14,1.21,4.25,1.78,6.38.64,2.38,1.28,4.76,1.79,7.16.16.71-.17,1.52.49,2.12.54,3.33,1.07,6.66,1.61,10,0,.13.08.32,0,.4-.51.68-.05,1.41-.13,2.11a8.78,8.78,0,0,0,0,1,2.08,2.08,0,0,1,.67,1.6,1.9,1.9,0,0,0,0,.71c.09.47.24.92.31,1.39.16,1.1.3,2.2.46,3.45l-.62-.37-.17,1,.64.22-.09,1.47.15-.06a2,2,0,0,1,.42.61c.14.65.22,1.31.3,2s.2,1-.43,1.37c-.08,0-.1.47,0,.5,1.23.63.94,1.85,1.11,2.85.28,1.68.35,3.39.66,5.06.58,3.14,1.31,6.25,1.87,9.4.16.92.63,1.71.72,2.63h.18l.87-2.84A108.22,108.22,0,0,0,227.46,51c.26-1.83.56-3.66.64-5.5a38,38,0,0,0-.29-4.64c-.31-3.78-.64-7.55-1-11.46h-2.07c2.36-.84,4.08-2.55,6-3.93a53.69,53.69,0,0,1,7.54-4.84,14.62,14.62,0,0,1,6.5-1.7l5.68,0h.74c0-1,.15-1.21,1.14-1.22h.48a3.4,3.4,0,0,1,3.08,1.12,2.64,2.64,0,0,0,2.13.82c3.7-.07,7.4-.05,11.1,0a10.25,10.25,0,0,1,7.26,2.71c.15.15.27.32.51.6-.33,0-.48,0-.63,0a.91.91,0,0,0-.44.06l1.55.76c-.58.63-.58.63-.16,1.13l.28-.34.38-.5a9.17,9.17,0,0,1,.46,1.89,14.91,14.91,0,0,1-.23,5,6.36,6.36,0,0,1-.31.76c-.22.45-.47.42-.75-.05,0,.18-.15.37-.1.42.55.6.17,1.12-.13,1.64a21.86,21.86,0,0,1-6.22,7.2A14.49,14.49,0,0,1,266.12,43a1.66,1.66,0,0,0-.61.27c.63,0,1.27,0,1.9.11a15.9,15.9,0,0,1,6.59,2.7,71.74,71.74,0,0,1,13.71,11.41c3.09,3.15,6.15,6.32,9.24,9.47,1,1,1.95,2,3.05,3.08a14.94,14.94,0,0,1-1.53.21c-2.26,0-4.53,0-6.79,0a3.41,3.41,0,0,1-2.63-1c-3.71-3.82-7.47-7.59-11.18-11.41a86.55,86.55,0,0,0-12-10.44C265.76,47.31,265.63,47.25,265.41,47.12Zm-30.23-6.78.22-.09c.13.77.25,1.53.39,2.29a56,56,0,0,0,2.6,10.69,11.58,11.58,0,0,0,2.49,4.17l2-3.48a.78.78,0,0,0,1.24.25L243,53s0-.09,0-.19a29.54,29.54,0,0,0,.61-9.74,7.63,7.63,0,0,0-.39-1.8,23.45,23.45,0,0,0-3.51-6.86,12.77,12.77,0,0,0-5.15-4.4c-.44-.2-.91-.35-1.5-.58l.17.53a48.51,48.51,0,0,1,1.79,8.7,2.73,2.73,0,0,1-.24.92l-.3.07Zm23-19.64c2.8,6,4.08,12.39,5.69,18.77a39.88,39.88,0,0,0,3-3.64A26.88,26.88,0,0,0,269,32.47a10.84,10.84,0,0,0,1-5.3A6.46,6.46,0,0,0,267.75,22C264.82,19.5,261.58,19.66,258.2,20.7Zm-6.66-1.77,1.76-.12,0-.16c-.4-.07,0-1-.79-.62A5.91,5.91,0,0,0,251.54,18.93Zm7.29,17.59.33.13.37-.8.67.31.23-.81a5.92,5.92,0,0,0-1.22.44C259,35.92,259,36.27,258.83,36.52Zm-44.34,9.62-.41.08c.11.44.19.9.34,1.33,0,.07.32.05.49.08v-.06l-.45-.35.19-.06Zm-4.2-39.36c-.7-.44-1.08-.24-1.39.33Z"/>
        <path class="c9b0295c-2116-464e-9091-fcdcc85b82de" d="M158.48,1.11l-.58.2.49.77.57-.15a7.15,7.15,0,0,1-.05,3.35,15.6,15.6,0,0,1-3.51,6.37,29.44,29.44,0,0,1-12.58,9,1.06,1.06,0,0,0-.81,1.07c-.21,3-.53,6-.66,9-.2,4.63-.27,9.27-.39,13.76-.35.15-.84.21-1,.45-.26.51-.28,1.15.41,1.41s.67.66.67,1.21c0,2.67,0,5.35,0,8a3.84,3.84,0,0,1-.19.88,2.91,2.91,0,0,1,.2.77c-.07,4.36-.14,8.72-.24,13.08,0,1.73-.12,3.46-.2,5.19,0,.36-.15.71-.17,1.07s.08.72.06,1.07c-.2,3-.42,6.09-.63,9.13,0,.44-.05.87-.11,1.3s-.13.81-.71.42c-.14-.1-.39,0-.66-.08l.31.57-.18-.05-.73,1.54c.54.11,1.16.31,1.72-.3-.15,1.13-.21,2.29-.46,3.4-.48,2.06-1,4.12-1.64,6.14a4.7,4.7,0,0,1-5,3.54c-.74,0-1.5,0-2.36,0,1-8.13,2.22-16.18,2.55-24.31.51,0,.88.17.66-.64-.14-.54-.75-.87-.58-1.56a10,10,0,0,0,.1-2c0-.64.13-1.27.15-1.91,0-2.07.07-4.15.14-6.22a8.76,8.76,0,0,1,.25-1.32,1.08,1.08,0,0,0,0-.4,59.39,59.39,0,0,1-.08-10c.09-3.17,0-6.36.15-9.53.24-5.55.58-11.08.94-16.62.1-1.63.41-3.25.62-4.91l-2.35.32a6,6,0,0,1-.74.08H118.18a7,7,0,0,1-5.81-3,2,2,0,0,0-.35-.41,3.93,3.93,0,0,1-1.68-4,22.25,22.25,0,0,1,1.43-6.32,1.08,1.08,0,0,1,.76-.51,63.45,63.45,0,0,1,9.55-.34,1.32,1.32,0,0,1,1.14,1.27c0,1.3.13,2.59.17,3.88,0,.48.39,1.11-.44,1.34-.06,0-.07.25-.09.38a4.33,4.33,0,0,0,1.27,3.84,2.82,2.82,0,0,0,1.75,1,23.36,23.36,0,0,0,8.78-.17,1,1,0,0,0,.92-1,43.47,43.47,0,0,1,4.95-14.42A15.62,15.62,0,0,1,145.45.31,3.2,3.2,0,0,1,147-.24c2.9,0,5.8,0,8.7.07A4.61,4.61,0,0,1,158.48,1.11Zm-15.82,16.4c.31-.2.5-.31.67-.44,1.1-.86,2.18-1.73,3.28-2.58.24-.18.58-.25.78-.47s.5-.76.77-1.12c1.1-1.45,2.3-2.84,3.31-4.35a9.23,9.23,0,0,0,1.64-5.76A2.45,2.45,0,0,0,151.91.7c-.4-.26-.72-.33-1.08,0-.65.64-1.35,1.23-2,1.92C145.21,6.86,143.78,12,142.66,17.51Zm-17,4.49-.09.18c.36.17.73.5,1.07.47.88-.09,1.74-.35,2.62-.53l0-.12Zm12.28,7.5.2-.25a3.09,3.09,0,0,0-.76-.61c-.17-.06-.44.16-.73.29Z"/>
        <path class="c9b0295c-2116-464e-9091-fcdcc85b82de" d="M146.09,48.51l-1-.07c1.22.16,1.25-.75,1.44-1.54,1-4.12,2-8.24,3.07-12.35a11.79,11.79,0,0,1,.75-1.8c0-.14-.2-.37-.15-.53,1-3.33,2-6.65,3-9.95.27-.86.73-1.66,1-2.5a5.36,5.36,0,0,0,.09-1.25h6.42c.75,0,1.5,0,2.25,0a1.11,1.11,0,0,1,1.22.77,14.72,14.72,0,0,1,1,2.52,21.94,21.94,0,0,0,1,2.57,6.39,6.39,0,0,1,.16,1c0,.09,0,.19,0,.25,1.2,1.87,1.52,4.06,2.25,6.1a4.3,4.3,0,0,1,.08,1c-.32.21-.75.49-.36,1l.76.14c0,.35-.08.71,0,.77.74.41.71,1.17.89,1.83.6,2.19,1.15,4.39,1.73,6.59.28,1.08.6,2.16.9,3.25a13,13,0,0,1,.41,1.6,11.94,11.94,0,0,1-.05,1.64c1,.77,1.05,2.11,1.16,3.45a6.72,6.72,0,0,0,.54,1.47,9,9,0,0,1,.78,2.87c0,.73.39,1.12.53,1.68a12,12,0,0,1,.19,1.2,1.2,1.2,0,0,0,0,.27c.24.75.56,1.49.74,2.26.25,1,1.07,1.91.82,3.07,0,.09.17.2.21.32a4.79,4.79,0,0,1,.24.73c.07.29.1.59.16,1l-.48,0c-.05.23,0,.76-.64.33.16.43.16.43,1.67,0,.56,1.91,1.13,3.82,1.69,5.74l-.08.09-.65-1-.64.9.68,0c-.05.09-.07.18-.1.19-.54,0-1.09.13-1.63.13-2.24,0-4.47,0-6.71-.08a.9.9,0,0,1-.7-.37c-.56-1.45-1.06-2.93-1.6-4.45l.57-.17-1.33-2.51c.26-.4.1-.64-.31-1.09a3.74,3.74,0,0,1-.81-2.1c0-.43.45-.92.74-1.46-.24-.1-.46-.28-.67-.27-.71,0-.81-.49-.95-1-.22-.81-.47-1.61-.71-2.41.3-.24.58-.29.14-.82s-.4-1.41-.57-2.14c0-.06,0-.18,0-.2-1-.64-.77-1.84-1.18-2.76a7.61,7.61,0,0,1-.47-1.85,3,3,0,0,1,.16-.94l-.24-.42.16.07c.2-.39.41-.77.6-1.16.31-.63-.16-.83-.59-.8-.6.05-.8-.07-.47-.79-.63.22-1.14.39-1.63.58a19.78,19.78,0,0,1-7,1.46.65.65,0,0,0-.53.35c-.88,2.7-1.69,5.43-2.59,8.14a14.29,14.29,0,0,1-2.4,4.73,1.73,1.73,0,0,1-1.07.6c-1.18.09-2.36.07-3.55.06-.2,0-.4-.2-.71-.36l-.23.21a13.59,13.59,0,0,1,0-2.31c.28-1.6.66-3.17,1-4.75.05-.22.29-.41.4-.56a4.07,4.07,0,0,1,0-1c.29-1.43.62-2.85.94-4.28C146,49.05,146,48.81,146.09,48.51Zm12.57-16.07c-1.18,4.3-2.35,8.57-3.54,12.93a3.09,3.09,0,0,0,.38-.09c2.13-1.09,4.26-2.15,6.35-3.29.23-.13.92-.27.67-.87l-1.34-.22c.24-.41.63-.76-.08-.87-.08,0-.14-.22-.17-.35a8.15,8.15,0,0,0-.16-.86c-.4-1.3-.84-2.6-1.22-3.9-.05-.17.12-.39.15-.49C159.36,33.78,159,33.14,158.66,32.44Zm-5.12-6.65,1.21.06a1.15,1.15,0,0,0-1.41-.24,1.23,1.23,0,0,0-.78,1l.2.14Z"/>
        <path class="c9b0295c-2116-464e-9091-fcdcc85b82de" d="M150.17,80.85c-.14-.35-.31-.7-.42-1.07a1.36,1.36,0,0,1,0-.49,2.93,2.93,0,0,1,.53.12c.13.06.22.2.39.36-.58.08-.78.29-.29.72.05.05,0,.25,0,.39Z"/>
        <path class="c9b0295c-2116-464e-9091-fcdcc85b82de" d="M152.72,89.28h-1.07v-.16h1.08Z"/>
      </g>
    </g>
  </g>
</svg>
