<svg id="c48f727b-16a1-4879-88c6-84a8151e3110" data-name="Layer 1" xmlns="http://www.w3.org/2000/svg" viewBox="0 0 300 132.26">
  <defs>
    <style>
      .\31 c3691fc-1db5-4fff-875a-38856301d710 {
        fill: #3da4a4;
      }
    </style>
  </defs>
  <title>ktm-</title>
  <g id="579ac2d4-987c-4271-8024-bf6f18b5ec96" data-name="h77Aio.tif">
    <g>
      <g>
        <path class="1c3691fc-1db5-4fff-875a-38856301d710" d="M15.69,54.73c0,1,0,1.83,0,2.71.05,1.05.16,2.09.24,3.13,0,.51.24,1-.31,1.45-.09.06-.08.29-.08.44,0,.84-.13,1.72.6,2.4a.75.75,0,0,1,.07.58,3.18,3.18,0,0,1-.32.91,2.4,2.4,0,0,0-.14,1.21c0,.34-.33.66-.54,1l.48.41c-.45.24-.82.46-1.2.64a1.1,1.1,0,0,1-.41,0,4.41,4.41,0,0,0,.15.55,6.63,6.63,0,0,1,.36.91,1.07,1.07,0,0,0,1.37,0c.29-.22.68-.16.64.41,0,.18.11.37.11.55a4.62,4.62,0,0,1-.07,1.29.9.9,0,0,0,.1.82A8.66,8.66,0,0,1,17.17,76c.24.91-.31,1.84.13,2.76a.68.68,0,0,1-.55.93,3.9,3.9,0,0,1-1,.18c-3,0-6,.13-9,0-1.83-.06-2-.06-2.66-2.13a15,15,0,0,1-.26-2.35c-.09-.62-.31-1.23-.36-1.86s0-1.52,0-2.07l1.18-.77v-.25l-1.44-.26a1.31,1.31,0,0,1,.26-1.36.62.62,0,0,0,.11-.56,11.68,11.68,0,0,1-.62-1.53,11.29,11.29,0,0,1-.06-1.93c0-.17.11-.34.1-.5A1.67,1.67,0,0,1,4,62.8c-.14-.19-.27-.37-.4-.53s-.53-.4-.27-.8c0,0,0-.18,0-.26-.21-.46-.42-.93-.64-1.39s-.27-.81.55-.7c-.58-1.19.68-.92,1-1.44a.76.76,0,0,0-1-.24c-.65.33-.86-.1-.89-.63,0-.87,0-1.74,0-2.61H2.5l.08.65.22,0c0-.39.06-.87-.13-1.16A5.17,5.17,0,0,1,2,50.21c0-.43-.1-1,.12-1.26a3,3,0,0,0,.5-2.19c0-.3.27-.59.32-.9a5.63,5.63,0,0,0-.05-1.11l-1.33.07c.05-.65.08-1.34.18-2,0-.15.32-.25.53-.41a.74.74,0,0,0-.15-.21c-.21-.2-.62-.38-.62-.59a3.94,3.94,0,0,1,.26-1.34,2.6,2.6,0,0,1,.48-.9c.3-.31.41-.85,1.08-.78.25,0,.67-.38.8-.69s-.16-.61-.3-1.05L2.28,38.46l-.22-.1-.15-.76c-.7-.21-.84-.5-.62-1.21a1.92,1.92,0,0,0-.07-.74C1.14,34.72,1,33.8,1,32.88c0-.72-.1-1.43-.08-2.15a5.27,5.27,0,0,1,.27-1.09l.18,0a3.77,3.77,0,0,1-.56-.93,5.6,5.6,0,0,1,0-1.16C.7,26.66.64,25.74.55,24.84s.62-.6,1-.84a2.61,2.61,0,0,0,.27-.3l-.19-.15c-.29-.38-.43-.72-.67-.84A1,1,0,0,1,.35,21.6c0-.46-.1-.91-.09-1.37a1.48,1.48,0,0,1,.24-.8.78.78,0,0,0,0-1.1C0,17.7.07,17.45.67,16.94a4.16,4.16,0,0,0,.61-1.16A1.28,1.28,0,0,1,0,14.31c0-1.81.1-3.64.31-5.44A2.48,2.48,0,0,1,3.4,7.22c.32.16.49.65.72,1s.32.47.48.7l.18-.11-.31-.63.88-.64a2.43,2.43,0,0,1,2.5.21,5.21,5.21,0,0,1,1.9,2.84c.25.84.68,1.63.92,2.48.51,1.85,1,3.71,1.4,5.58A4.34,4.34,0,0,1,12,19.77c0,.13,0,.29,0,.38a5.29,5.29,0,0,1,.65,4.07,7.64,7.64,0,0,0,0,1.29L12.2,24l-1.56,1.24,1.56.91c.86-.25,1.14-.06,1.25.83s.24,1.78.32,2.68a1.56,1.56,0,0,1-.18.88c-.53.82-.55.8.28,1.44.12-.15.25-.31.36-.47,1.09-1.67,2.17-3.36,3.29-5,2.38-3.53,4.76-7.06,7.18-10.56a6.28,6.28,0,0,1,1.33-1c.09-.07.22-.26.19-.31-.31-.56.14-.87.44-1.15,1.14-1.05,2.31-2.06,3.49-3.07a1.1,1.1,0,0,1,.68-.24c1.29,0,2.58.07,3.87.09.71,0,1,.46,1.16,1A4.49,4.49,0,0,1,35.75,14q-.84,2.46-1.91,4.83c-.7,1.56-1.48,3.08-2.29,4.59-.67,1.23-1.43,2.41-2.14,3.62-.41.71-.8,1.43-1.2,2.15-1.45,2.61-2.86,5.24-4.38,7.81-1,1.65-2.07,3.22-3.18,4.78-.69,1-1.49,1.82-2.31,2.81a6.24,6.24,0,0,0,.57.63c5.26,4.8,10.54,9.58,15.79,14.4,2.44,2.24,4.91,4.47,7.19,6.85,3.73,3.89,7.34,7.89,10.94,11.89,1.31,1.45,2.47,3,3.68,4.56.77,1,1.53,1.92,2.27,2.9a7.75,7.75,0,0,1,1.76,3.57c.3,2.14-.94,3.06-2.82,3.12a13.64,13.64,0,0,1-7-2,17.55,17.55,0,0,1-5.51-4.74c-1.94-2.52-4-5-5.86-7.51-1-1.3-2.22-2.27-3.2-3.53s-2.12-2.39-3.2-3.57c-4.12-4.5-8.62-8.62-13.11-12.73-1.2-1.09-2.37-2.21-3.56-3.32C16.07,55,15.88,54.89,15.69,54.73Zm15.25-32.2a5.1,5.1,0,0,1-.68.46c-.43.21-.68.83-1.32.56a1.66,1.66,0,0,0-.5.06c.81.49,1.34,1.23,2.2.7ZM14.65,62.21l.54,1.09C15.5,62.41,15.34,62.13,14.65,62.21Z"/>
        <path class="1c3691fc-1db5-4fff-875a-38856301d710" d="M61.29,48.56c1,3.1,2,6.11,2.93,9.14A35.44,35.44,0,0,1,65.34,62a19.16,19.16,0,0,1,0,3.24c-.49-.1-.88-.21-1.28-.26a2.18,2.18,0,0,0-.71.1c-.3.09-.59.32-.88.32-1.27,0-2.54-.12-3.82-.13a2.42,2.42,0,0,1-2.26-1.68,11.67,11.67,0,0,1-.68-1.84,5.25,5.25,0,0,1-.7-1.06c-1-2.88-2-5.77-3-8.66-.06-.17-.13-.33-.21-.54L46.53,53a4.1,4.1,0,0,1-.66.19c-1.55.15-2.53.82-2.66,2.53A1.77,1.77,0,0,1,41.53,57c-1,0-1.91-.05-2.86-.12a1.44,1.44,0,0,1-1.38-1.17c-.38-1.4-.4-1.39-1.84-1.42a3,3,0,0,1-.93-.11c.56-.27,1.12-.57,1.7-.8a.59.59,0,0,0,.45-.71,70,70,0,0,1-.1-13.81,28.71,28.71,0,0,1,1.74-8.35,5.07,5.07,0,0,1,.77-1.28c.16-.19.47-.25.73-.41s.61-.42.91-.42c2.79,0,5.57,0,8.36,0a3.39,3.39,0,0,1,2.34,1,20.06,20.06,0,0,1,4.44,6.1c1.4,3,2.67,6,4,9,.18.42.36.47.8.44,1.73-.14,3.46-.2,5.19-.25a.93.93,0,0,1,.61.4,1.24,1.24,0,0,1-.6,1.88Zm-10.35-.38a141.11,141.11,0,0,0-5.47-14.09c-1.13,5.39-1.23,10.84-1.38,16.36Z"/>
        <path class="1c3691fc-1db5-4fff-875a-38856301d710" d="M68.07,22.86c-1.33.18-2.57.31-3.8.53-2.69.49-5.36,1.13-8.07,1.5a26.08,26.08,0,0,1-5-.06c1.37-.36,2.72-.8,4.11-1,3.28-.6,6.58-1.08,9.86-1.66.94-.16,1.85-.47,2.79-.69.41-.1.56-.34.7-.73.52-1.45,1-2.91,1.69-4.32a10.42,10.42,0,0,1,1.42-2.09,5.27,5.27,0,0,1,4.61-2.07c1.8.1,3.61,0,5.41,0a5.19,5.19,0,0,1,1.61.28c.67.23.71.64.31,1.22-.13.19-.19.64-.09.73.4.33.11.58,0,.83a9.27,9.27,0,0,1-3.36,3.45,52.83,52.83,0,0,1-4.82,2.41.92.92,0,0,0-.64.83,65,65,0,0,0-.28,10.53c0,1.51,0,3,0,4.57l-.67.22.65,1,.1-.09Q75.49,47.1,76.37,56c.43,4.43.86,8.86,1.25,13.29a7.63,7.63,0,0,1-.19,1.63c0,.07-.06.16,0,.2.68,1.16.25,2.37.12,3.54a2.58,2.58,0,0,1-2,2.35,15.87,15.87,0,0,1-5.16.27c.09-.34.26-.61.2-.81a17.63,17.63,0,0,1-.74-4.84c-.05-1.49-.33-3-.49-4.45q-.43-4.14-.83-8.3c-.14-1.49-.21-3-.33-4.46-.29-3.47-.7-6.94-.88-10.42a118.62,118.62,0,0,1,.58-19.67C67.89,23.86,68,23.44,68.07,22.86Zm2.82,6.06.12-.26a3.53,3.53,0,0,1-.82-.76c-.32-.58-.76-.12-1.13-.22,0,.3,0,.6,0,.9s0,.42,0,.78Z"/>
        <path class="1c3691fc-1db5-4fff-875a-38856301d710" d="M97,27.53a7.55,7.55,0,0,0-1,.59,1.23,1.23,0,0,0,.28.61c.07.08.32,0,.55,0l.41.5.47-.9a1.16,1.16,0,0,1-.49,1.63,4.72,4.72,0,0,1-.26,1.23,38.21,38.21,0,0,1-8.39,10,3.39,3.39,0,0,0-1.33,3.3,23.38,23.38,0,0,0,8.21,15.28c1,.9.79.9,1.81-.15a15.67,15.67,0,0,0,3.14-5.69c.24-.65.28-1.38.5-2s.74-1.16.69-1.7a3.4,3.4,0,0,1,0-1.49c.15-.49.42-.94.55-1.43s0-.82.14-1.22c.15-.64.43-1.26.57-1.91s.15-1.31.22-2a5.81,5.81,0,0,1,.13-1c.12-.45.58-.7.89-.45a12.14,12.14,0,0,1,1.4,1.65h-1l0,.2c.11,0,.23.14.33.12.89-.14,1.17.47,1.49,1.11s.64.68,1.36,0v.88c0,.27,0,.54,0,.81,0,.54.16.87.91.54-.11,1.15-.2,2.2-.32,3.25s-.31,2.19-.42,3.3,0,2.51-1.27,3.32l.33.23.4-.63.14,0c-.22.58-.45,1.15-.65,1.74-.09.23-.12.49-.19.73-.52,1.79-3.13,4.23-5.46,4.07-2.61-.18-5.25-.11-7.88,0a10.16,10.16,0,0,1-7.84-3.43,21.55,21.55,0,0,1-4.48-7c-.12-.29,0-.65-.14-.95s-.4-.6-.48-.93c-.35-1.29-.65-2.59-1-3.89a2.73,2.73,0,0,1-.07-.37l-.91-.1c0-.09,0-.16,0-.17.86-.32.92-1,.94-1.8a22.22,22.22,0,0,1,2-9.1,12.61,12.61,0,0,1,6.51-6.37,6.27,6.27,0,0,1,2.32-.46c2.15-.05,4.29,0,6.44,0A1.75,1.75,0,0,1,97,27.53Zm-5,1.79a11.42,11.42,0,0,0-4.35,7C89.43,34.21,91.28,32.11,92,29.32Z"/>
      </g>
      <g>
        <path class="1c3691fc-1db5-4fff-875a-38856301d710" d="M185.47,132.26a4,4,0,0,0-.75-.14c-.92,0-1.83-.05-2.74,0a4.37,4.37,0,0,1-2.42-.58,19.14,19.14,0,0,0-2.46-1.18,4,4,0,0,1-1.85-1.91,3.47,3.47,0,0,0-.31-.44,59.94,59.94,0,0,1-10.16-13.29c-2-3.42-3.67-7-5.5-10.48-.26-.49-.63-.94-.89-1.44-.1-.2,0-.52-.06-.73-.29-.71-.64-1.4-1-2.09-.06-.12-.21-.24-.2-.34.08-.57-.25-.71-.72-.74a1.62,1.62,0,0,1-.44-.17l.87-.42-1.42-.59.83-.25.09-.2-1.13-.63.56-.25c.15-.32-.73-1.66-1.35-2l.34-.8-.46-.2c0-.08,0-.14,0-.16.45-.43.41-.74-.13-1a.62.62,0,0,1-.25-.4c0-.54-.31-.76-.83-.78a7.81,7.81,0,0,1-1-.1v-.23l1.09-.11c.71-1.49-.43-2.51-.89-3.87-.12.21-.17.27-.2.34s0,.11-.22.22l-.41-1.35c.57,0,.47-.33.31-.7-.47-1.08-1-2.17-1.37-3.28a.9.9,0,0,1,.21-.73,1.46,1.46,0,0,0,.19-1.56l.14-.13a3.51,3.51,0,0,1,.61.68c.66,1.43,1.28,2.87,1.92,4.31a7.38,7.38,0,0,0,.41.72l.18,0,.18-.59,1.4,2.83-.83-.1-.06.23,1.14.33-.82.19c.25.59.34,1.19,1.19,1.21.25,0,.48.5.78.83l-.59.26c0,.08.06.15.09.15,1,0,1,1,1.32,1.52A17,17,0,0,1,159,94.15c.06.12,0,.28,0,.42s0,.49.07.51c.83.25.91,1.09,1.22,1.67A139,139,0,0,0,171,113.24a100.44,100.44,0,0,0,10.26,12.11,7.47,7.47,0,0,0,1.24.79c.86.56,1.72,1.12,2.57,1.69.51.35,1,.7,1.5,1.08a.94.94,0,0,0,1.25,0,12.3,12.3,0,0,0,1.09-.81c1.42-1.26,2.87-2.49,4.2-3.82a23.82,23.82,0,0,0,2.28-2.82c.65-.9,1.19-1.88,1.83-2.78a5.84,5.84,0,0,1,1-.88l.13.15s.06-.08,0-.12c-.26-1.67,1.13-2.51,1.83-3.7.22-.36.46-.71.68-1.07.06-.1.09-.24.18-.29.44-.22.82-.41.1-.78-.05,0,0-.21,0-.32.08-1.32.13-2.65.27-4a8.67,8.67,0,0,1,.47-1.61,2,2,0,0,0,.17-.7c0-.15-.29-.24-.43-.39s-.19-.23-.17-.34c.07-.53-.34-1.19.38-1.57,0,0,.1-.14.08-.17-.39-.58,0-1,.33-1.37-.51-.38.26-1.24-.59-1.53-.13-.05-.19-.45-.19-.69,0-.77-.27-1.56.25-2.32.21-.3,0-.85.06-1.28v-.39l.57-.18c-.13-.13-.24-.32-.4-.38-.39-.16-.48-.42-.54-.82-.11-.75-.37-1.49-.48-2.25-.07-.51.05-1,0-1.58a5,5,0,0,0-.16-.93c.6-.29.57-.26.08-.75a2,2,0,0,1-.39-.88c-.15-.71-.26-1.42-.39-2.13-.1-.55-.24-1.1.59-1.38l-.57-.3c.21-.37.34-.73-.22-1-.14-.06-.23-.34-.27-.53-.2-.93-.3-1.89-.56-2.8a3.52,3.52,0,0,1,.48-2.91l-.86,0a3.26,3.26,0,0,1-.27-1.14c0-.3.36-.57.57-.89l-.87-.12c-.24-1.2-.49-2.42-.71-3.65,0-.09.09-.22.17-.3a.67.67,0,0,0,0-1,1.82,1.82,0,0,1-.74-2.09l.41.26.06-.07-.91-1.13c.26-.23.57-.39.55-.5a1,1,0,0,0-.39-.62,1.43,1.43,0,0,1-.42-2.15c-.5-.38-.76-.77-.3-1.43.16-.22-.08-.75-.18-1.13-.19-.68-.41-1.35-.58-1.9-.29-.28-.65-.47-.7-.72a11.4,11.4,0,0,1-.14-1.76,1.32,1.32,0,0,0-.14-.45,10.17,10.17,0,0,1-.61-1.18c-.22-.67-.36-1.37-.57-2.23-.24.37-.41.6-.55.84a2.14,2.14,0,0,1-2,1.12h-9.12a3.86,3.86,0,0,1-2.92-1.28,11.38,11.38,0,0,1-2.42-4c-.08-.22.26-.57.29-.88a1.69,1.69,0,0,0-.16-1c-.12-.17-.57-.12-1-.2a20.28,20.28,0,0,1-.61-2c-.06-.3.19-.67.17-1s-.15-.76-.36-.85c-.56-.25-.61-.68-.62-1.17s-.51-.72.12-1.16c.24-.17,0-1,0-1.55l-.69.14a7.8,7.8,0,0,1-.3-1.2,1,1,0,0,1,.25-.65c.5-.54.52-.88,0-1.34-.07-.06-.16-.19-.14-.26.16-.41,0-.58-.41-.61-.09,0-.22-.28-.24-.44q-.79-7.09-1.55-14.21a2.35,2.35,0,0,1,.09-.87,1,1,0,0,1,1.14-.84c1.21,0,2.42,0,3.63,0a2.85,2.85,0,0,1,2.54,2.44,2.8,2.8,0,0,0,.25.79c.28.67.91,1.28.35,2.11-.08.1.08.54.17.55.63.11.61.64.71,1.05a13.81,13.81,0,0,1,.75,3.73c0,.87.54,1.43.51,2.17-.07,1.31.57,2.45.75,3.7a4.85,4.85,0,0,1,0,.9c.7.7,1.28,4.25.67,5,.69-.13.86.29,1,.8.13.71.24,1.43.41,2.13a6.15,6.15,0,0,0,.42.8c.47,1.17.93,2.35,1.4,3.52h.2c.24-.86.51-1.72.71-2.59a56,56,0,0,0,1.34-13.59,29.94,29.94,0,0,0-.85-4.42c-.1-.59-.47-1.2,0-1.8.1-.15.22-.29.39-.51-.24-.58-.11-1.56-1.14-1.85,0-1.64,0-3.3,0-4.95,0-.25.28-.5.51-.88h7.92c.55,0,.46.38.5.71.27,2.26.5,4.53.83,6.78.15,1,.61,2,.71,3.06.15,1.43.85,2.68,1.1,4.06a8.26,8.26,0,0,1,.06,1,.55.55,0,0,0,.06.28,3.8,3.8,0,0,1,.72,2.67.4.4,0,0,0,.07.32c.9.91.7,2.21,1.15,3.28a9.12,9.12,0,0,1,.44,1.63,1.91,1.91,0,0,1-.13.69l-.74-.21c.08.92,1,1.17,1.37,1.81l-.47.61.18,0c.26.49.52,1,.76,1.48a3.21,3.21,0,0,1,.42,1c.14,1.45.9,2.71,1.14,4.13a5.89,5.89,0,0,1,.29,2.37c-.07.34.23.75.36,1.13a1.86,1.86,0,0,1,.08.41c0,.13,0,.3,0,.37.93,1,.83,2.39,1.18,3.6.05.19-.27.49-.41.74s-.17.29-.25.43l.16.11.66-.71c.38,1.6.75,3,1,4.51a9.15,9.15,0,0,1,.13,2.09c0,.26-.31.5-.49.78.14,0,.2.08.23.07.21-.08.41-.18.62-.27a2.64,2.64,0,0,1,.29.81,4.27,4.27,0,0,1-.14,1l-1.24.42a.87.87,0,0,0,1.31,0l.48.45-.49.37c.84.61,1.81,4.63,1.27,5.43l-.45-.52.1,1.08.51-.21.82,2.23a.55.55,0,0,1,.06.27c-.3,1.44.65,2.63.77,4s.45,2.73.61,4.11a9.82,9.82,0,0,1-.14,1.81l-.79-.31.15.9.6-.06c.35,0,.53.08.54.5,0,.57.17,1.09-.55,1.46-.35.19-.2.73.17,1.11l.18-.43a3.9,3.9,0,0,1,.58,1.1,4.16,4.16,0,0,1-.07,1.64,5.52,5.52,0,0,0,.24,2.43,1.08,1.08,0,0,1-.18,1.21l-.5,0c0,.19-.05.49,0,.55,1.1.63.86,1.69.86,2.66s0,2.14,0,3.21,0,2.23,0,3.35c0,.76,0,1.53-.07,2.29,0,.16-.29.36-.48.44a6.1,6.1,0,0,0-1,.32l.37.1c.23.46.44.82.59,1.2a1.55,1.55,0,0,1,.14.81c-.2.88-.47,1.75-.71,2.63a35.93,35.93,0,0,1-1,3.58,38.71,38.71,0,0,1-2.43,5.37,18.07,18.07,0,0,1-4.62,5.74,16.18,16.18,0,0,1-2.41,1.55,5.76,5.76,0,0,1-2,.49c-.9.08-1.82,0-2.74,0a5.14,5.14,0,0,0-.86.14Z"/>
        <path class="1c3691fc-1db5-4fff-875a-38856301d710" d="M265.41,47.38c.32,1.47.65,2.83.91,4.21.1.57.48,1.14.09,1.78-.06.11.26.43.36.67.16.42.56.88-.13,1.3.81.24.68,1,.8,1.52.31,1.4.52,2.82.84,4.22s.78,2.89,1.16,4.34q1.5,5.6,3,11.19c.19.71.15.79-.6.79-2.51,0-5,0-7.54,0a1,1,0,0,1-1.16-.82c-.88-3.18-1.8-6.36-2.65-9.55-.65-2.47-1.24-5-1.81-7.44-.24-1.07-.35-2.17-.57-3.24-.28-1.3-.64-2.58-.91-3.88-.09-.43-.41-.9.15-1.35.15-.12.06-.76-.12-1a3.09,3.09,0,0,1-.74-1.68,19.79,19.79,0,0,0-.75-3.49c-.08-.35-.14-.71-.22-1.11l-1.67-.17v-.09l1.64-.08c-.15-.88-.31-1.72-.44-2.56-.35-2.13-.65-4.27-1.05-6.39-.35-1.83-.81-3.64-1.23-5.46-.52-2.23-1.06-4.46-1.58-6.7-.15-.61-.29-1.2-1.19-1l.87-.48a3.05,3.05,0,0,0-.78-.42c-.54-.06-1.1,0-1.64-.05-.14,0-.34.05-.41,0-.58-.64-1.15-.17-1.63.08a51,51,0,0,0-5,2.79c-2.74,1.84-5.38,3.84-8,5.91h3A11,11,0,0,1,243.74,32a21.64,21.64,0,0,1,4.69,6.44,17.8,17.8,0,0,1,1.85,9,1.63,1.63,0,0,1-.56,1.25.77.77,0,0,0,.14,1.27.75.75,0,0,1,.31.57,13.33,13.33,0,0,1-2.53,7.47,3.4,3.4,0,0,1-2.75,1.45c-2.69,0-5.39,0-8.08,0a6.09,6.09,0,0,1-5.16-3.24l-.53-.82c0,1.18,0,2.18,0,3.17,0,1.34.05,2.69.06,4,0,1,.05,2,0,3a42,42,0,0,1-1.68,10,6.34,6.34,0,0,1-.84,1.85,1.82,1.82,0,0,1-1.25.64c-2.9,0-5.8,0-8.7,0a3.08,3.08,0,0,1-2.62-1.61,2.1,2.1,0,0,1-.12-.59c-.14-.15-.45-.32-.54-.57-.59-1.69-1.14-3.4-1.69-5.1-.11-.32-.19-.65-.29-1l1-.78-.12-.14-.87.33c-.3-1-.62-2-.82-2.91-.16-.77-.57-1.57,0-2.36.06-.09-.06-.44-.12-.44-.64-.06-.6-.59-.62-1-.05-1,0-2.05,0-3.09l-.36.1c-.56-1.37-.55-2.91.07-3.11-.27-.54-.19-1.12-.78-1.63-.37-.31-.2-1.27-.22-1.93,0-.18.18-.36.19-.38a4.21,4.21,0,0,1-.5-1.05c-.15-1.23-.26-2.45-.33-3.68,0-.27.25-.53.28-.81a1.92,1.92,0,0,0-.14-.82c-.17-.45-.4-.88-.63-1.38l.43-.1a5.34,5.34,0,0,1-.38-1.1c-.27-2.24-.51-4.48-.75-6.72-.16-1.61-.31-3.22-.44-4.83a2.31,2.31,0,0,1,.12-.72c-.15-.83-.33-1.53-.41-2.24-.24-2-.42-3.95-.67-5.91-.34-2.65-.74-5.29-1.09-7.94-.2-1.49-.37-3-.52-4.48a22.58,22.58,0,0,1,.92-8.33c.3-1.11.76-1.38,2-1.37s1.58.24,1.86,1.38c.47,1.86.82,3.75,1.3,5.6.55,2.14,1.21,4.25,1.78,6.39.64,2.38,1.28,4.75,1.79,7.16.16.7-.17,1.51.49,2.11.54,3.34,1.07,6.67,1.61,10,0,.14.08.32,0,.4-.51.69-.05,1.42-.13,2.12a8.78,8.78,0,0,0,0,1,2.07,2.07,0,0,1,.67,1.59,2,2,0,0,0,0,.72c.09.46.24.92.31,1.38.16,1.1.3,2.21.46,3.45l-.62-.36-.17,1,.64.22L218.6,46l.15,0c.15.2.37.38.42.61.14.64.22,1.3.3,2,.06.51.2,1-.43,1.37-.08,0-.1.47,0,.5,1.23.62.94,1.85,1.11,2.85.28,1.68.35,3.39.66,5.06.58,3.14,1.31,6.25,1.87,9.39.16.93.63,1.72.72,2.64h.18l.87-2.83a108.22,108.22,0,0,0,3.05-16.27c.26-1.83.56-3.66.64-5.51a38.15,38.15,0,0,0-.29-4.64c-.31-3.77-.64-7.55-1-11.46h-2.07c2.36-.83,4.08-2.54,6-3.92a53.69,53.69,0,0,1,7.54-4.84,14.62,14.62,0,0,1,6.5-1.7l5.68,0h.74c0-1,.15-1.22,1.14-1.22a3.85,3.85,0,0,0,.48,0A3.42,3.42,0,0,1,255.93,19a2.58,2.58,0,0,0,2.13.82c3.7-.06,7.4-.05,11.1,0a10.25,10.25,0,0,1,7.26,2.71c.15.14.27.32.51.6h-.63a.8.8,0,0,0-.44.06l1.55.75c-.58.64-.58.64-.16,1.14l.28-.34.38-.5a9.17,9.17,0,0,1,.46,1.89,14.87,14.87,0,0,1-.23,5,7.28,7.28,0,0,1-.31.77c-.22.44-.47.42-.75-.05,0,.17-.15.36-.1.42.55.6.17,1.12-.13,1.64a21.86,21.86,0,0,1-6.22,7.2,15,15,0,0,1-4.51,2.09,1.81,1.81,0,0,0-.61.26c.63,0,1.27.05,1.9.11A16.05,16.05,0,0,1,274,46.33a71,71,0,0,1,13.71,11.41c3.09,3.15,6.15,6.32,9.24,9.47,1,1,1.95,2,3.05,3.08a12.41,12.41,0,0,1-1.53.2c-2.26,0-4.53,0-6.79.05a3.42,3.42,0,0,1-2.63-1.06c-3.71-3.82-7.47-7.58-11.18-11.4a85.24,85.24,0,0,0-12-10.44A5.2,5.2,0,0,0,265.41,47.38ZM235.18,40.6l.22-.09c.13.76.25,1.53.39,2.29a56.33,56.33,0,0,0,2.6,10.69,11.66,11.66,0,0,0,2.49,4.17l2-3.49c.35.5.76.62,1.24.25l-1-1.14s0-.09,0-.2a29.49,29.49,0,0,0,.61-9.73,7.42,7.42,0,0,0-.39-1.8,23.21,23.21,0,0,0-3.51-6.86,12.7,12.7,0,0,0-5.15-4.4c-.44-.2-.91-.36-1.5-.58l.17.52a48.87,48.87,0,0,1,1.79,8.7,2.67,2.67,0,0,1-.24.92l-.3.07ZM258.2,21c2.8,6,4.08,12.38,5.69,18.77a41.28,41.28,0,0,0,3-3.64A28.41,28.41,0,0,0,269,32.73a10.85,10.85,0,0,0,1-5.31,6.49,6.49,0,0,0-2.27-5.18C264.82,19.75,261.58,19.91,258.2,21Zm-6.66-1.78,1.76-.12,0-.16c-.4-.07,0-1-.79-.62A6.91,6.91,0,0,0,251.54,19.18Zm7.29,17.6.33.13.37-.8.67.31.23-.81a5.92,5.92,0,0,0-1.22.44C259,36.18,259,36.53,258.83,36.78ZM214.49,46.4l-.41.07c.11.45.19.9.34,1.34,0,.07.32,0,.49.07v-.06l-.45-.35.19,0ZM210.29,7c-.7-.44-1.08-.25-1.39.33Z"/>
        <path class="1c3691fc-1db5-4fff-875a-38856301d710" d="M158.48,1.36l-.58.2.49.78.57-.16a7.19,7.19,0,0,1-.05,3.36,15.63,15.63,0,0,1-3.51,6.36,29.55,29.55,0,0,1-12.58,9,1.06,1.06,0,0,0-.81,1.06c-.21,3-.53,6-.66,9-.2,4.64-.27,9.27-.39,13.77-.35.15-.84.2-1,.45-.26.51-.28,1.14.41,1.4s.67.66.67,1.22c0,2.67,0,5.34,0,8a3.76,3.76,0,0,1-.19.87,3,3,0,0,1,.2.78c-.07,4.36-.14,8.72-.24,13.08,0,1.73-.12,3.46-.2,5.19,0,.36-.15.71-.17,1.07s.08.72.06,1.07c-.2,3-.42,6.09-.63,9.13,0,.43-.05.87-.11,1.3s-.13.81-.71.42c-.14-.1-.39-.06-.66-.09l.31.58-.18-.06-.73,1.55c.54.1,1.16.31,1.72-.31-.15,1.14-.21,2.29-.46,3.4-.48,2.06-1,4.13-1.64,6.14a4.68,4.68,0,0,1-5,3.54c-.74,0-1.5,0-2.36,0,1-8.14,2.22-16.19,2.55-24.32.51,0,.88.18.66-.63-.14-.55-.75-.87-.58-1.57a10,10,0,0,0,.1-2c0-.63.13-1.27.15-1.9,0-2.08.07-4.15.14-6.22a8.53,8.53,0,0,1,.25-1.32,1.08,1.08,0,0,0,0-.4,59.4,59.4,0,0,1-.08-10c.09-3.18,0-6.36.15-9.54.24-5.54.58-11.08.94-16.61.1-1.64.41-3.26.62-4.91l-2.35.32a6,6,0,0,1-.74.08H118.18a7,7,0,0,1-5.81-2.95,1.76,1.76,0,0,0-.35-.41,3.94,3.94,0,0,1-1.68-4,22.4,22.4,0,0,1,1.43-6.32,1.07,1.07,0,0,1,.76-.5,63.45,63.45,0,0,1,9.55-.34,1.31,1.31,0,0,1,1.14,1.27c0,1.29.13,2.58.17,3.88,0,.48.39,1.11-.44,1.34-.06,0-.07.24-.09.37a4.32,4.32,0,0,0,1.27,3.84,2.83,2.83,0,0,0,1.75,1,23.36,23.36,0,0,0,8.78-.17,1,1,0,0,0,.92-1,43.39,43.39,0,0,1,4.95-14.42A15.54,15.54,0,0,1,145.45.57,3.31,3.31,0,0,1,147,0c2.9,0,5.8,0,8.7.08A4.65,4.65,0,0,1,158.48,1.36ZM142.66,17.77c.31-.21.5-.31.67-.44,1.1-.86,2.18-1.73,3.28-2.58.24-.18.58-.26.78-.47s.5-.76.77-1.13c1.1-1.45,2.3-2.83,3.31-4.35a9.19,9.19,0,0,0,1.64-5.75A2.45,2.45,0,0,0,151.91,1c-.4-.27-.72-.33-1.08,0-.65.65-1.35,1.24-2,1.92C145.21,7.12,143.78,12.28,142.66,17.77Zm-17,4.48-.09.19c.36.16.73.5,1.07.46a24.32,24.32,0,0,0,2.62-.53l0-.12Zm12.28,7.5.2-.25a3,3,0,0,0-.76-.6c-.17-.07-.44.16-.73.28Z"/>
        <path class="1c3691fc-1db5-4fff-875a-38856301d710" d="M146.09,48.76l-1-.06c1.22.16,1.25-.75,1.44-1.54,1-4.12,2-8.24,3.07-12.35a11.79,11.79,0,0,1,.75-1.8c0-.14-.2-.37-.15-.54,1-3.32,2-6.64,3-9.95.27-.86.73-1.65,1-2.5a5.32,5.32,0,0,0,.09-1.25h6.42c.75,0,1.5,0,2.25,0a1.12,1.12,0,0,1,1.22.78,14.72,14.72,0,0,1,1,2.52,22.64,22.64,0,0,0,1,2.57,6.39,6.39,0,0,1,.16,1c0,.08,0,.19,0,.25,1.2,1.86,1.52,4.05,2.25,6.09a4.44,4.44,0,0,1,.08,1c-.32.21-.75.48-.36,1l.76.14c0,.34-.08.71,0,.76.74.41.71,1.18.89,1.83.6,2.19,1.15,4.4,1.73,6.59.28,1.09.6,2.17.9,3.25a13.42,13.42,0,0,1,.41,1.6,12,12,0,0,1-.05,1.65c1,.77,1.05,2.1,1.16,3.45a6.46,6.46,0,0,0,.54,1.46,9.19,9.19,0,0,1,.78,2.87c0,.74.39,1.13.53,1.69a11.55,11.55,0,0,1,.19,1.2,1.13,1.13,0,0,0,0,.26c.24.76.56,1.5.74,2.27.25,1,1.07,1.9.82,3.07,0,.08.17.2.21.32a4.46,4.46,0,0,1,.24.73c.07.29.1.59.16,1l-.48,0c-.05.23,0,.75-.64.33.16.43.16.43,1.67,0,.56,1.91,1.13,3.82,1.69,5.73l-.08.09-.65-1-.64.9.68,0c-.05.09-.07.18-.1.18-.54,0-1.09.13-1.63.13-2.24,0-4.47,0-6.71-.08a.87.87,0,0,1-.7-.36c-.56-1.46-1.06-2.94-1.6-4.45l.57-.18c-.44-.84-.87-1.65-1.33-2.5.26-.4.1-.64-.31-1.09a3.77,3.77,0,0,1-.81-2.1c0-.44.45-.93.74-1.47a2.14,2.14,0,0,0-.67-.27c-.71,0-.81-.48-.95-1-.22-.81-.47-1.61-.71-2.41.3-.24.58-.3.14-.83s-.4-1.4-.57-2.13c0-.07,0-.18,0-.2-1-.64-.77-1.85-1.18-2.76a7.61,7.61,0,0,1-.47-1.85,3,3,0,0,1,.16-.94l-.24-.42.16.06c.2-.38.41-.77.6-1.16.31-.63-.16-.82-.59-.79-.6,0-.8-.08-.47-.8-.63.23-1.14.39-1.63.59a19.77,19.77,0,0,1-7,1.45.68.68,0,0,0-.53.35c-.88,2.71-1.69,5.44-2.59,8.14a14.2,14.2,0,0,1-2.4,4.73,1.73,1.73,0,0,1-1.07.6c-1.18.09-2.36.08-3.55.06-.2,0-.4-.2-.71-.35l-.23.2a13.6,13.6,0,0,1,0-2.31c.28-1.59.66-3.17,1-4.74.05-.23.29-.41.4-.56a4.09,4.09,0,0,1,0-1.05c.29-1.43.62-2.85.94-4.28C146,49.31,146,49.06,146.09,48.76ZM158.66,32.7c-1.18,4.3-2.35,8.56-3.54,12.92a1.89,1.89,0,0,0,.38-.09c2.13-1.08,4.26-2.14,6.35-3.29.23-.13.92-.26.67-.86l-1.34-.22c.24-.41.63-.77-.08-.87-.08,0-.14-.23-.17-.36a8,8,0,0,0-.16-.85c-.4-1.3-.84-2.6-1.22-3.91-.05-.16.12-.39.15-.49C159.36,34,159,33.4,158.66,32.7ZM153.54,26l1.21.07a1.15,1.15,0,0,0-1.41-.24,1.23,1.23,0,0,0-.78,1l.2.14Z"/>
        <path class="1c3691fc-1db5-4fff-875a-38856301d710" d="M150.17,81.11c-.14-.36-.31-.71-.42-1.07a1.35,1.35,0,0,1,0-.49,2.93,2.93,0,0,1,.53.12,1.89,1.89,0,0,1,.39.35c-.58.09-.78.29-.29.72.05.05,0,.26,0,.4Z"/>
        <path class="1c3691fc-1db5-4fff-875a-38856301d710" d="M152.72,89.54h-1.07v-.16h1.08Z"/>
      </g>
    </g>
  </g>
</svg>
