<svg id="fd831375-b9b4-46e0-bcec-6be855b0e67d" data-name="Layer 1" xmlns="http://www.w3.org/2000/svg" viewBox="0 0 300 132.26">
  <defs>
    <style>
      .c9d24625-3577-4ca8-bbb6-ebaa7a914a8a {
        fill: #a2a537;
      }
    </style>
  </defs>
  <title>ktm-</title>
  <g id="29a7ed16-99dc-4399-979b-0329d7a17da8" data-name="h77Aio.tif">
    <g>
      <g>
        <path class="c9d24625-3577-4ca8-bbb6-ebaa7a914a8a" d="M16,55.28c0,.95,0,1.83,0,2.71.05,1,.16,2.09.24,3.14,0,.5.24,1-.31,1.44-.09.06-.08.29-.08.45,0,.83-.13,1.72.59,2.4.12.1.12.39.08.58a3.58,3.58,0,0,1-.32.9,2.4,2.4,0,0,0-.14,1.21c0,.34-.33.66-.54,1l.48.41c-.45.25-.82.46-1.2.64a1.35,1.35,0,0,1-.41.06,5.62,5.62,0,0,0,.15.55,5.1,5.1,0,0,1,.35.9,1.08,1.08,0,0,0,1.38,0c.29-.22.68-.16.64.41,0,.18.11.37.11.55A4.6,4.6,0,0,1,17,74a.92.92,0,0,0,.1.83,8.36,8.36,0,0,1,.42,1.79c.24.91-.31,1.83.13,2.75a.69.69,0,0,1-.55.94,4.36,4.36,0,0,1-1,.17c-3,0-6,.13-9,0-1.83-.06-2-.06-2.66-2.12A15.08,15.08,0,0,1,4.12,76c-.09-.62-.31-1.23-.36-1.86s0-1.52,0-2.07l1.18-.77v-.25l-1.44-.25a1.32,1.32,0,0,1,.26-1.37.62.62,0,0,0,.11-.56,11.68,11.68,0,0,1-.62-1.53,10.36,10.36,0,0,1-.06-1.93c0-.17.11-.33.1-.5a1.68,1.68,0,0,1,1-1.57l-.4-.53c-.2-.23-.53-.4-.27-.8,0-.05,0-.18,0-.26-.21-.46-.42-.93-.64-1.38s-.27-.82.55-.71c-.58-1.18.68-.91,1-1.43-.3-.32-.58-.48-1-.25-.65.33-.87-.1-.89-.63,0-.87,0-1.74,0-2.61H2.8l.08.65.22,0c0-.39.06-.87-.13-1.16a5.16,5.16,0,0,1-.66-3.45c0-.43-.1-1,.12-1.26a3,3,0,0,0,.5-2.19c0-.3.27-.59.32-.9a5.66,5.66,0,0,0,0-1.11l-1.33.07c0-.64.08-1.34.18-2,0-.15.32-.25.53-.41a.77.77,0,0,0-.15-.2c-.21-.21-.62-.39-.63-.59a4.21,4.21,0,0,1,.27-1.35,2.6,2.6,0,0,1,.48-.9c.3-.31.41-.85,1.08-.77.25,0,.67-.39.8-.7s-.16-.61-.3-1L2.58,39l-.22-.09-.15-.77c-.7-.2-.84-.49-.62-1.21a1.92,1.92,0,0,0-.07-.74c-.08-.92-.18-1.85-.25-2.77-.05-.71-.1-1.43-.08-2.15a4.83,4.83,0,0,1,.27-1.09l.17,0a4.06,4.06,0,0,1-.55-.93,5.59,5.59,0,0,1,0-1.16C1,27.21.94,26.3.85,25.39s.62-.6,1-.84a1.89,1.89,0,0,0,.27-.29,1.17,1.17,0,0,1-.19-.16c-.29-.38-.43-.72-.67-.83a1.07,1.07,0,0,1-.6-1.12c0-.45-.09-.91-.08-1.36A1.48,1.48,0,0,1,.8,20a.78.78,0,0,0-.05-1.1C.28,18.26.37,18,1,17.49a3.89,3.89,0,0,0,.61-1.16A1.28,1.28,0,0,1,.3,14.87c0-1.82.1-3.64.31-5.45A2.48,2.48,0,0,1,3.7,7.77c.32.16.49.65.72,1l.48.71.18-.11-.31-.64.88-.63a2.39,2.39,0,0,1,2.5.21,5.15,5.15,0,0,1,1.9,2.83c.25.84.68,1.64.92,2.48.51,1.85,1,3.71,1.4,5.58a4.34,4.34,0,0,1,0,1.13c0,.13-.05.29,0,.38A5.3,5.3,0,0,1,13,24.77a7.64,7.64,0,0,0,0,1.29l-.47-1.51-1.56,1.23,1.56.92c.86-.25,1.14-.06,1.25.82s.24,1.78.32,2.68a1.56,1.56,0,0,1-.18.88c-.53.82-.55.81.28,1.44a5.82,5.82,0,0,0,.36-.47c1.09-1.67,2.17-3.36,3.29-5C20.19,23.49,22.58,20,25,16.47a6.32,6.32,0,0,1,1.33-1c.09-.07.22-.25.19-.31-.31-.56.14-.87.44-1.15,1.14-1.05,2.31-2.06,3.49-3.06a1.11,1.11,0,0,1,.68-.25c1.29,0,2.58.07,3.87.09.71,0,1,.47,1.16,1a4.5,4.5,0,0,1-.11,2.81q-.84,2.45-1.91,4.82C33.44,21,32.66,22.5,31.85,24c-.67,1.23-1.43,2.41-2.14,3.62-.41.71-.8,1.43-1.2,2.15-1.45,2.61-2.86,5.25-4.38,7.82-1,1.64-2.07,3.21-3.19,4.77-.68,1-1.48,1.83-2.3,2.81a7.55,7.55,0,0,0,.57.64Q27.1,53,35,60.21c2.44,2.24,4.9,4.47,7.19,6.86C45.91,71,49.53,75,53.13,79c1.31,1.45,2.47,3,3.68,4.57.76,1,1.53,1.91,2.26,2.89A7.67,7.67,0,0,1,60.84,90c.3,2.14-.94,3.06-2.82,3.12a13.72,13.72,0,0,1-7-1.94,17.71,17.71,0,0,1-5.51-4.75c-1.94-2.51-4-4.94-5.86-7.51-1-1.3-2.22-2.27-3.2-3.53S34.29,73,33.21,71.8c-4.12-4.5-8.62-8.61-13.11-12.73-1.2-1.09-2.37-2.21-3.56-3.31C16.37,55.59,16.18,55.44,16,55.28ZM31.24,23.09a6,6,0,0,1-.68.45c-.43.21-.68.83-1.32.57-.09,0-.22,0-.5.05.81.49,1.34,1.23,2.2.7ZM14.94,62.76l.55,1.09C15.8,63,15.63,62.68,14.94,62.76Z"/>
        <path class="c9d24625-3577-4ca8-bbb6-ebaa7a914a8a" d="M61.59,49.12c1,3.09,2,6.1,2.93,9.13a35.44,35.44,0,0,1,1.12,4.28,19.16,19.16,0,0,1,0,3.24c-.49-.1-.88-.21-1.28-.26a2,2,0,0,0-.71.11c-.3.08-.59.31-.88.31-1.27,0-2.54-.11-3.82-.13a2.44,2.44,0,0,1-2.27-1.68A13.55,13.55,0,0,1,56,62.28a5.07,5.07,0,0,1-.69-1.06c-1-2.88-2-5.77-3-8.66-.06-.17-.13-.33-.21-.54l-5.35,1.52a4.1,4.1,0,0,1-.66.19c-1.55.15-2.53.82-2.66,2.53a1.76,1.76,0,0,1-1.68,1.31c-.95,0-1.91,0-2.86-.12a1.43,1.43,0,0,1-1.38-1.17c-.38-1.39-.4-1.39-1.84-1.42a2.7,2.7,0,0,1-.93-.11c.56-.27,1.12-.57,1.69-.8.36-.14.5-.31.46-.7a70.14,70.14,0,0,1-.1-13.82,28.78,28.78,0,0,1,1.74-8.35,5,5,0,0,1,.77-1.27c.16-.2.47-.26.73-.41S40.72,29,41,29c2.79,0,5.57,0,8.36,0a3.39,3.39,0,0,1,2.34,1,20.18,20.18,0,0,1,4.44,6.1c1.4,3,2.67,6,4,9,.18.42.36.47.8.44,1.73-.13,3.46-.2,5.19-.24a.88.88,0,0,1,.61.39,1.24,1.24,0,0,1-.6,1.88C64.64,48.07,63.15,48.58,61.59,49.12Zm-10.35-.39a141.11,141.11,0,0,0-5.47-14.09C44.64,40,44.54,45.48,44.39,51Z"/>
        <path class="c9d24625-3577-4ca8-bbb6-ebaa7a914a8a" d="M68.37,23.41c-1.33.19-2.57.31-3.8.54-2.69.48-5.36,1.12-8.07,1.49a26.07,26.07,0,0,1-5-.06c1.37-.36,2.72-.8,4.11-1.05,3.28-.59,6.58-1.08,9.86-1.65.94-.17,1.85-.48,2.79-.7a.94.94,0,0,0,.7-.72c.52-1.46,1-2.92,1.69-4.33a10.35,10.35,0,0,1,1.42-2.08,5.28,5.28,0,0,1,4.61-2.08c1.8.11,3.61,0,5.41,0a5.5,5.5,0,0,1,1.61.28c.67.23.71.64.31,1.22-.13.19-.19.64-.09.73.4.33.11.59,0,.83a9.13,9.13,0,0,1-3.36,3.45,50.37,50.37,0,0,1-4.82,2.41.93.93,0,0,0-.64.83,64,64,0,0,0-.28,10.54c0,1.5,0,3,0,4.56l-.67.22.65,1,.1-.09q.88,8.85,1.77,17.71c.43,4.43.86,8.86,1.25,13.29a7.72,7.72,0,0,1-.19,1.64c0,.06-.06.15,0,.2.68,1.15.25,2.36.12,3.53a2.58,2.58,0,0,1-2,2.35,15.59,15.59,0,0,1-5.16.27c.09-.33.26-.61.2-.81a17.63,17.63,0,0,1-.74-4.84c0-1.48-.33-3-.49-4.44q-.43-4.15-.83-8.31c-.14-1.48-.21-3-.33-4.46-.3-3.47-.7-6.94-.88-10.41a118.58,118.58,0,0,1,.58-19.67C68.19,24.42,68.28,24,68.37,23.41Zm2.82,6.06.12-.26a3.53,3.53,0,0,1-.82-.76c-.32-.58-.76-.12-1.13-.22,0,.3,0,.6,0,.9s0,.42.05.78Z"/>
        <path class="c9d24625-3577-4ca8-bbb6-ebaa7a914a8a" d="M97.28,28.08a8.81,8.81,0,0,0-1,.59,1.2,1.2,0,0,0,.28.61c.07.08.32,0,.55,0l.41.51.47-.9a1.15,1.15,0,0,1-.49,1.62,4.9,4.9,0,0,1-.26,1.24,38.17,38.17,0,0,1-8.39,10,3.37,3.37,0,0,0-1.33,3.3,23.38,23.38,0,0,0,8.21,15.28c1,.9.79.9,1.81-.14a15.63,15.63,0,0,0,3.14-5.7c.24-.65.28-1.37.49-2s.75-1.16.7-1.7a3.4,3.4,0,0,1,0-1.49c.15-.49.42-.94.55-1.43s0-.82.14-1.21c.15-.65.43-1.27.57-1.92s.14-1.31.22-2a5.81,5.81,0,0,1,.13-1c.12-.45.58-.7.89-.44a11.56,11.56,0,0,1,1.4,1.65h-1l0,.19c.11,0,.23.14.33.13.89-.14,1.17.46,1.49,1.1s.64.68,1.36,0v.88c0,.27,0,.54,0,.82,0,.53.16.86.91.53-.11,1.16-.21,2.2-.33,3.25s-.3,2.2-.41,3.3,0,2.51-1.27,3.33l.33.22.4-.63.14.05c-.22.58-.45,1.16-.66,1.74-.08.24-.11.49-.18.73-.52,1.79-3.13,4.24-5.46,4.07a76.7,76.7,0,0,0-7.88,0,10.2,10.2,0,0,1-7.84-3.44,21.44,21.44,0,0,1-4.48-7c-.12-.28,0-.65-.14-.94s-.4-.61-.48-.94c-.35-1.29-.65-2.59-1-3.89a2.73,2.73,0,0,1-.07-.37l-.92-.1c0-.09,0-.16,0-.17.86-.32.92-1,.94-1.8a22.22,22.22,0,0,1,2-9.1,12.62,12.62,0,0,1,6.5-6.37A6.36,6.36,0,0,1,90.39,28c2.14,0,4.29,0,6.44,0A2.36,2.36,0,0,1,97.28,28.08Zm-5,1.79a11.42,11.42,0,0,0-4.35,7C89.73,34.76,91.58,32.66,92.32,29.87Z"/>
      </g>
      <g>
        <path class="c9d24625-3577-4ca8-bbb6-ebaa7a914a8a" d="M185.77,132.81a4.94,4.94,0,0,0-.75-.14c-.92,0-1.83,0-2.74,0a4.46,4.46,0,0,1-2.42-.59,19.14,19.14,0,0,0-2.46-1.18,4,4,0,0,1-1.85-1.91,2.78,2.78,0,0,0-.31-.43,60,60,0,0,1-10.16-13.3c-2-3.41-3.67-7-5.5-10.47-.27-.5-.63-1-.89-1.45-.1-.2,0-.52-.06-.73-.29-.71-.64-1.4-1-2.09-.06-.12-.21-.23-.2-.33.08-.58-.25-.72-.72-.75a1.86,1.86,0,0,1-.44-.16l.87-.43-1.42-.59.83-.25.09-.2-1.13-.63.56-.25c.15-.31-.73-1.66-1.35-2l.34-.81-.46-.19c0-.09,0-.15,0-.17.45-.43.4-.74-.13-1a.6.6,0,0,1-.25-.39.73.73,0,0,0-.83-.78c-.32,0-.64-.07-1-.11V91.2l1.09-.11c.7-1.5-.43-2.52-.89-3.88-.12.21-.17.27-.2.34s0,.12-.22.22l-.41-1.35c.57,0,.47-.33.31-.7-.47-1.08-.95-2.17-1.37-3.27a.94.94,0,0,1,.2-.74,1.44,1.44,0,0,0,.2-1.55l.14-.13a2.89,2.89,0,0,1,.6.67c.67,1.43,1.29,2.88,1.93,4.31a7.53,7.53,0,0,0,.41.73l.18,0,.18-.6,1.4,2.83-.83-.09-.07.23,1.15.32-.82.19c.25.59.34,1.19,1.19,1.22.25,0,.48.5.77.82l-.58.27c0,.07.06.14.09.14,1,0,1,1,1.32,1.52a17,17,0,0,1,1.06,2.14c.06.12,0,.28,0,.42s0,.49.07.51c.83.25.91,1.09,1.22,1.67a138.16,138.16,0,0,0,10.67,16.49,98.92,98.92,0,0,0,10.26,12.11,7.47,7.47,0,0,0,1.24.79c.86.56,1.72,1.12,2.57,1.69.51.35,1,.7,1.5,1.08a1,1,0,0,0,1.25,0c.37-.27.75-.52,1.09-.82,1.42-1.26,2.86-2.48,4.2-3.82a23,23,0,0,0,2.28-2.82c.65-.9,1.19-1.88,1.83-2.78a5.84,5.84,0,0,1,1-.88l.13.15s.06-.08.05-.12c-.26-1.66,1.13-2.51,1.83-3.69.22-.37.46-.72.68-1.08.06-.1.09-.24.18-.28.44-.22.82-.42.1-.79,0,0,0-.21,0-.32.08-1.32.13-2.64.27-4a8.57,8.57,0,0,1,.47-1.6,2.16,2.16,0,0,0,.17-.71c0-.14-.29-.24-.43-.38s-.19-.24-.17-.35c.07-.53-.34-1.19.38-1.56.05,0,.1-.15.08-.18-.39-.58,0-1,.33-1.36-.51-.39.26-1.25-.59-1.54-.13,0-.19-.45-.19-.68,0-.78-.27-1.56.25-2.33.21-.3.05-.85.06-1.28v-.38l.57-.19c-.13-.13-.24-.32-.4-.38-.39-.16-.48-.42-.54-.82-.11-.75-.38-1.49-.48-2.24-.07-.52.05-1.06,0-1.59a5,5,0,0,0-.16-.93c.6-.29.57-.26.08-.75a2,2,0,0,1-.39-.88c-.16-.7-.26-1.42-.39-2.13-.1-.54-.24-1.1.59-1.37l-.57-.3c.21-.38.34-.73-.23-1-.13-.06-.23-.33-.26-.52-.2-.94-.3-1.9-.56-2.81a3.49,3.49,0,0,1,.48-2.9l-.86,0a3.36,3.36,0,0,1-.27-1.15c0-.3.35-.57.57-.89l-.87-.12c-.24-1.2-.49-2.42-.72-3.65,0-.08.1-.22.18-.3a.67.67,0,0,0,0-1A1.82,1.82,0,0,1,197.1,68l.41.26.06-.06L196.66,67c.26-.22.57-.39.55-.49a1,1,0,0,0-.39-.63,1.43,1.43,0,0,1-.42-2.15c-.5-.38-.76-.77-.3-1.43.16-.22-.08-.75-.18-1.12-.19-.69-.41-1.36-.58-1.91-.29-.28-.65-.46-.71-.72a12.79,12.79,0,0,1-.13-1.76,1.47,1.47,0,0,0-.14-.45,9.42,9.42,0,0,1-.61-1.18c-.22-.67-.36-1.37-.57-2.23-.24.38-.41.6-.55.84a2.14,2.14,0,0,1-2,1.12h-9.12a3.87,3.87,0,0,1-2.92-1.29,11.29,11.29,0,0,1-2.42-4c-.08-.22.26-.57.29-.87a1.72,1.72,0,0,0-.16-1c-.12-.17-.57-.12-1-.2-.17-.53-.45-1.23-.61-2-.06-.31.19-.68.17-1s-.15-.75-.36-.85c-.56-.25-.61-.68-.62-1.17s-.51-.72.12-1.16c.24-.17,0-1,0-1.55l-.69.14a7.8,7.8,0,0,1-.3-1.2,1,1,0,0,1,.25-.65c.5-.53.52-.87,0-1.33-.07-.07-.16-.2-.14-.26.16-.42,0-.59-.41-.62-.09,0-.22-.28-.24-.44q-.8-7.09-1.55-14.2a2.38,2.38,0,0,1,.09-.88,1,1,0,0,1,1.14-.84c1.21.05,2.42,0,3.63,0A2.85,2.85,0,0,1,178.36,22a3,3,0,0,0,.25.8c.28.67.91,1.27.35,2.1-.08.11.08.54.17.55.63.11.61.64.71,1.05a13.81,13.81,0,0,1,.75,3.73c-.05.88.54,1.43.51,2.17-.07,1.31.57,2.46.75,3.7a4.79,4.79,0,0,1,0,.9c.7.7,1.28,4.25.67,5,.69-.13.86.29,1,.79.13.71.24,1.43.41,2.13a7.57,7.57,0,0,0,.41.8c.48,1.17.94,2.35,1.41,3.53h.2c.24-.86.51-1.71.71-2.58a56.07,56.07,0,0,0,1.34-13.6,29.94,29.94,0,0,0-.85-4.42c-.1-.59-.47-1.19,0-1.8.1-.15.22-.29.39-.51-.24-.58-.11-1.55-1.14-1.85,0-1.64,0-3.29,0-4.95,0-.25.28-.49.51-.88h7.92c.55,0,.46.38.5.7.27,2.26.5,4.53.83,6.78.15,1,.61,2,.71,3.06.15,1.43.85,2.68,1.1,4.06a8.39,8.39,0,0,1,.06,1,.55.55,0,0,0,.06.28,3.75,3.75,0,0,1,.71,2.67.43.43,0,0,0,.08.32c.9.92.7,2.21,1.15,3.29a8.69,8.69,0,0,1,.44,1.63,1.9,1.9,0,0,1-.13.68l-.74-.21c.08.92,1,1.17,1.37,1.81l-.47.61.18-.05c.25.5.52,1,.76,1.48a3.3,3.3,0,0,1,.42,1c.14,1.45.9,2.71,1.14,4.13a5.94,5.94,0,0,1,.29,2.38c-.07.33.23.74.36,1.12a2.07,2.07,0,0,1,.08.42c0,.12,0,.3,0,.37.93,1,.83,2.38,1.18,3.59,0,.19-.27.49-.41.74l-.25.43.15.11.67-.71c.38,1.6.75,3.05,1,4.51a9.2,9.2,0,0,1,.13,2.1c0,.25-.31.5-.49.77.14,0,.2.08.23.07.21-.08.41-.18.62-.27a2.93,2.93,0,0,1,.29.81,4.27,4.27,0,0,1-.14,1l-1.24.43a.88.88,0,0,0,1.31,0l.48.45-.49.37c.84.62,1.81,4.64,1.27,5.43l-.45-.52.1,1.08.51-.2.82,2.23a.5.5,0,0,1,.06.26c-.3,1.44.65,2.63.77,4s.45,2.74.61,4.11a9.75,9.75,0,0,1-.14,1.81l-.79-.31.15.91c.24,0,.42-.06.6-.07.35,0,.53.08.54.5,0,.58.17,1.09-.55,1.47-.36.18-.2.72.17,1.1l.18-.42a3.77,3.77,0,0,1,.58,1.1,4.12,4.12,0,0,1-.07,1.63,5.52,5.52,0,0,0,.24,2.43c.13.5.19.79-.18,1.21l-.5,0c0,.19,0,.5,0,.55,1.1.64.86,1.69.86,2.66s0,2.14,0,3.21,0,2.23,0,3.35c0,.76,0,1.53-.07,2.29,0,.16-.29.36-.49.44a6.45,6.45,0,0,0-1,.33l.37.09c.23.46.44.82.59,1.2a1.55,1.55,0,0,1,.14.81c-.2.88-.47,1.76-.71,2.63a35.93,35.93,0,0,1-1.05,3.58,38.71,38.71,0,0,1-2.43,5.37,18.07,18.07,0,0,1-4.62,5.74,16.25,16.25,0,0,1-2.41,1.56,6,6,0,0,1-2,.48c-.9.08-1.82,0-2.74,0a6.42,6.42,0,0,0-.86.14Z"/>
        <path class="c9d24625-3577-4ca8-bbb6-ebaa7a914a8a" d="M265.71,47.93c.32,1.47.65,2.83.91,4.21.1.57.48,1.14.09,1.78-.06.11.26.43.36.67.16.43.56.88-.13,1.3.81.25.68,1,.8,1.52.31,1.4.52,2.82.84,4.22s.78,2.89,1.16,4.34q1.5,5.59,3,11.19c.19.72.15.79-.6.79-2.51,0-5,0-7.54,0a1,1,0,0,1-1.16-.82c-.88-3.18-1.8-6.35-2.65-9.55-.65-2.46-1.24-5-1.81-7.44-.24-1.07-.35-2.17-.57-3.24-.28-1.3-.64-2.58-.91-3.88-.09-.43-.41-.9.15-1.35.15-.12.06-.75-.12-1a3.09,3.09,0,0,1-.74-1.68,19.49,19.49,0,0,0-.75-3.48c-.08-.36-.14-.72-.22-1.12l-1.67-.17v-.08l1.64-.08c-.15-.89-.31-1.72-.44-2.57-.35-2.13-.65-4.27-1.05-6.39-.35-1.83-.81-3.64-1.23-5.46-.52-2.23-1.06-4.46-1.58-6.69-.15-.61-.29-1.21-1.19-1.05l.87-.48a3.05,3.05,0,0,0-.78-.42c-.54-.06-1.1,0-1.65-.05-.13,0-.33.05-.4,0-.58-.64-1.15-.17-1.63.08a53.18,53.18,0,0,0-5,2.79c-2.74,1.85-5.38,3.85-8,5.92h3A11,11,0,0,1,244,32.54,21.64,21.64,0,0,1,248.73,39a17.8,17.8,0,0,1,1.85,9,1.6,1.6,0,0,1-.56,1.25.77.77,0,0,0,.14,1.27.77.77,0,0,1,.31.57,13.28,13.28,0,0,1-2.53,7.47A3.43,3.43,0,0,1,245.19,60c-2.69,0-5.39,0-8.08,0-2.36,0-4-1.34-5.16-3.24l-.53-.82c0,1.18,0,2.18,0,3.17,0,1.35,0,2.69.06,4,0,1,0,2,0,3a42,42,0,0,1-1.68,10,6.22,6.22,0,0,1-.84,1.85,1.82,1.82,0,0,1-1.25.64c-2.9,0-5.8,0-8.7,0A3.08,3.08,0,0,1,216.38,77a1.8,1.8,0,0,1-.12-.59c-.14-.14-.45-.32-.54-.57-.59-1.69-1.14-3.4-1.69-5.1-.11-.32-.19-.65-.29-1l1-.78-.12-.13-.87.32c-.3-1-.62-2-.82-2.91-.16-.77-.57-1.56,0-2.36.06-.09-.06-.44-.12-.44-.64,0-.6-.59-.62-1,0-1,0-2,0-3.09l-.36.1c-.56-1.36-.55-2.91.07-3.11-.27-.53-.19-1.12-.78-1.63-.37-.31-.2-1.26-.22-1.93,0-.18.18-.36.19-.38a4.21,4.21,0,0,1-.5-1c-.15-1.22-.26-2.45-.33-3.68,0-.26.24-.53.27-.81a1.81,1.81,0,0,0-.13-.82c-.17-.45-.4-.88-.63-1.38l.43-.1a5.34,5.34,0,0,1-.38-1.1c-.27-2.24-.51-4.48-.75-6.72-.16-1.61-.32-3.22-.44-4.83a2.31,2.31,0,0,1,.12-.72c-.15-.82-.33-1.53-.41-2.24-.24-2-.42-3.94-.67-5.91-.34-2.65-.74-5.29-1.09-7.94-.2-1.49-.37-3-.52-4.48a22.51,22.51,0,0,1,.92-8.32c.3-1.12.75-1.39,2-1.38s1.58.24,1.86,1.38c.47,1.86.82,3.75,1.3,5.61.55,2.14,1.21,4.25,1.78,6.38.64,2.38,1.28,4.76,1.79,7.16.15.71-.17,1.51.49,2.12q.79,5,1.61,10c0,.13.08.32,0,.4-.51.68-.05,1.41-.13,2.11a8.78,8.78,0,0,0,0,1,2.07,2.07,0,0,1,.67,1.59,2,2,0,0,0,0,.72c.09.46.24.92.31,1.38.16,1.11.3,2.21.46,3.45l-.62-.36-.17,1,.64.22-.09,1.46.15-.05a2,2,0,0,1,.42.61c.14.65.22,1.31.3,2s.2,1.05-.43,1.37c-.08,0-.1.47,0,.5,1.23.63.94,1.85,1.11,2.85.28,1.68.35,3.39.66,5.06.58,3.14,1.31,6.25,1.87,9.4.16.92.63,1.71.72,2.63h.18l.87-2.84a108.22,108.22,0,0,0,3-16.27c.26-1.83.56-3.66.64-5.5a38,38,0,0,0-.29-4.64c-.31-3.78-.64-7.55-1-11.46h-2.07c2.36-.84,4.08-2.55,6-3.93a53.69,53.69,0,0,1,7.54-4.84,14.62,14.62,0,0,1,6.5-1.7l5.68,0h.74c0-1,.15-1.22,1.14-1.22a3.85,3.85,0,0,0,.48,0,3.42,3.42,0,0,1,3.08,1.12,2.61,2.61,0,0,0,2.13.83c3.7-.07,7.4-.06,11.1,0a10.25,10.25,0,0,1,7.26,2.71c.15.14.27.32.51.6h-.63a.9.9,0,0,0-.44.06l1.55.75c-.58.64-.58.64-.16,1.14l.28-.34.38-.5a9.17,9.17,0,0,1,.46,1.89,14.93,14.93,0,0,1-.23,5,6.36,6.36,0,0,1-.31.76c-.22.44-.47.42-.75,0-.05.18-.15.36-.1.42.55.6.17,1.12-.13,1.64a21.86,21.86,0,0,1-6.22,7.2,14.49,14.49,0,0,1-4.51,2.09,1.66,1.66,0,0,0-.61.27c.63,0,1.27,0,1.9.1a16.05,16.05,0,0,1,6.59,2.71A71.74,71.74,0,0,1,288,58.29c3.09,3.15,6.15,6.32,9.23,9.47,1,1,2,2,3.06,3.08a14.94,14.94,0,0,1-1.53.21c-2.26,0-4.53,0-6.79,0a3.41,3.41,0,0,1-2.63-1c-3.71-3.82-7.47-7.59-11.18-11.41a86.55,86.55,0,0,0-12-10.44A5.2,5.2,0,0,0,265.71,47.93Zm-30.23-6.78.22-.09c.13.76.25,1.53.39,2.29A56.14,56.14,0,0,0,238.69,54a11.66,11.66,0,0,0,2.49,4.17l1.95-3.49c.35.51.76.62,1.24.26l-1-1.15s0-.09,0-.2A29.48,29.48,0,0,0,244,43.9a7.63,7.63,0,0,0-.39-1.8,23.33,23.33,0,0,0-3.51-6.86,12.77,12.77,0,0,0-5.15-4.4c-.44-.2-.91-.35-1.5-.58l.17.52a48.79,48.79,0,0,1,1.79,8.71,2.79,2.79,0,0,1-.24.92l-.3.07Zm23-19.64c2.8,6,4.08,12.39,5.69,18.77a41.28,41.28,0,0,0,3-3.64,26.88,26.88,0,0,0,2.08-3.36,10.85,10.85,0,0,0,1-5.31,6.45,6.45,0,0,0-2.27-5.17C265.12,20.31,261.88,20.47,258.5,21.51Zm-6.66-1.78,1.76-.12.05-.15c-.4-.08,0-1-.79-.62A6.25,6.25,0,0,0,251.84,19.73Zm7.29,17.6.33.13.37-.8.67.31.23-.81a5.92,5.92,0,0,0-1.22.44C259.31,36.73,259.25,37.08,259.13,37.33ZM214.79,47l-.41.07c.11.45.19.91.34,1.34,0,.07.32,0,.49.07v-.06l-.45-.34.19-.06Zm-4.2-39.36c-.7-.44-1.09-.24-1.39.33Z"/>
        <path class="c9d24625-3577-4ca8-bbb6-ebaa7a914a8a" d="M158.78,1.91l-.58.2.49.78.57-.15a7.15,7.15,0,0,1,0,3.35,15.63,15.63,0,0,1-3.51,6.36,29.38,29.38,0,0,1-12.58,9,1.06,1.06,0,0,0-.81,1.06c-.21,3-.53,6-.66,9-.2,4.63-.27,9.27-.39,13.76-.35.15-.84.2-1,.45-.27.51-.28,1.15.41,1.4s.67.66.67,1.22c0,2.67,0,5.35,0,8a4,4,0,0,1-.19.88,2.49,2.49,0,0,1,.19.77q-.09,6.54-.23,13.08c0,1.73-.12,3.46-.2,5.19,0,.36-.16.71-.17,1.07s.08.72.06,1.07c-.2,3-.42,6.09-.63,9.13,0,.43,0,.87-.11,1.3s-.13.81-.71.42c-.14-.1-.39,0-.66-.08l.31.57-.18,0-.73,1.54c.54.11,1.16.31,1.72-.31-.15,1.14-.21,2.29-.47,3.4-.47,2.07-1,4.13-1.63,6.14a4.7,4.7,0,0,1-5,3.55c-.74,0-1.5,0-2.36,0,1-8.14,2.22-16.18,2.55-24.32.5,0,.88.18.66-.63-.14-.54-.75-.87-.58-1.56a10,10,0,0,0,.1-2c0-.64.13-1.27.15-1.91.05-2.07.07-4.15.14-6.22a8.76,8.76,0,0,1,.25-1.32,1.08,1.08,0,0,0,0-.4,59.39,59.39,0,0,1-.08-10c.09-3.18,0-6.36.15-9.54.24-5.54.58-11.08.94-16.61.1-1.63.41-3.25.62-4.91l-2.35.32a6,6,0,0,1-.74.08H118.48a7,7,0,0,1-5.81-3,2,2,0,0,0-.35-.41,3.93,3.93,0,0,1-1.68-4,22.39,22.39,0,0,1,1.43-6.33,1.1,1.1,0,0,1,.76-.5,63.45,63.45,0,0,1,9.55-.34,1.32,1.32,0,0,1,1.14,1.27c0,1.29.13,2.59.17,3.88,0,.48.39,1.11-.44,1.34-.06,0-.07.25-.09.38a4.33,4.33,0,0,0,1.27,3.84,2.82,2.82,0,0,0,1.75,1A23.36,23.36,0,0,0,135,22a1,1,0,0,0,.92-1,43.47,43.47,0,0,1,5-14.42,15.54,15.54,0,0,1,4.92-5.52,3.2,3.2,0,0,1,1.58-.55c2.9,0,5.8,0,8.7.07A4.65,4.65,0,0,1,158.78,1.91ZM143,18.32c.31-.2.5-.31.67-.44,1.1-.86,2.18-1.73,3.28-2.58.24-.18.58-.25.77-.47a12.44,12.44,0,0,0,.78-1.12c1.1-1.45,2.3-2.84,3.31-4.35a9.23,9.23,0,0,0,1.64-5.76,2.45,2.45,0,0,0-1.2-2.09c-.4-.26-.72-.33-1.08,0-.65.64-1.35,1.23-1.95,1.92C145.51,7.67,144.08,12.83,143,18.32ZM126,22.8l-.09.19c.36.17.73.5,1.07.46.88-.09,1.74-.34,2.62-.52l0-.13Zm12.28,7.51.2-.25a3,3,0,0,0-.76-.61c-.17-.06-.44.16-.73.28Z"/>
        <path class="c9d24625-3577-4ca8-bbb6-ebaa7a914a8a" d="M146.38,49.32l-1-.07c1.22.16,1.25-.75,1.44-1.54,1-4.12,2-8.24,3.07-12.35a11.79,11.79,0,0,1,.75-1.8c0-.14-.2-.37-.15-.53,1-3.33,2-6.65,3-10,.27-.85.73-1.65,1-2.5a4.76,4.76,0,0,0,.1-1.25H161c.75,0,1.5,0,2.25,0a1.11,1.11,0,0,1,1.22.77,14.72,14.72,0,0,1,1,2.52,21.94,21.94,0,0,0,1,2.57,6.39,6.39,0,0,1,.16,1c0,.09,0,.19,0,.25,1.2,1.86,1.52,4.06,2.25,6.1a4.3,4.3,0,0,1,.08,1c-.32.21-.75.49-.36,1l.76.14c0,.35-.08.71,0,.76.73.42.71,1.18.89,1.84.6,2.19,1.15,4.39,1.73,6.58.28,1.09.6,2.17.89,3.26a11.43,11.43,0,0,1,.42,1.6,11.94,11.94,0,0,1,0,1.64c1,.77,1,2.1,1.15,3.45a7.32,7.32,0,0,0,.55,1.47,9.06,9.06,0,0,1,.78,2.86c0,.74.38,1.13.53,1.69a12,12,0,0,1,.19,1.2,1.22,1.22,0,0,0,0,.27c.24.75.55,1.49.74,2.26.25,1,1.07,1.91.82,3.07,0,.09.17.2.21.32a4.79,4.79,0,0,1,.24.73c.07.29.1.59.16,1l-.48,0c-.05.23,0,.76-.64.33.16.43.16.43,1.67.05.56,1.91,1.13,3.82,1.69,5.74l-.08.09-.65-1.05-.64.9.68,0c-.05.09-.07.18-.1.19a14.89,14.89,0,0,1-1.63.12q-3.36,0-6.71-.07a.9.9,0,0,1-.7-.37c-.56-1.46-1.06-2.93-1.6-4.45l.57-.18c-.45-.83-.88-1.64-1.33-2.5.26-.4.1-.64-.31-1.09a3.7,3.7,0,0,1-.81-2.1c-.05-.43.45-.92.74-1.46a2,2,0,0,0-.67-.28c-.71,0-.81-.48-.95-1-.22-.81-.47-1.61-.71-2.41.3-.24.58-.29.14-.82a5.4,5.4,0,0,1-.57-2.14c0-.07,0-.18,0-.2-1-.64-.77-1.85-1.18-2.76a7.61,7.61,0,0,1-.47-1.85,3,3,0,0,1,.16-.94l-.25-.42.17.07c.2-.39.41-.77.6-1.16.31-.63-.16-.83-.59-.8-.6,0-.8-.07-.47-.79-.63.22-1.14.39-1.63.58a19.55,19.55,0,0,1-7,1.45.7.7,0,0,0-.53.35c-.88,2.71-1.69,5.44-2.59,8.14a14.34,14.34,0,0,1-2.4,4.74,1.81,1.81,0,0,1-1.07.6c-1.18.09-2.36.07-3.55.06-.2,0-.4-.2-.71-.36l-.23.21a13.59,13.59,0,0,1,0-2.31c.28-1.6.66-3.18,1-4.75.05-.23.28-.41.4-.56a4.09,4.09,0,0,1,0-1c.29-1.43.62-2.85.94-4.28C146.29,49.86,146.33,49.62,146.38,49.32ZM159,33.25c-1.17,4.3-2.34,8.56-3.53,12.92.22-.05.31-.05.38-.08,2.12-1.09,4.26-2.15,6.35-3.29.23-.13.92-.27.67-.87l-1.34-.22c.24-.41.63-.76-.08-.87-.08,0-.14-.22-.17-.35a8.15,8.15,0,0,0-.16-.86c-.4-1.3-.84-2.6-1.22-3.91,0-.16.12-.38.15-.48Zm-5.11-6.65,1.21.06a1.15,1.15,0,0,0-1.41-.24,1.23,1.23,0,0,0-.78,1l.2.14Z"/>
        <path class="c9d24625-3577-4ca8-bbb6-ebaa7a914a8a" d="M150.47,81.66a9.9,9.9,0,0,1-.42-1.07,1.36,1.36,0,0,1,0-.49,2.93,2.93,0,0,1,.53.12,1.89,1.89,0,0,1,.39.35c-.58.09-.78.3-.29.72.05,0,0,.26-.05.4Z"/>
        <path class="c9d24625-3577-4ca8-bbb6-ebaa7a914a8a" d="M153,90.09H152v-.16H153Z"/>
      </g>
    </g>
  </g>
</svg>
