<svg id="0f56dc09-446f-4bcd-a5f3-f6cb3051060f" data-name="Layer 1" xmlns="http://www.w3.org/2000/svg" viewBox="0 0 43.52 43.52">
  <defs>
    <style>
      .\39 d6258a4-7e0a-4f5d-963b-f5d2c6f0b61c {
        fill: #df7a3f;
      }
    </style>
  </defs>
  <title>ktm-</title>
  <g>
    <path class="9d6258a4-7e0a-4f5d-963b-f5d2c6f0b61c" d="M41.22,27.35h0a8,8,0,0,0,0-11.18h0a9.06,9.06,0,0,0-12.85-.05l-4.76,4.76a1.26,1.26,0,0,0,0,1.76l4.76,4.75A9,9,0,0,0,41.22,27.35Z"/>
    <path class="9d6258a4-7e0a-4f5d-963b-f5d2c6f0b61c" d="M2.29,16.17h0a8,8,0,0,0,0,11.18h0a9.06,9.06,0,0,0,12.86,0l4.76-4.75a1.26,1.26,0,0,0,0-1.76l-4.76-4.76A9.07,9.07,0,0,0,2.29,16.17Z"/>
    <path class="9d6258a4-7e0a-4f5d-963b-f5d2c6f0b61c" d="M27.35,2.29h0a8,8,0,0,0-11.18,0h0a9.07,9.07,0,0,0-.05,12.86l4.76,4.76a1.26,1.26,0,0,0,1.76,0l4.75-4.76A9.06,9.06,0,0,0,27.35,2.29Z"/>
    <path class="9d6258a4-7e0a-4f5d-963b-f5d2c6f0b61c" d="M16.17,41.22h0a8,8,0,0,0,11.18,0h0a9,9,0,0,0,0-12.85l-4.75-4.76a1.26,1.26,0,0,0-1.76,0l-4.76,4.76A9.06,9.06,0,0,0,16.17,41.22Z"/>
  </g>
</svg>
