<svg id="72e61b0b-4067-4ee0-aa7e-cc39ec708f1f" data-name="Layer 1" xmlns="http://www.w3.org/2000/svg" viewBox="0 0 43.52 43.52">
  <defs>
    <style>
      .cdc0b728-480b-42b1-93b1-b6d85863255f {
        fill: #a2a537;
      }
    </style>
  </defs>
  <title>ktm-</title>
  <g>
    <path class="cdc0b728-480b-42b1-93b1-b6d85863255f" d="M41.29,27.35h0a8,8,0,0,0,0-11.18h0a9.07,9.07,0,0,0-12.86-.05l-4.75,4.76a1.24,1.24,0,0,0,0,1.76l4.75,4.75A9.06,9.06,0,0,0,41.29,27.35Z"/>
    <path class="cdc0b728-480b-42b1-93b1-b6d85863255f" d="M2.36,16.17h0a8,8,0,0,0,0,11.18h0a9,9,0,0,0,12.85,0L20,22.64a1.24,1.24,0,0,0,0-1.76l-4.76-4.76A9.06,9.06,0,0,0,2.36,16.17Z"/>
    <path class="cdc0b728-480b-42b1-93b1-b6d85863255f" d="M27.41,2.29h0a8,8,0,0,0-11.17,0h0a9.05,9.05,0,0,0,0,12.86L21,19.91a1.24,1.24,0,0,0,1.75,0l4.76-4.76A9.07,9.07,0,0,0,27.41,2.29Z"/>
    <path class="cdc0b728-480b-42b1-93b1-b6d85863255f" d="M16.24,41.22h0a7.94,7.94,0,0,0,11.17,0h0a9.06,9.06,0,0,0,.05-12.85L22.7,23.61a1.24,1.24,0,0,0-1.75,0l-4.76,4.76A9,9,0,0,0,16.24,41.22Z"/>
  </g>
</svg>
