<svg id="c010733e-cdc6-47e9-9fcb-a20adde1b281" data-name="Layer 1" xmlns="http://www.w3.org/2000/svg" viewBox="0 0 43.52 43.52">
  <defs>
    <style>
      .\33 5bc00d6-faed-4f8c-8e80-91d771f1092a {
        fill: #d9cfc4;
      }
    </style>
  </defs>
  <title>ktm-</title>
  <g>
    <path class="35bc00d6-faed-4f8c-8e80-91d771f1092a" d="M41.22,27.35h0a8,8,0,0,0,0-11.18h0a9.06,9.06,0,0,0-12.85-.05l-4.76,4.76a1.26,1.26,0,0,0,0,1.76l4.76,4.75A9,9,0,0,0,41.22,27.35Z"/>
    <path class="35bc00d6-faed-4f8c-8e80-91d771f1092a" d="M2.29,16.17h0a8,8,0,0,0,0,11.18h0a9.06,9.06,0,0,0,12.86,0l4.76-4.75a1.26,1.26,0,0,0,0-1.76l-4.76-4.76A9.07,9.07,0,0,0,2.29,16.17Z"/>
    <path class="35bc00d6-faed-4f8c-8e80-91d771f1092a" d="M27.35,2.29h0a8,8,0,0,0-11.18,0h0a9.07,9.07,0,0,0-.05,12.86l4.76,4.76a1.26,1.26,0,0,0,1.76,0l4.75-4.76A9.06,9.06,0,0,0,27.35,2.29Z"/>
    <path class="35bc00d6-faed-4f8c-8e80-91d771f1092a" d="M16.17,41.22h0a8,8,0,0,0,11.18,0h0a9,9,0,0,0,0-12.85l-4.75-4.76a1.26,1.26,0,0,0-1.76,0l-4.76,4.76A9.06,9.06,0,0,0,16.17,41.22Z"/>
  </g>
</svg>
