<svg xmlns="http://www.w3.org/2000/svg" viewBox="0 0 300.4 132">
  <defs>
    <style>
      .\37 4b5476a-1e21-4433-8136-4f619766532f {
        fill: #e1693b;
      }
    </style>
  </defs>
  <title>Asset 1</title>
  <g id="6dc36243-84f6-4aa2-8ffc-835397aabd78" data-name="Layer 2">
    <g id="e950bd09-e3c9-4c60-8bbf-f278cc48280f" data-name="7f274d00-f2fb-49ad-b281-abe72ee83913">
      <g>
        <g>
          <path class="74b5476a-1e21-4433-8136-4f619766532f" d="M15.8,54.4v2.7c.1,1,.2,2.1.2,3.1,0,.5.2,1-.3,1.5a.6.6,0,0,0-.1.4,3,3,0,0,0,.6,2.4,1.27,1.27,0,0,1,.1.6L16,66a2.46,2.46,0,0,0-.1,1.2,2.35,2.35,0,0,1-.5,1l.5.4a6.72,6.72,0,0,1-1.2.6h-.4c0,.2.1.4.1.6s.3.6.4.9a1.2,1.2,0,0,0,1.4,0c.3-.2.7-.2.6.4,0,.2.1.4.1.6a5.7,5.7,0,0,1-.1,1.3.75.75,0,0,0,.1.8,5.85,5.85,0,0,1,.4,1.9c.2.9-.3,1.8.1,2.8a.74.74,0,0,1-.4.9h-.2a3.55,3.55,0,0,1-1,.2c-3,0-6,.1-9,0-1.8-.1-2-.1-2.7-2.1-.1-.8-.2-1.6-.3-2.3s-.3-1.2-.4-1.9a14.7,14.7,0,0,1,0-2.1l1.2-.8v-.2l-1.4-.3a1.24,1.24,0,0,1,.3-1.4.66.66,0,0,0,.1-.6L3,66.4a12.1,12.1,0,0,1-.1-1.9c0-.2.1-.3.1-.5a1.64,1.64,0,0,1,1-1.5,2.18,2.18,0,0,0-.4-.5c-.1-.1-.5-.4-.3-.8v-.3c-.2-.5-.4-.9-.6-1.4s-.2-.8.6-.7c-.6-1.2.7-.9,1-1.4a.78.78,0,0,0-1-.2c-.7.3-.9-.1-.9-.6V54h.2l.1.7h.2c0-.4.1-.9-.1-1.2A5.31,5.31,0,0,1,2.1,50c0-.4-.1-1,.1-1.3a3.29,3.29,0,0,0,.5-2.2c0-.3.3-.6.3-.9V44.5l-1.3.1a13.55,13.55,0,0,1,.2-2c0-.2.3-.2.5-.4,0-.1-.1-.1-.2-.2s-.6-.4-.6-.6a2.77,2.77,0,0,1,.3-1.3,4.05,4.05,0,0,1,.5-.9c.3-.3.4-.8,1.1-.8a1.34,1.34,0,0,0,.8-.7c.1-.3-.2-.6-.3-1L2.5,38.3l-.2-.1-.1-.8c-.7-.2-.8-.5-.6-1.2a1.7,1.7,0,0,0-.1-.7,10.6,10.6,0,0,1-.4-2.9c0-.7-.1-1.4-.1-2.1l.3-1.2h.2c-.3-.2-.4-.6-.6-.9V27.2L.6,24.5c-.1-.9.6-.6,1-.8l.3-.3-.2-.1c-.3-.4-.4-.7-.7-.8a1,1,0,0,1-.6-1.1c0-.5-.1-.9-.1-1.4a1.88,1.88,0,0,1,.2-.8.78.78,0,0,0,0-1.1c-.5-.6-.4-.9.2-1.4a2.73,2.73,0,0,0,.6-1.2A1.32,1.32,0,0,1,0,14.2V14A48.86,48.86,0,0,1,.3,8.6,2.61,2.61,0,0,1,3.4,6.9a3.59,3.59,0,0,1,.7,1,4.23,4.23,0,0,0,.5.7l.2-.1-.2-.6.9-.6A2.49,2.49,0,0,1,8,7.5a5.43,5.43,0,0,1,1.9,2.8c.2.8.7,1.6.9,2.5.5,1.9,1,3.7,1.4,5.6a3.75,3.75,0,0,1-.1,1.1v.4a4.93,4.93,0,0,1,.6,4.1v1.3l-.4-1.6-1.6,1.2,1.6.9c.9-.2,1.1-.1,1.2.8l.3,2.7a1.49,1.49,0,0,1-.2.9c-.5.8-.6.8.3,1.4.1-.1.2-.3.4-.5,1.1-1.7,2.2-3.4,3.3-5,2.4-3.5,4.8-7.1,7.2-10.6a6.42,6.42,0,0,1,1.3-1,1.44,1.44,0,0,0,.2-.3c-.3-.6.1-.9.4-1.1C27.8,12,29,11,30.2,10a.84.84,0,0,1,.7-.2c1.3,0,2.6.1,3.9.1.7,0,1,.5,1.2,1a4.93,4.93,0,0,1-.1,2.7c-.6,1.6-1.2,3.2-1.9,4.8s-1.5,3.1-2.3,4.6l-2.1,3.6-1.2,2.1c-1.5,2.6-2.9,5.2-4.4,7.8-1,1.7-2.1,3.2-3.2,4.8-.7,1-1.5,1.8-2.3,2.8l.6.6c5.3,4.8,10.5,9.6,15.8,14.4,2.4,2.2,4.9,4.5,7.2,6.8,3.7,3.9,7.3,7.9,10.9,11.9a57.18,57.18,0,0,1,3.7,4.6L59,85.3a7.68,7.68,0,0,1,1.8,3.6C61.1,91,59.9,92,58,92a13.25,13.25,0,0,1-7-2,19.1,19.1,0,0,1-5.5-4.7c-1.9-2.5-4-5-5.9-7.5-1-1.3-2.2-2.3-3.2-3.5s-2.1-2.4-3.2-3.6c-4.1-4.5-8.6-8.6-13.1-12.7l-3.6-3.3A.91.91,0,0,1,15.8,54.4ZM31,22.2a4.23,4.23,0,0,1-.7.5c-.4.2-.7.8-1.3.6a.9.9,0,0,0-.5.1c.8.5,1.3,1.2,2.2.7ZM14.7,61.9l.5,1.1C15.6,62.1,15.4,61.8,14.7,61.9Z"/>
          <path class="74b5476a-1e21-4433-8136-4f619766532f" d="M61.4,48.3c1,3.1,2,6.1,2.9,9.1a30.09,30.09,0,0,1,1.1,4.3,17.09,17.09,0,0,1,0,3.2c-.5-.1-.9-.2-1.3-.3a1.7,1.7,0,0,0-.7.1,3.18,3.18,0,0,1-.9.3c-1.3,0-2.5-.1-3.8-.1a2.56,2.56,0,0,1-2.3-1.7,13.36,13.36,0,0,1-.7-1.8,4.13,4.13,0,0,1-.7-1.1l-3-8.7c-.1-.2-.1-.3-.2-.5l-5.2,1.6a6.37,6.37,0,0,1-.7.2c-1.5.2-2.5.8-2.7,2.5a1.53,1.53,0,0,1-1.6,1.3,28.1,28.1,0,0,1-2.9-.1,1.4,1.4,0,0,1-1.4-1.2c-.4-1.4-.4-1.4-1.8-1.4a2.77,2.77,0,0,1-.9-.1,13,13,0,0,1,1.7-.8.75.75,0,0,0,.5-.7h0a70.71,70.71,0,0,1-.1-13.8,29.88,29.88,0,0,1,1.7-8.4,5.67,5.67,0,0,1,.8-1.3c.2-.2.5-.2.7-.4a1.49,1.49,0,0,1,.9-.4h8.4a3.26,3.26,0,0,1,2.3,1,17.65,17.65,0,0,1,4.4,6.1c1.4,3,2.7,6,4,9,.2.4.4.5.8.4,1.7-.1,3.5-.2,5.2-.2a.82.82,0,0,1,.6.4,1.17,1.17,0,0,1-.3,1.7c-.1.1-.2.1-.3.2ZM51,47.9a141.89,141.89,0,0,0-5.5-14.1c-1.1,5.4-1.2,10.8-1.4,16.4Z"/>
          <path class="74b5476a-1e21-4433-8136-4f619766532f" d="M68.2,22.6c-1.3.2-2.6.3-3.8.5-2.7.5-5.4,1.1-8.1,1.5a27.85,27.85,0,0,1-5-.1,30.59,30.59,0,0,1,4.1-1c3.3-.6,6.6-1.1,9.9-1.7.9-.2,1.8-.5,2.8-.7a.85.85,0,0,0,.7-.7,32,32,0,0,1,1.7-4.3A11,11,0,0,1,71.9,14a5.46,5.46,0,0,1,4.6-2.1c1.8.1,3.6,0,5.4,0a4.53,4.53,0,0,1,1.6.3c.7.2.7.6.3,1.2-.1.2-.2.6-.1.7.4.3.1.6,0,.8a10.34,10.34,0,0,1-3.4,3.5q-2.4,1.35-4.8,2.4a.76.76,0,0,0-.6.8,61.44,61.44,0,0,0-.3,10.5v4.6l-.7.2.7,1,.1-.1,1.8,17.7c.4,4.4.9,8.9,1.2,13.3a8.75,8.75,0,0,1-.2,1.6c0,.1-.1.2,0,.2.7,1.2.2,2.4.1,3.5a2.55,2.55,0,0,1-2,2.3,15.07,15.07,0,0,1-5.2.3c.1-.3.3-.6.2-.8a15.94,15.94,0,0,1-.7-4.8c-.1-1.5-.3-3-.5-4.4-.3-2.8-.6-5.5-.8-8.3l-.3-4.5c-.3-3.5-.7-6.9-.9-10.4A108.18,108.18,0,0,1,68,23.8,9.64,9.64,0,0,1,68.2,22.6Zm2.8,6,.1-.3a3,3,0,0,1-.8-.8c-.3-.6-.8-.1-1.1-.2V29Z"/>
          <path class="74b5476a-1e21-4433-8136-4f619766532f" d="M97.1,27.2c-.3.2-.7.4-1,.6a.86.86,0,0,0,.3.6c.1.1.3,0,.6,0l.4.5.5-.9a1.23,1.23,0,0,1-.4,1.6h-.1a2.66,2.66,0,0,1-.3,1.2,36.69,36.69,0,0,1-8.4,10,3.47,3.47,0,0,0-1.3,3.3,23.51,23.51,0,0,0,8.2,15.3c1,.9.8.9,1.8-.2a15.87,15.87,0,0,0,3.1-5.7c.2-.7.3-1.4.5-2s.7-1.2.7-1.7a3.79,3.79,0,0,1,0-1.5c.2-.5.4-.9.6-1.4s0-.8.1-1.2c.2-.6.4-1.3.6-1.9a6.48,6.48,0,0,0,.2-2c0-.3.1-.7.1-1a.63.63,0,0,1,.9-.5,11.51,11.51,0,0,1,1.4,1.7h-1v.2c.1,0,.2.1.3.1.9-.1,1.2.5,1.5,1.1s.6.7,1.4,0v1.7c0,.5.2.9.9.5-.1,1.2-.2,2.2-.3,3.2s-.3,2.2-.4,3.3,0,2.5-1.3,3.3l.3.2.4-.6h.1a8.65,8.65,0,0,1-.7,1.7c-.1.2-.1.5-.2.7-.5,1.8-3.1,4.2-5.5,4.1a69.39,69.39,0,0,0-7.9,0,10,10,0,0,1-7.8-3.4,21.55,21.55,0,0,1-4.5-7c-.1-.3,0-.7-.1-1s-.4-.6-.5-.9c-.3-1.3-.7-2.6-1-3.9,0-.1-.1-.2-.1-.4l-.9-.1v-.2c.9-.3.9-1,.9-1.8a22.29,22.29,0,0,1,2-9.1,12.68,12.68,0,0,1,6.5-6.4,5.93,5.93,0,0,1,2.3-.5h6.4C96.8,27.2,97,27.2,97.1,27.2Zm-5,1.8a11.06,11.06,0,0,0-4.3,7C89.5,33.9,91.4,31.8,92.1,29Z"/>
        </g>
        <g>
          <path class="74b5476a-1e21-4433-8136-4f619766532f" d="M185.6,132a2,2,0,0,0-.8-.1,24.32,24.32,0,0,0-2.7,0,5,5,0,0,1-2.4-.6,19.23,19.23,0,0,0-2.5-1.2,4.36,4.36,0,0,1-1.9-1.9,1.38,1.38,0,0,0-.3-.4,60.29,60.29,0,0,1-10.2-13.3c-2-3.4-3.7-7-5.5-10.5-.3-.5-.6-.9-.9-1.4-.1-.2,0-.5-.1-.7a20,20,0,0,0-1-2.1c-.1-.1-.2-.2-.2-.3.1-.6-.2-.7-.7-.7a.52.52,0,0,1-.4-.2l.9-.4-1.4-.6.8-.2.1-.2-1.1-.6.6-.2a3.1,3.1,0,0,0-1.4-2l.3-.8-.5-.2v-.2c.4-.4.4-.7-.1-1a.52.52,0,0,1-.2-.4.74.74,0,0,0-.8-.8,3.4,3.4,0,0,1-1-.1v-.2l1.1-.1c.7-1.5-.4-2.5-.9-3.9a1.24,1.24,0,0,1-.2.3s0,.1-.2.2l-.4-1.3c.6,0,.5-.3.3-.7-.5-1.1-1-2.2-1.4-3.3a.84.84,0,0,1,.2-.7,1.51,1.51,0,0,0,.2-1.6l.1-.1a4.35,4.35,0,0,1,.6.7c.7,1.4,1.3,2.9,1.9,4.3.1.2.3.5.4.7h.2l.2-.6,1.4,2.8-.8-.1-.1.2,1.1.3-.8.2c.2.6.3,1.2,1.2,1.2.2,0,.5.5.8.8l-.6.3a.35.35,0,0,0,.1.2c1,0,1,1,1.3,1.5a12.81,12.81,0,0,1,1.1,2c.1.1,0,.3,0,.4s0,.5.1.5c.8.2.9,1.1,1.2,1.7A150.17,150.17,0,0,0,171,113.1a91.46,91.46,0,0,0,10.3,12.1,8.34,8.34,0,0,0,1.2.8c.9.6,1.7,1.1,2.6,1.7.5.4,1,.7,1.5,1.1a.91.91,0,0,0,1.2,0,7.63,7.63,0,0,0,1.1-.8c1.4-1.3,2.9-2.5,4.2-3.8a31.12,31.12,0,0,0,2.3-2.8c.6-.9,1.2-1.9,1.8-2.8a9,9,0,0,1,1-.9l.1.2s.1-.1,0-.1c-.3-1.7,1.1-2.5,1.8-3.7.2-.4.5-.7.7-1.1.1-.1.1-.2.2-.3.4-.2.8-.4.1-.8-.1,0,0-.2,0-.3.1-1.3.1-2.7.3-4a7.49,7.49,0,0,1,.5-1.6,1.85,1.85,0,0,0,.2-.7c0-.2-.3-.2-.4-.4s-.2-.2-.2-.3c.1-.5-.3-1.2.4-1.6a.35.35,0,0,0,.1-.2c-.4-.6,0-1,.3-1.4-.5-.4.3-1.2-.6-1.5a1.17,1.17,0,0,1-.2-.7c0-.8-.3-1.6.2-2.3.2-.3,0-.8.1-1.3v-.4l.6-.2c-.1-.1-.2-.3-.4-.4a.75.75,0,0,1-.5-.8c-.1-.8-.4-1.5-.5-2.2-.1-.5.1-1,0-1.6a2.92,2.92,0,0,0-.2-.9c.6-.3.6-.3.1-.8a3.55,3.55,0,0,1-.4-.9c-.1-.7-.3-1.4-.4-2.1s-.2-1.1.6-1.4l-.6-.3c.2-.4.3-.7-.2-1a2.19,2.19,0,0,1-.3-.5,28,28,0,0,0-.6-2.8,3.31,3.31,0,0,1,.5-2.9h-.9a4.51,4.51,0,0,1-.3-1.1c0-.3.4-.6.6-.9l-.9-.1c-.2-1.2-.5-2.4-.7-3.7,0-.1.1-.2.2-.3a.64.64,0,0,0,.1-.9l-.1-.1a1.72,1.72,0,0,1-.7-2.1l.4.3.1-.1-.9-1.1c.3-.2.6-.4.6-.5a.82.82,0,0,0-.4-.6,1.49,1.49,0,0,1-.6-1.9c0-.1.1-.1.1-.2-.5-.4-.8-.8-.3-1.4.2-.2-.1-.8-.2-1.1-.2-.7-.4-1.3-.6-1.9a4.51,4.51,0,0,1-.7-.7,10.87,10.87,0,0,1-.1-1.8c0-.2-.1-.3-.1-.5l-.6-1.2c-.2-.7-.4-1.4-.6-2.2a2.76,2.76,0,0,1-.6.8,2.11,2.11,0,0,1-2,1.1h-9.1a3.93,3.93,0,0,1-2.9-1.3,11,11,0,0,1-2.4-4c-.1-.2.3-.6.3-.9a1.23,1.23,0,0,0-.2-1c-.1-.2-.6-.1-1-.2-.2-.7-.4-1.3-.6-2-.1-.3.2-.7.2-1s-.1-.8-.4-.8c-.6-.2-.6-.7-.6-1.2s-.5-.7.1-1.2c.2-.2,0-1,0-1.5l-.7.1-.3-1.2a1.85,1.85,0,0,1,.2-.7c.5-.5.5-.9,0-1.3-.1-.1-.2-.2-.1-.3.2-.4,0-.6-.4-.6-.1,0-.2-.3-.2-.4-.5-4.7-1-9.5-1.6-14.2a2.77,2.77,0,0,1,.1-.9,1,1,0,0,1,1.1-.8h3.6a2.68,2.68,0,0,1,2.5,2.4,2.35,2.35,0,0,0,.2.8c.3.7.9,1.3.4,2.1-.1.1.1.5.2.5.6.1.6.6.7,1a16.34,16.34,0,0,1,.8,3.7c0,.9.5,1.4.5,2.2-.1,1.3.6,2.4.8,3.7v.9c.7.7,1.3,4.2.7,5,.7-.1.9.3,1,.8a15.52,15.52,0,0,0,.4,2.1c.1.3.3.5.4.8.5,1.2.9,2.3,1.4,3.5h.2c.2-.9.5-1.7.7-2.6a56.54,56.54,0,0,0,1.3-13.6,31.17,31.17,0,0,0-.9-4.4c-.1-.6-.5-1.2,0-1.8.1-.1.2-.3.4-.5-.2-.6-.1-1.6-1.1-1.9V18.6c0-.2.3-.5.5-.9h7.9c.6,0,.5.4.5.7.3,2.3.5,4.5.8,6.8.1,1,.6,2,.7,3.1.1,1.4.9,2.7,1.1,4.1,0,.3.1.7.1,1a.37.37,0,0,0,.1.3,3.7,3.7,0,0,1,.7,2.7.37.37,0,0,0,.1.3c.9.9.7,2.2,1.1,3.3a9.36,9.36,0,0,1,.4,1.6,1.7,1.7,0,0,1-.1.7l-.7-.2c.1.9,1,1.2,1.4,1.8l-.5.6h.2c.3.5.5,1,.8,1.5a3,3,0,0,1,.4,1c.1,1.5.9,2.7,1.1,4.1a5,5,0,0,1,.3,2.4c-.1.3.2.8.4,1.1,0,.1.1.3.1.4v.4c.9,1,.8,2.4,1.2,3.6.1.2-.3.5-.4.7s-.2.3-.2.4l.2.1.7-.7a40.83,40.83,0,0,1,1,4.5,7.41,7.41,0,0,1,.1,2.1c0,.3-.3.5-.5.8a.35.35,0,0,1,.2.1l.6-.3c.1.3.2.5.3.8s-.1.7-.1,1l-1.2.4a.82.82,0,0,0,1.2.1l.1-.1.5.4-.5.4c.8.6,1.8,4.6,1.3,5.4l-.4-.5.1,1.1.5-.2.8,2.2c0,.1.1.2.1.3-.3,1.4.6,2.6.8,4s.4,2.7.6,4.1a10.87,10.87,0,0,1-.1,1.8l-.8-.3.1.9.6-.1c.4,0,.5.1.5.5,0,.6.2,1.1-.6,1.5-.4.2-.2.7.2,1.1l.2-.4a3.88,3.88,0,0,1,.6,1.1,2.92,2.92,0,0,1-.1,1.6,6.52,6.52,0,0,0,.2,2.4,1.06,1.06,0,0,1-.2,1.2h-.5c0,.2-.1.5,0,.6,1.1.6.9,1.7.9,2.7v6.5a17.7,17.7,0,0,1-.1,2.3c0,.2-.3.4-.5.4s-.7.2-1,.3l.4.1a13.39,13.39,0,0,0,.6,1.2,1.13,1.13,0,0,1,.1.8c-.2.9-.5,1.8-.7,2.6-.3,1.2-.6,2.4-1,3.6q-1,2.7-2.4,5.4a17,17,0,0,1-4.6,5.7c-.8.6-1.6,1.1-2.4,1.6a6.53,6.53,0,0,1-2,.5,24.32,24.32,0,0,1-2.7,0c-.3,0-.6.1-.9.1Z"/>
          <path class="74b5476a-1e21-4433-8136-4f619766532f" d="M265.5,47.1c.3,1.5.6,2.8.9,4.2.1.6.5,1.1.1,1.8-.1.1.3.4.4.7s.6.9-.1,1.3c.8.2.7,1,.8,1.5.3,1.4.5,2.8.8,4.2s.8,2.9,1.2,4.3c1,3.7,2,7.5,3,11.2.2.7.1.8-.6.8h-7.5a1.1,1.1,0,0,1-1.2-.8h0c-.9-3.2-1.8-6.4-2.6-9.6-.6-2.5-1.2-5-1.8-7.4-.2-1.1-.4-2.2-.6-3.2l-.9-3.9c-.1-.4-.4-.9.1-1.3a1.21,1.21,0,0,0-.1-1,2.84,2.84,0,0,1-.7-1.7,13.71,13.71,0,0,0-.8-3.5c-.1-.3-.1-.7-.2-1.1l-1.7-.2v-.1l1.6-.1c-.1-.9-.3-1.7-.4-2.6-.4-2.1-.6-4.3-1.1-6.4-.4-1.8-.8-3.6-1.2-5.5-.5-2.2-1.1-4.5-1.6-6.7-.1-.6-.3-1.2-1.2-1l.9-.5a2,2,0,0,0-.8-.4,8.55,8.55,0,0,0-1.6,0h-.4c-.6-.6-1.1-.2-1.6.1a49.05,49.05,0,0,0-5,2.8c-2.7,1.8-5.4,3.8-8,5.9h3a10.91,10.91,0,0,1,7.3,2.8,23,23,0,0,1,4.7,6.4,18.72,18.72,0,0,1,1.9,9,1.43,1.43,0,0,1-.6,1.2.79.79,0,0,0-.1,1.1l.2.2a.6.6,0,0,1,.3.6,14.3,14.3,0,0,1-2.5,7.5,3.75,3.75,0,0,1-2.8,1.5h-8.1a6.29,6.29,0,0,1-5.2-3.2l-.5-.8v3.2c0,1.3.1,2.7.1,4,0,1,.1,2,0,3a42.73,42.73,0,0,1-1.7,10,7.5,7.5,0,0,1-.8,1.8,1.56,1.56,0,0,1-1.2.6h-8.7a2.88,2.88,0,0,1-2.6-1.6,1.27,1.27,0,0,1-.1-.6c-.1-.2-.4-.3-.5-.6-.6-1.7-1.1-3.4-1.7-5.1-.1-.3-.2-.7-.3-1l1-.8-.1-.1-.9.3c-.3-1-.6-2-.8-2.9s-.6-1.6,0-2.4c.1-.1-.1-.4-.1-.4-.6-.1-.6-.6-.6-1-.1-1,0-2,0-3.1l-.4.1c-.6-1.4-.6-2.9.1-3.1-.3-.5-.2-1.1-.8-1.6-.4-.3-.2-1.3-.2-1.9a.7.7,0,0,1,.2-.4,4.67,4.67,0,0,1-.5-1c-.1-1.2-.3-2.5-.3-3.7,0-.3.2-.5.3-.8a2,2,0,0,0-.1-.8c-.2-.5-.4-.9-.6-1.4l.4-.1a4.87,4.87,0,0,1-.4-1.1c-.3-2.2-.5-4.5-.8-6.7-.2-1.6-.3-3.2-.4-4.8a1.7,1.7,0,0,1,.1-.7c-.1-.8-.3-1.5-.4-2.2-.2-2-.4-4-.7-5.9-.3-2.6-.7-5.3-1.1-7.9-.2-1.5-.4-3-.5-4.5a23.31,23.31,0,0,1,.9-8.3c.3-1.1.8-1.4,2-1.4s1.6.2,1.9,1.4c.5,1.9.8,3.8,1.3,5.6.6,2.1,1.2,4.2,1.8,6.4.6,2.4,1.3,4.8,1.8,7.2.2.7-.2,1.5.5,2.1.5,3.3,1.1,6.7,1.6,10,0,.1.1.3,0,.4-.5.7-.1,1.4-.1,2.1v1a2.36,2.36,0,0,1,.7,1.6v.7c.1.5.2.9.3,1.4.2,1.1.3,2.2.5,3.5l-.6-.4-.2,1,.6.2L219,46h.1c.1.2.4.4.4.6.1.6.2,1.3.3,2,.1.5.2,1-.4,1.4-.1,0-.1.5,0,.5,1.2.6.9,1.8,1.1,2.8.3,1.7.4,3.4.7,5.1.6,3.1,1.3,6.2,1.9,9.4a25,25,0,0,1,.7,2.6h.2l.9-2.8A111.62,111.62,0,0,0,228,51.3a34.27,34.27,0,0,0,.6-5.5,34.4,34.4,0,0,0-.3-4.6c-.3-3.8-.6-7.5-1-11.5h-2.1c2.4-.8,4.1-2.5,6-3.9a59.51,59.51,0,0,1,7.5-4.8,14.62,14.62,0,0,1,6.5-1.7h6.4c0-1,.1-1.2,1.1-1.2h.5a3.58,3.58,0,0,1,3.1,1,2.35,2.35,0,0,0,2.1.8c3.7-.1,7.4,0,11.1,0a10.35,10.35,0,0,1,7.3,2.7,3.81,3.81,0,0,1,.5.6h-.6a.6.6,0,0,0-.4.1l1.5.8c-.6.6-.6.6-.2,1.1l.3-.3.4-.5a10.55,10.55,0,0,1,.5,1.9,16.67,16.67,0,0,1-.2,5c-.1.3-.2.5-.3.8s-.5.4-.8,0a1,1,0,0,1-.1.4c.5.6.2,1.1-.1,1.6a21.45,21.45,0,0,1-6.2,7.2,18.47,18.47,0,0,1-4.5,2.1.86.86,0,0,0-.6.3,12.1,12.1,0,0,1,1.9.1,16.11,16.11,0,0,1,6.6,2.8A71,71,0,0,1,288.2,58l9.2,9.5c1,1,2,2,3,3.1a7.72,7.72,0,0,1-1.5.2c-2.3,0-4.5,0-6.8.1a3.27,3.27,0,0,1-2.6-1.1c-3.7-3.8-7.5-7.6-11.2-11.4a91.34,91.34,0,0,0-12-10.4C265.8,47.2,265.7,47.2,265.5,47.1Zm-30.2-6.8.2-.1a18.46,18.46,0,0,0,.4,2.3,57.56,57.56,0,0,0,2.6,10.7,12,12,0,0,0,2.5,4.2l2-3.5c.4.5.8.6,1.2.2l-1-1.1v-.2a31.73,31.73,0,0,0,.6-9.7,11.63,11.63,0,0,0-.4-1.8,24.93,24.93,0,0,0-3.5-6.9,13.49,13.49,0,0,0-5.1-4.4,11.64,11.64,0,0,0-1.5-.6l.2.5a43.4,43.4,0,0,1,1.8,8.7,2.92,2.92,0,0,1-.2.9l-.3.1Zm23-19.6c2.8,6,4.1,12.4,5.7,18.8q1.65-1.8,3-3.6a23.94,23.94,0,0,0,2.1-3.4,10.91,10.91,0,0,0,1-5.3,6.5,6.5,0,0,0-2.3-5.2C264.9,19.5,261.7,19.6,258.3,20.7Zm-6.7-1.8,1.8-.1v-.2c-.4-.1,0-1-.8-.6-.3.3-.7.6-1,.9Zm7.3,17.6.3.1.4-.8.7.3.2-.8a5.64,5.64,0,0,0-1.2.4c-.2.2-.2.5-.4.8Zm-44.3,9.6-.4.1c.1.5.2.9.3,1.3,0,.1.3,0,.5.1v-.1l-.4-.3h.2ZM210.4,6.7c-.7-.4-1.1-.2-1.4.3Z"/>
          <path class="74b5476a-1e21-4433-8136-4f619766532f" d="M158.6,1.1l-.6.2.5.8.6-.2a7.81,7.81,0,0,1-.1,3.4,17.42,17.42,0,0,1-3.5,6.4,29.05,29.05,0,0,1-12.6,9,1.08,1.08,0,0,0-.8,1.1c-.2,3-.5,6-.7,9-.2,4.6-.3,9.3-.4,13.8-.4.2-.8.2-1,.5a.89.89,0,0,0,.4,1.4c.7.3.7.7.7,1.2v8a2.92,2.92,0,0,1-.2.9,1.88,1.88,0,0,1,.2.8c-.1,4.4-.1,8.7-.2,13.1,0,1.7-.1,3.5-.2,5.2a4.25,4.25,0,0,1-.2,1.1c-.1.4.1.7.1,1.1-.2,3-.4,6.1-.6,9.1,0,.4-.1.9-.1,1.3s-.1.8-.7.4c-.1-.1-.4-.1-.7-.1l.3.6-.2-.1-.7,1.6c.5.1,1.2.3,1.7-.3a19.93,19.93,0,0,1-.5,3.4c-.5,2.1-1,4.1-1.6,6.1a4.58,4.58,0,0,1-5,3.5h-2.4c1-8.1,2.2-16.2,2.6-24.3.5,0,.9.2.7-.6-.1-.6-.8-.9-.6-1.6a13.4,13.4,0,0,0,.1-2c0-.6.1-1.3.1-1.9,0-2.1.1-4.2.1-6.2a5.85,5.85,0,0,1,.2-1.3v-.4a66.77,66.77,0,0,1-.1-10c.1-3.2,0-6.4.1-9.5.2-5.5.6-11.1.9-16.6.1-1.6.4-3.3.6-4.9l-2.4.3c-.2,0-.5.1-.7.1H118a7,7,0,0,1-5.8-3,1.38,1.38,0,0,0-.3-.4,4,4,0,0,1-1.7-4,22.19,22.19,0,0,1,1.4-6.3.89.89,0,0,1,.8-.5A51.39,51.39,0,0,1,122,10a1.3,1.3,0,0,1,1.1,1.3c0,1.3.1,2.6.2,3.9,0,.5.4,1.1-.4,1.3-.1,0-.1.2-.1.4a4.21,4.21,0,0,0,1.3,3.8,2.94,2.94,0,0,0,1.8,1,23.69,23.69,0,0,0,8.8-.2,1,1,0,0,0,.9-1,45.47,45.47,0,0,1,4.9-14.4A16.22,16.22,0,0,1,145.4.6,4.42,4.42,0,0,1,147,0c2.9,0,5.8,0,8.7.1A3.2,3.2,0,0,1,158.6,1.1ZM142.8,17.5a5.74,5.74,0,0,1,.7-.4c1.1-.9,2.2-1.7,3.3-2.6.2-.2.6-.3.8-.5s.5-.8.8-1.1a50.44,50.44,0,0,0,3.3-4.4,9.13,9.13,0,0,0,1.6-5.8,2.4,2.4,0,0,0-1.2-2,.78.78,0,0,0-1.1,0c-.6.6-1.4,1.2-2,1.9C145.3,6.8,143.9,12,142.8,17.5Zm-17,4.4-.1.2c.4.2.7.5,1.1.5a20,20,0,0,0,2.6-.5V22ZM138,29.5l.2-.2a5.55,5.55,0,0,0-.8-.6c-.2-.1-.4.2-.7.3Z"/>
          <path class="74b5476a-1e21-4433-8136-4f619766532f" d="M146.2,48.5l-1-.1c1.2.2,1.2-.8,1.4-1.5,1-4.1,2-8.2,3.1-12.3a14.17,14.17,0,0,1,.8-1.8c0-.1-.2-.4-.1-.5,1-3.3,2-6.6,3-10,.3-.9.7-1.6,1-2.5a4.87,4.87,0,0,0,.1-1.2h8.6a1.1,1.1,0,0,1,1.2.8,26,26,0,0,1,1,2.5,27.73,27.73,0,0,0,1,2.6c.1.3.1.7.2,1v.2c1.2,1.9,1.5,4.1,2.2,6.1a3.4,3.4,0,0,1,.1,1c-.3.2-.8.5-.4,1l.8.1c0,.3-.1.7,0,.8.7.4.7,1.2.9,1.8.6,2.2,1.1,4.4,1.7,6.6.3,1.1.6,2.2.9,3.2a9.36,9.36,0,0,1,.4,1.6,9.7,9.7,0,0,1-.1,1.7c1,.8,1.1,2.1,1.2,3.5a8.8,8.8,0,0,0,.5,1.5,9.61,9.61,0,0,1,.8,2.9c0,.7.4,1.1.5,1.7.1.4.1.8.2,1.2v.3a20.16,20.16,0,0,1,.7,2.3c.2,1,1.1,1.9.8,3.1,0,.1.2.2.2.3a1.85,1.85,0,0,1,.2.7c.1.3.1.6.2,1h-.5c-.1.2,0,.8-.6.3.2.4.2.4,1.7,0,.6,1.9,1.1,3.8,1.7,5.7l-.1.1-.6-1-.6.9h.7a.31.31,0,0,0-.1.2c-.5,0-1.1.1-1.6.1-2.2,0-4.5,0-6.7-.1a.75.75,0,0,1-.7-.4c-.6-1.5-1.1-2.9-1.6-4.4l.6-.2c-.4-.8-.9-1.7-1.3-2.5.3-.4.1-.6-.3-1.1a3.23,3.23,0,0,1-.8-2.1,4.82,4.82,0,0,1,.7-1.5,4.88,4.88,0,0,0-.7-.3c-.7,0-.8-.5-.9-1-.2-.8-.5-1.6-.7-2.4.3-.2.6-.3.1-.8s-.4-1.4-.6-2.1v-.2c-1-.6-.8-1.8-1.2-2.8a12.09,12.09,0,0,1-.5-1.8,2.92,2.92,0,0,1,.2-.9l-.2-.4.2.1.6-1.2c.3-.6-.2-.8-.6-.8-.6,0-.8-.1-.5-.8-.6.2-1.1.4-1.6.6a20.88,20.88,0,0,1-7,1.5.85.85,0,0,0-.5.3c-.9,2.7-1.7,5.4-2.6,8.1a14,14,0,0,1-2.4,4.7,2.38,2.38,0,0,1-1.1.6c-1.2.1-2.4.1-3.6.1-.2,0-.4-.2-.7-.3l-.2.2a8.85,8.85,0,0,1,0-2.3c.3-1.6.7-3.2,1-4.7.1-.2.3-.4.4-.6v-1c.3-1.4.6-2.8.9-4.3A7.47,7.47,0,0,1,146.2,48.5Zm12.6-16.1c-1.2,4.3-2.4,8.6-3.5,12.9a.6.6,0,0,0,.4-.1c2.1-1.1,4.3-2.1,6.4-3.3.2-.1.9-.3.7-.9l-1.3-.2c.2-.4.6-.8-.1-.9-.1,0-.1-.2-.2-.4a1.88,1.88,0,0,0-.2-.8l-1.2-3.9c-.1-.2.1-.4.1-.5A11.78,11.78,0,0,1,158.8,32.4Zm-5.2-6.7,1.2.1a1.08,1.08,0,0,0-1.4-.2,1.37,1.37,0,0,0-.8,1l.2.1Z"/>
          <path class="74b5476a-1e21-4433-8136-4f619766532f" d="M150.3,80.8c-.1-.4-.3-.7-.4-1.1v-.5a4.33,4.33,0,0,1,.5.1c.1.1.3.2.4.3-.6.1-.8.3-.3.7.1.1,0,.3,0,.4Z"/>
          <path class="74b5476a-1e21-4433-8136-4f619766532f" d="M152.8,89.2h-1.1V89h1.1Z"/>
        </g>
      </g>
    </g>
  </g>
</svg>
