<svg id="7626685e-80a9-4d64-b847-c15eb5fbfec3" data-name="Layer 1" xmlns="http://www.w3.org/2000/svg" viewBox="0 0 43.52 43.52">
  <defs>
    <style>
      .\37 0e9ff1d-3b1f-416a-b280-32b175d8515d {
        fill: #be3127;
      }
    </style>
  </defs>
  <title>ktm-</title>
  <g>
    <path class="70e9ff1d-3b1f-416a-b280-32b175d8515d" d="M41.22,27.35h0a8,8,0,0,0,0-11.18h0a9.06,9.06,0,0,0-12.85-.05l-4.76,4.76a1.26,1.26,0,0,0,0,1.76l4.76,4.75A9,9,0,0,0,41.22,27.35Z"/>
    <path class="70e9ff1d-3b1f-416a-b280-32b175d8515d" d="M2.29,16.17h0a8,8,0,0,0,0,11.18h0a9.06,9.06,0,0,0,12.86,0l4.76-4.75a1.26,1.26,0,0,0,0-1.76l-4.76-4.76A9.07,9.07,0,0,0,2.29,16.17Z"/>
    <path class="70e9ff1d-3b1f-416a-b280-32b175d8515d" d="M27.35,2.29h0a8,8,0,0,0-11.18,0h0a9.07,9.07,0,0,0-.05,12.86l4.76,4.76a1.26,1.26,0,0,0,1.76,0l4.75-4.76A9.06,9.06,0,0,0,27.35,2.29Z"/>
    <path class="70e9ff1d-3b1f-416a-b280-32b175d8515d" d="M16.17,41.22h0a8,8,0,0,0,11.18,0h0a9,9,0,0,0,0-12.85l-4.75-4.76a1.26,1.26,0,0,0-1.76,0l-4.76,4.76A9.06,9.06,0,0,0,16.17,41.22Z"/>
  </g>
</svg>
