<svg id="25b65787-073b-424e-849c-9053e2459f85" data-name="Layer 1" xmlns="http://www.w3.org/2000/svg" viewBox="0 0 300 132.26">
  <defs>
    <style>
      .\37 3a5aa37-9a7c-4a38-b8f1-fe181e061014 {
        fill: #df7a3f;
      }
    </style>
  </defs>
  <title>ktm-</title>
  <g id="7f858f4f-3fc1-4db7-9e0c-93df23232bc2" data-name="h77Aio.tif">
    <g>
      <g>
        <path class="73a5aa37-9a7c-4a38-b8f1-fe181e061014" d="M15.69,55c0,1,0,1.84,0,2.72.05,1,.16,2.09.24,3.13,0,.51.24,1-.31,1.44-.09.06-.08.3-.08.45,0,.84-.13,1.72.6,2.4a.75.75,0,0,1,.07.58,3.29,3.29,0,0,1-.32.91,2.4,2.4,0,0,0-.14,1.21c0,.33-.33.65-.54,1l.48.42c-.45.24-.82.45-1.2.64a1.77,1.77,0,0,1-.41,0,4.41,4.41,0,0,0,.15.55,6,6,0,0,1,.36.9,1.08,1.08,0,0,0,1.37,0c.29-.22.68-.16.64.4,0,.18.11.37.11.56a4.53,4.53,0,0,1-.07,1.28.92.92,0,0,0,.1.83,8.66,8.66,0,0,1,.42,1.79c.24.91-.31,1.83.13,2.76a.69.69,0,0,1-.55.93,4.37,4.37,0,0,1-1,.18c-3,0-6,.12-9,0-1.83-.06-2-.06-2.66-2.12a15.09,15.09,0,0,1-.26-2.35c-.09-.63-.31-1.24-.36-1.87s0-1.51,0-2.07L4.62,71v-.24l-1.44-.26a1.3,1.3,0,0,1,.26-1.36.62.62,0,0,0,.11-.56,12.39,12.39,0,0,1-.62-1.54,11.23,11.23,0,0,1-.06-1.93c0-.16.11-.33.1-.49a1.69,1.69,0,0,1,1-1.58l-.4-.52c-.2-.23-.53-.41-.27-.8,0-.06,0-.18,0-.26-.21-.47-.42-.93-.64-1.39s-.27-.82.55-.7c-.58-1.19.68-.92,1-1.44a.77.77,0,0,0-1-.25c-.65.34-.86-.09-.89-.62,0-.87,0-1.75,0-2.62H2.5l.08.64.22,0c0-.39.06-.87-.13-1.15A5.2,5.2,0,0,1,2,50.46c0-.42-.1-1,.12-1.25A3,3,0,0,0,2.63,47c0-.3.27-.6.32-.91A5.56,5.56,0,0,0,2.9,45l-1.33.06c.05-.64.08-1.33.18-2,0-.14.32-.25.53-.4a.62.62,0,0,0-.15-.21c-.21-.2-.62-.39-.62-.59a4,4,0,0,1,.26-1.35,2.47,2.47,0,0,1,.48-.89c.3-.31.41-.85,1.08-.78.25,0,.67-.39.8-.69s-.16-.61-.3-1.06L2.28,38.72l-.22-.1-.15-.77c-.7-.2-.84-.49-.62-1.21a1.92,1.92,0,0,0-.07-.74C1.14,35,1,34.06,1,33.13c0-.71-.1-1.43-.08-2.14a5.52,5.52,0,0,1,.27-1.1l.18,0A3.44,3.44,0,0,1,.78,29a5.5,5.5,0,0,1,0-1.15C.7,26.91.64,26,.55,25.09s.62-.59,1-.84A1.89,1.89,0,0,0,1.8,24l-.19-.15c-.29-.38-.43-.72-.67-.84a1,1,0,0,1-.59-1.11c0-.46-.1-.92-.09-1.37a1.45,1.45,0,0,1,.24-.8.77.77,0,0,0,0-1.1C0,18,.07,17.71.67,17.19A3.89,3.89,0,0,0,1.28,16,1.27,1.27,0,0,1,0,14.57c0-1.82.1-3.64.31-5.44A2.46,2.46,0,0,1,3.4,7.48c.32.15.49.65.72,1s.32.47.48.7l.18-.11-.31-.63c.31-.23.59-.44.88-.64A2.41,2.41,0,0,1,7.85,8a5.18,5.18,0,0,1,1.9,2.83c.25.85.68,1.64.92,2.49.51,1.84,1,3.71,1.4,5.57A4.31,4.31,0,0,1,12,20c0,.13,0,.29,0,.38a5.31,5.31,0,0,1,.65,4.08,7.54,7.54,0,0,0,0,1.28l-.47-1.51-1.56,1.24,1.56.91c.86-.25,1.14-.06,1.25.83s.24,1.78.32,2.67a1.54,1.54,0,0,1-.18.88c-.53.82-.55.81.28,1.45.12-.16.25-.31.36-.47,1.09-1.68,2.17-3.37,3.29-5,2.38-3.53,4.76-7.06,7.18-10.56a6,6,0,0,1,1.33-1c.09-.08.22-.26.19-.31-.31-.57.14-.88.44-1.15,1.14-1,2.31-2.07,3.49-3.07a1.11,1.11,0,0,1,.68-.25c1.29,0,2.58.08,3.87.09.71,0,1,.47,1.16,1a4.49,4.49,0,0,1-.11,2.81c-.56,1.63-1.2,3.25-1.91,4.82s-1.48,3.09-2.29,4.59c-.67,1.24-1.43,2.42-2.14,3.63-.41.7-.8,1.43-1.2,2.14-1.45,2.61-2.86,5.25-4.38,7.82-1,1.65-2.07,3.22-3.18,4.77-.69,1-1.49,1.83-2.31,2.82a7.55,7.55,0,0,0,.57.63c5.26,4.8,10.54,9.58,15.79,14.4,2.44,2.24,4.91,4.46,7.19,6.85,3.73,3.89,7.34,7.88,10.94,11.88,1.31,1.45,2.47,3,3.68,4.57.77,1,1.53,1.92,2.27,2.89a7.8,7.8,0,0,1,1.76,3.57c.3,2.14-.94,3.07-2.82,3.12a13.63,13.63,0,0,1-7-1.94,17.58,17.58,0,0,1-5.51-4.75c-1.94-2.51-4-4.94-5.86-7.5-1-1.31-2.22-2.27-3.2-3.54S34,72.68,32.91,71.5C28.79,67,24.29,62.89,19.8,58.78c-1.2-1.1-2.37-2.22-3.56-3.32C16.07,55.3,15.88,55.14,15.69,55ZM30.94,22.79a6.3,6.3,0,0,1-.68.46c-.43.21-.68.83-1.32.56-.09,0-.22,0-.5.05.81.49,1.34,1.23,2.2.71ZM14.65,62.46l.54,1.09C15.5,62.67,15.34,62.38,14.65,62.46Z"/>
        <path class="73a5aa37-9a7c-4a38-b8f1-fe181e061014" d="M61.29,48.82c1,3.1,2,6.11,2.93,9.13a35.6,35.6,0,0,1,1.12,4.29,19.16,19.16,0,0,1,0,3.24,11.19,11.19,0,0,0-1.28-.26,1.75,1.75,0,0,0-.71.1c-.3.09-.59.32-.88.32-1.27,0-2.54-.12-3.82-.14a2.41,2.41,0,0,1-2.26-1.68A11,11,0,0,1,55.75,62a4.75,4.75,0,0,1-.7-1.06c-1-2.88-2-5.77-3-8.66l-.21-.53-5.35,1.51a3.28,3.28,0,0,1-.66.19c-1.55.16-2.53.83-2.66,2.54a1.76,1.76,0,0,1-1.68,1.3c-1,0-1.91,0-2.86-.12A1.44,1.44,0,0,1,37.29,56c-.38-1.4-.4-1.4-1.84-1.42a3,3,0,0,1-.93-.11c.56-.27,1.12-.57,1.7-.81a.59.59,0,0,0,.45-.7,70.13,70.13,0,0,1-.1-13.82,28.72,28.72,0,0,1,1.74-8.34,5.07,5.07,0,0,1,.77-1.28c.16-.19.47-.26.73-.41s.61-.42.91-.43c2.79,0,5.57,0,8.36,0a3.38,3.38,0,0,1,2.34,1,20.18,20.18,0,0,1,4.44,6.1c1.4,3,2.67,6,4,9,.18.43.36.48.8.44,1.73-.13,3.46-.19,5.19-.24a.88.88,0,0,1,.61.39,1.25,1.25,0,0,1-.6,1.89Zm-10.35-.39a141.11,141.11,0,0,0-5.47-14.09c-1.13,5.4-1.23,10.84-1.38,16.36Z"/>
        <path class="73a5aa37-9a7c-4a38-b8f1-fe181e061014" d="M68.07,23.12c-1.33.18-2.57.31-3.8.53-2.69.48-5.36,1.13-8.07,1.49a26.08,26.08,0,0,1-5-.06c1.37-.35,2.72-.79,4.11-1,3.28-.59,6.58-1.08,9.86-1.65.94-.16,1.85-.48,2.79-.7.41-.09.56-.34.7-.72.52-1.45,1-2.92,1.69-4.32a10.14,10.14,0,0,1,1.42-2.09,5.28,5.28,0,0,1,4.61-2.08c1.8.11,3.61,0,5.41,0a5.5,5.5,0,0,1,1.61.28c.67.23.71.64.31,1.23-.13.18-.19.63-.09.72.4.34.11.59,0,.83A9.23,9.23,0,0,1,80.25,19a52.83,52.83,0,0,1-4.82,2.41.92.92,0,0,0-.64.82,65.08,65.08,0,0,0-.28,10.54c0,1.5,0,3,0,4.56l-.67.22.65,1,.1-.1q.89,8.86,1.77,17.72c.43,4.42.86,8.85,1.25,13.28a7.72,7.72,0,0,1-.19,1.64c0,.07-.06.15,0,.2.68,1.16.25,2.36.12,3.54a2.57,2.57,0,0,1-2,2.34,15.88,15.88,0,0,1-5.16.28c.09-.34.26-.62.2-.82a17.5,17.5,0,0,1-.74-4.83c-.05-1.49-.33-3-.49-4.45q-.43-4.16-.83-8.31c-.14-1.48-.21-3-.33-4.46-.29-3.47-.7-6.93-.88-10.41a118.58,118.58,0,0,1,.58-19.67C67.89,24.12,68,23.69,68.07,23.12Zm2.82,6.06.12-.27a3.72,3.72,0,0,1-.82-.75c-.32-.59-.76-.12-1.13-.23,0,.3,0,.61,0,.91s0,.41,0,.77Z"/>
        <path class="73a5aa37-9a7c-4a38-b8f1-fe181e061014" d="M97,27.78a7.65,7.65,0,0,0-1,.6,1.23,1.23,0,0,0,.28.61c.07.07.32,0,.55,0l.41.5.47-.9a1.15,1.15,0,0,1-.49,1.62,4.71,4.71,0,0,1-.26,1.24,38.21,38.21,0,0,1-8.39,10,3.38,3.38,0,0,0-1.33,3.3A23.36,23.36,0,0,0,95.42,60c1,.91.79.91,1.81-.14a15.63,15.63,0,0,0,3.14-5.7c.24-.64.28-1.37.5-2s.74-1.17.69-1.7a3.39,3.39,0,0,1,0-1.49c.15-.49.42-.95.55-1.44s0-.82.14-1.21c.15-.65.43-1.27.57-1.92s.15-1.31.22-2a5.58,5.58,0,0,1,.13-1c.12-.46.58-.71.89-.45a11.56,11.56,0,0,1,1.4,1.65h-1l0,.19c.11,0,.23.15.33.13.89-.14,1.17.46,1.49,1.11s.64.67,1.36,0v.87c0,.27,0,.55,0,.82,0,.54.16.86.91.53-.11,1.16-.2,2.21-.32,3.25s-.31,2.2-.42,3.3,0,2.51-1.27,3.33l.33.23.4-.63.14,0c-.22.58-.45,1.16-.65,1.74-.09.24-.12.49-.19.74-.52,1.79-3.13,4.23-5.46,4.07a76.69,76.69,0,0,0-7.88,0,10.19,10.19,0,0,1-7.84-3.43,21.49,21.49,0,0,1-4.48-7.05c-.12-.28,0-.64-.14-.94s-.4-.6-.48-.94c-.35-1.29-.65-2.59-1-3.89a2.73,2.73,0,0,1-.07-.37l-.91-.1c0-.08,0-.16,0-.16.86-.33.92-1,.94-1.81a22.14,22.14,0,0,1,2-9.09,12.66,12.66,0,0,1,6.51-6.38,6.27,6.27,0,0,1,2.32-.46c2.15-.05,4.29,0,6.44,0A2.36,2.36,0,0,1,97,27.78Zm-5,1.8a11.42,11.42,0,0,0-4.35,7C89.43,34.46,91.28,32.36,92,29.58Z"/>
      </g>
      <g>
        <path class="73a5aa37-9a7c-4a38-b8f1-fe181e061014" d="M185.47,132.51a3.93,3.93,0,0,0-.75-.13c-.92,0-1.83-.06-2.74,0a4.38,4.38,0,0,1-2.42-.59,20.5,20.5,0,0,0-2.46-1.17,4,4,0,0,1-1.85-1.91,2.88,2.88,0,0,0-.31-.44A60.17,60.17,0,0,1,164.78,115c-2-3.42-3.67-7-5.5-10.48-.26-.5-.63-.94-.89-1.44-.1-.21,0-.52-.06-.74-.29-.71-.64-1.39-1-2.09-.06-.11-.21-.23-.2-.33.08-.58-.25-.72-.72-.74A2.88,2.88,0,0,1,156,99l.87-.43L155.45,98l.83-.25.09-.2-1.13-.63.56-.24c.15-.32-.73-1.66-1.35-2l.34-.81-.46-.19c0-.08,0-.14,0-.17.45-.42.41-.73-.13-1A.57.57,0,0,1,154,92a.73.73,0,0,0-.83-.78c-.32,0-.64-.07-1-.11V90.9l1.09-.11c.71-1.5-.43-2.52-.89-3.88-.12.22-.17.28-.2.34s0,.12-.22.22l-.41-1.35c.57,0,.47-.33.31-.69-.47-1.09-1-2.17-1.37-3.28a.89.89,0,0,1,.21-.73,1.46,1.46,0,0,0,.19-1.56l.14-.13a3.19,3.19,0,0,1,.61.67c.66,1.43,1.28,2.88,1.92,4.31a6.51,6.51,0,0,0,.41.73l.18,0,.18-.6,1.4,2.83-.83-.09-.06.23,1.14.33-.82.18c.25.59.34,1.19,1.19,1.22.25,0,.48.5.78.83l-.59.26c0,.08.06.15.09.15,1,0,1,1,1.32,1.51A16.5,16.5,0,0,1,159,94.41c.06.12,0,.28,0,.42s0,.48.07.51c.83.25.91,1.08,1.22,1.67A138,138,0,0,0,171,113.49a99.77,99.77,0,0,0,10.26,12.12,7.43,7.43,0,0,0,1.24.78c.86.56,1.72,1.12,2.57,1.7.51.34,1,.69,1.5,1.07a1,1,0,0,0,1.25,0,12.41,12.41,0,0,0,1.09-.82c1.42-1.25,2.87-2.48,4.2-3.82a23,23,0,0,0,2.28-2.82c.65-.89,1.19-1.87,1.83-2.78a6.26,6.26,0,0,1,1-.87l.13.14s.06-.08,0-.11c-.26-1.67,1.13-2.51,1.83-3.7.22-.36.46-.72.68-1.08.06-.09.09-.24.18-.28.44-.22.82-.41.1-.79-.05,0,0-.21,0-.32.08-1.32.13-2.64.27-4a8.67,8.67,0,0,1,.47-1.61,2.1,2.1,0,0,0,.17-.71c0-.14-.29-.24-.43-.38s-.19-.24-.17-.34c.07-.54-.34-1.19.38-1.57,0,0,.1-.15.08-.17-.39-.58,0-1,.33-1.37-.51-.38.26-1.24-.59-1.54-.13,0-.19-.44-.19-.68,0-.78-.27-1.56.25-2.33.21-.3,0-.84.06-1.28v-.38l.57-.19c-.13-.13-.24-.32-.4-.38-.39-.15-.48-.42-.54-.81-.11-.76-.37-1.49-.48-2.25-.07-.52.05-1.06,0-1.59a5.18,5.18,0,0,0-.16-.93c.6-.29.57-.26.08-.74a2,2,0,0,1-.39-.89c-.15-.7-.26-1.42-.39-2.13-.1-.54-.24-1.09.59-1.37l-.57-.3c.21-.37.34-.73-.22-1-.14,0-.23-.33-.27-.52-.2-.94-.3-1.89-.56-2.81a3.5,3.5,0,0,1,.48-2.9l-.86,0a3.31,3.31,0,0,1-.27-1.14c0-.31.36-.57.57-.89l-.87-.12c-.24-1.21-.49-2.43-.71-3.65,0-.09.09-.23.17-.3a.68.68,0,0,0,0-1,1.82,1.82,0,0,1-.74-2.09l.41.26.06-.06-.91-1.14c.26-.22.57-.38.55-.49a1,1,0,0,0-.39-.63,1.42,1.42,0,0,1-.42-2.14c-.5-.39-.76-.78-.3-1.43.16-.23-.08-.75-.18-1.13-.19-.68-.41-1.36-.58-1.9-.29-.28-.65-.47-.7-.72a11.53,11.53,0,0,1-.14-1.77,1.47,1.47,0,0,0-.14-.45,8.78,8.78,0,0,1-.61-1.18c-.22-.67-.36-1.37-.57-2.22-.24.37-.41.6-.55.83a2.14,2.14,0,0,1-2,1.12h-9.12a3.87,3.87,0,0,1-2.92-1.29,11.25,11.25,0,0,1-2.42-4c-.08-.23.26-.58.29-.88a1.68,1.68,0,0,0-.16-1c-.12-.18-.57-.13-1-.2-.17-.54-.45-1.24-.61-2-.06-.31.19-.68.17-1s-.15-.75-.36-.84c-.56-.26-.61-.68-.62-1.17s-.51-.72.12-1.16c.24-.17,0-1,0-1.56l-.69.15a7.64,7.64,0,0,1-.3-1.21,1,1,0,0,1,.25-.65c.5-.53.52-.87,0-1.33-.07-.06-.16-.2-.14-.26.16-.41,0-.59-.41-.62-.09,0-.22-.27-.24-.43q-.79-7.11-1.55-14.21a2.31,2.31,0,0,1,.09-.87,1,1,0,0,1,1.14-.84c1.21,0,2.42,0,3.63,0a2.86,2.86,0,0,1,2.54,2.44,2.86,2.86,0,0,0,.25.8c.28.67.91,1.27.35,2.1-.08.11.08.54.17.56.63.1.61.64.71,1.05a13.82,13.82,0,0,1,.75,3.72c0,.88.54,1.43.51,2.18-.07,1.3.57,2.45.75,3.7a4.71,4.71,0,0,1,0,.89c.7.7,1.28,4.25.67,5,.69-.13.86.29,1,.8.13.71.24,1.42.41,2.12a5.67,5.67,0,0,0,.42.81c.47,1.17.93,2.34,1.4,3.52h.2c.24-.87.51-1.72.71-2.59a56,56,0,0,0,1.34-13.59,30.07,30.07,0,0,0-.85-4.43c-.1-.58-.47-1.19,0-1.8.1-.15.22-.29.39-.5-.24-.59-.11-1.56-1.14-1.86,0-1.63,0-3.29,0-4.95,0-.25.28-.49.51-.87h7.92c.55,0,.46.38.5.71.27,2.26.5,4.53.83,6.78.15,1,.61,2,.71,3.06.15,1.42.85,2.68,1.1,4.06a8.1,8.1,0,0,1,.06,1,.5.5,0,0,0,.06.28,3.8,3.8,0,0,1,.72,2.67.41.41,0,0,0,.07.33c.9.91.7,2.21,1.15,3.28a9.12,9.12,0,0,1,.44,1.63,2,2,0,0,1-.13.69l-.74-.21c.08.92,1,1.16,1.37,1.8l-.47.62.18-.05c.26.49.52,1,.76,1.47a3.39,3.39,0,0,1,.42,1c.14,1.45.9,2.72,1.14,4.13a6,6,0,0,1,.29,2.38c-.07.33.23.75.36,1.13a1.86,1.86,0,0,1,.08.41c0,.12,0,.3,0,.37.93,1,.83,2.38,1.18,3.59.05.2-.27.5-.41.75s-.17.28-.25.43l.16.1.66-.71c.38,1.61.75,3,1,4.51a9.23,9.23,0,0,1,.13,2.1c0,.26-.31.5-.49.77.14,0,.2.09.23.08l.62-.27a2.55,2.55,0,0,1,.29.81,4.18,4.18,0,0,1-.14,1l-1.24.43a.88.88,0,0,0,1.31,0l.48.45-.49.37c.84.61,1.81,4.63,1.27,5.43l-.45-.53.1,1.08.51-.2.82,2.23a.52.52,0,0,1,.06.26c-.3,1.44.65,2.64.77,4s.45,2.74.61,4.12a9.88,9.88,0,0,1-.14,1.81l-.79-.32.15.91c.24,0,.42-.06.6-.07.35,0,.53.08.54.5,0,.58.17,1.1-.55,1.47-.35.18-.2.73.17,1.11l.18-.43a3.9,3.9,0,0,1,.58,1.1,4.17,4.17,0,0,1-.07,1.64,5.54,5.54,0,0,0,.24,2.43c.13.49.19.79-.18,1.2l-.5,0c0,.19-.05.5,0,.55,1.1.64.86,1.7.86,2.67s0,2.14,0,3.21,0,2.23,0,3.34c0,.77,0,1.53-.07,2.29,0,.17-.29.37-.48.44a6.18,6.18,0,0,0-1,.33l.37.09c.23.47.44.82.59,1.21a1.53,1.53,0,0,1,.14.8c-.2.89-.47,1.76-.71,2.64a36.54,36.54,0,0,1-1,3.57,37.68,37.68,0,0,1-2.43,5.37,18.11,18.11,0,0,1-4.62,5.75,17,17,0,0,1-2.41,1.55,5.76,5.76,0,0,1-2,.49c-.9.08-1.82,0-2.74,0a6.42,6.42,0,0,0-.86.14Z"/>
        <path class="73a5aa37-9a7c-4a38-b8f1-fe181e061014" d="M265.41,47.64c.32,1.47.65,2.83.91,4.2.1.57.48,1.15.09,1.78-.06.11.26.43.36.68.16.42.56.87-.13,1.3.81.24.68,1,.8,1.52.31,1.39.52,2.82.84,4.21s.78,2.9,1.16,4.34q1.5,5.6,3,11.19c.19.72.15.79-.6.8-2.51,0-5,0-7.54,0a1,1,0,0,1-1.16-.83c-.88-3.18-1.8-6.35-2.65-9.54-.65-2.47-1.24-5-1.81-7.44-.24-1.07-.35-2.17-.57-3.24-.28-1.3-.64-2.59-.91-3.89-.09-.43-.41-.89.15-1.34.15-.13.06-.76-.12-1a3.09,3.09,0,0,1-.74-1.67,19.6,19.6,0,0,0-.75-3.49c-.08-.35-.14-.71-.22-1.12l-1.67-.17v-.08l1.64-.08c-.15-.88-.31-1.72-.44-2.56-.35-2.13-.65-4.28-1.05-6.4-.35-1.83-.81-3.64-1.23-5.45-.52-2.24-1.06-4.47-1.58-6.7-.15-.61-.29-1.2-1.19-1.05l.87-.47c-.33-.19-.55-.4-.78-.42a15,15,0,0,0-1.64-.05c-.14,0-.34,0-.41,0-.58-.63-1.15-.17-1.63.09a51,51,0,0,0-5,2.78c-2.74,1.85-5.38,3.85-8,5.92h3a11,11,0,0,1,7.44,2.84,21.77,21.77,0,0,1,4.69,6.44,17.8,17.8,0,0,1,1.85,9,1.63,1.63,0,0,1-.56,1.26.77.77,0,0,0,.14,1.27.75.75,0,0,1,.31.57,13.33,13.33,0,0,1-2.53,7.47,3.43,3.43,0,0,1-2.75,1.45c-2.69,0-5.39,0-8.08,0a6.08,6.08,0,0,1-5.16-3.25c-.14-.22-.28-.44-.53-.81,0,1.18,0,2.17,0,3.16,0,1.35.05,2.69.06,4,0,1,.05,2,0,3a42.18,42.18,0,0,1-1.68,10,6.28,6.28,0,0,1-.84,1.84,1.74,1.74,0,0,1-1.25.64c-2.9,0-5.8,0-8.7,0a3.08,3.08,0,0,1-2.62-1.61,2.1,2.1,0,0,1-.12-.59c-.14-.14-.45-.31-.54-.57-.59-1.69-1.14-3.39-1.69-5.1-.11-.32-.19-.64-.29-1l1-.79-.12-.13-.87.32c-.3-1-.62-1.95-.82-2.91-.16-.76-.57-1.56,0-2.36a.54.54,0,0,0-.12-.44c-.64,0-.6-.58-.62-1-.05-1,0-2,0-3.08l-.36.1c-.56-1.37-.55-2.92.07-3.11-.27-.54-.19-1.13-.78-1.64-.37-.3-.2-1.26-.22-1.93,0-.17.18-.36.19-.38a3.91,3.91,0,0,1-.5-1.05c-.15-1.22-.26-2.45-.33-3.68,0-.26.25-.53.28-.8a1.92,1.92,0,0,0-.14-.82c-.17-.46-.4-.89-.63-1.38l.43-.1a5.22,5.22,0,0,1-.38-1.11c-.27-2.23-.51-4.48-.75-6.72-.16-1.61-.31-3.22-.44-4.83a2.29,2.29,0,0,1,.12-.71c-.15-.83-.33-1.53-.41-2.25-.24-2-.42-3.94-.67-5.91-.34-2.65-.74-5.29-1.09-7.93-.2-1.49-.37-3-.52-4.48A22.58,22.58,0,0,1,206.61,2c.3-1.12.76-1.38,2-1.38S210.23.9,210.51,2c.47,1.86.82,3.75,1.3,5.61.55,2.14,1.21,4.25,1.78,6.39.64,2.37,1.28,4.75,1.79,7.15.16.71-.17,1.52.49,2.12.54,3.33,1.07,6.67,1.61,10,0,.13.08.32,0,.4-.51.68-.05,1.41-.13,2.12a8.61,8.61,0,0,0,0,1,2.11,2.11,0,0,1,.67,1.6,1.9,1.9,0,0,0,0,.71c.09.47.24.92.31,1.39.16,1.1.3,2.21.46,3.45l-.62-.37-.17,1,.64.22-.09,1.46.15-.06a2,2,0,0,1,.42.61c.14.65.22,1.31.3,2,.06.5.2,1-.43,1.36a.65.65,0,0,0,0,.51c1.23.62.94,1.84,1.11,2.85.28,1.67.35,3.38.66,5.05.58,3.14,1.31,6.26,1.87,9.4.16.93.63,1.71.72,2.64h.18l.87-2.83a108.45,108.45,0,0,0,3.05-16.27c.26-1.83.56-3.67.64-5.51a38.15,38.15,0,0,0-.29-4.64c-.31-3.78-.64-7.55-1-11.46h-2.07c2.36-.84,4.08-2.55,6-3.93a55.55,55.55,0,0,1,7.54-4.84,14.76,14.76,0,0,1,6.5-1.7h6.42c0-1.05.15-1.22,1.14-1.23.16,0,.32,0,.48,0a3.42,3.42,0,0,1,3.08,1.12,2.61,2.61,0,0,0,2.13.82c3.7-.06,7.4-.05,11.1,0a10.26,10.26,0,0,1,7.26,2.72,7,7,0,0,1,.51.6h-.63a.79.79,0,0,0-.44,0l1.55.76c-.58.63-.58.63-.16,1.14l.28-.35.38-.5a9.17,9.17,0,0,1,.46,1.89,14.91,14.91,0,0,1-.23,5,6.36,6.36,0,0,1-.31.76c-.22.45-.47.43-.75,0,0,.17-.15.36-.1.41.55.61.17,1.12-.13,1.64a21.76,21.76,0,0,1-6.22,7.2,14.49,14.49,0,0,1-4.51,2.09,1.84,1.84,0,0,0-.61.27c.63,0,1.27,0,1.9.11a16,16,0,0,1,6.59,2.7A71.74,71.74,0,0,1,287.71,58c3.09,3.15,6.15,6.32,9.24,9.48,1,1,1.95,2,3.05,3.08a14.69,14.69,0,0,1-1.53.2c-2.26,0-4.53,0-6.79,0a3.45,3.45,0,0,1-2.63-1.06c-3.71-3.82-7.47-7.59-11.18-11.4a86,86,0,0,0-12-10.45C265.76,47.82,265.63,47.76,265.41,47.64Zm-30.23-6.79.22-.09c.13.77.25,1.53.39,2.3a56.33,56.33,0,0,0,2.6,10.69,11.66,11.66,0,0,0,2.49,4.17c.68-1.23,1.32-2.37,2-3.49a.78.78,0,0,0,1.24.25l-1-1.15s0-.08,0-.19a29.54,29.54,0,0,0,.61-9.74,7.63,7.63,0,0,0-.39-1.8,23.45,23.45,0,0,0-3.51-6.86,12.77,12.77,0,0,0-5.15-4.4c-.44-.2-.91-.35-1.5-.58l.17.53a48.69,48.69,0,0,1,1.79,8.7,2.73,2.73,0,0,1-.24.92l-.3.07Zm23-19.64c2.8,6,4.08,12.39,5.69,18.77a39.88,39.88,0,0,0,3-3.64A27.51,27.51,0,0,0,269,33a10.87,10.87,0,0,0,1-5.31,6.49,6.49,0,0,0-2.27-5.18C264.82,20,261.58,20.17,258.2,21.21Zm-6.66-1.77,1.76-.12,0-.16c-.4-.07,0-1-.79-.62A5.91,5.91,0,0,0,251.54,19.44ZM258.83,37l.33.13.37-.79.67.31.23-.81a5.41,5.41,0,0,0-1.22.43C259,36.43,259,36.78,258.83,37Zm-44.34,9.63-.41.07c.11.45.19.9.34,1.34,0,.07.32,0,.49.07v-.06l-.45-.35.19-.06Zm-4.2-39.37c-.7-.44-1.08-.24-1.39.33Z"/>
        <path class="73a5aa37-9a7c-4a38-b8f1-fe181e061014" d="M158.48,1.62l-.58.2.49.78.57-.16a7.19,7.19,0,0,1-.05,3.36,15.63,15.63,0,0,1-3.51,6.36,29.44,29.44,0,0,1-12.58,9,1.08,1.08,0,0,0-.81,1.07c-.21,3-.53,6-.66,9-.2,4.63-.27,9.27-.39,13.76-.35.15-.84.21-1,.46-.26.5-.28,1.14.41,1.4s.67.66.67,1.21c0,2.68,0,5.35,0,8a3.84,3.84,0,0,1-.19.88,2.91,2.91,0,0,1,.2.77c-.07,4.36-.14,8.72-.24,13.08,0,1.73-.12,3.46-.2,5.19,0,.36-.15.71-.17,1.07s.08.72.06,1.08c-.2,3-.42,6.08-.63,9.13,0,.43-.05.86-.11,1.29s-.13.82-.71.43c-.14-.1-.39-.06-.66-.09l.31.57-.18,0-.73,1.55c.54.1,1.16.3,1.72-.31-.15,1.13-.21,2.29-.46,3.4-.48,2.06-1,4.12-1.64,6.14a4.7,4.7,0,0,1-5,3.54c-.74,0-1.5,0-2.36,0,1-8.13,2.22-16.18,2.55-24.31.51,0,.88.18.66-.63-.14-.55-.75-.88-.58-1.57a10,10,0,0,0,.1-2c0-.64.13-1.27.15-1.91,0-2.07.07-4.15.14-6.22a8.76,8.76,0,0,1,.25-1.32,1.08,1.08,0,0,0,0-.4,59.28,59.28,0,0,1-.08-10c.09-3.18,0-6.37.15-9.54.24-5.54.58-11.08.94-16.62.1-1.63.41-3.25.62-4.9l-2.35.31a4.53,4.53,0,0,1-.74.08H118.18a7,7,0,0,1-5.81-3,2,2,0,0,0-.35-.41,3.92,3.92,0,0,1-1.68-4A22.4,22.4,0,0,1,111.77,11a1.11,1.11,0,0,1,.76-.51,63.45,63.45,0,0,1,9.55-.34,1.32,1.32,0,0,1,1.14,1.27c0,1.3.13,2.59.17,3.88,0,.49.39,1.12-.44,1.35-.06,0-.07.24-.09.37a4.33,4.33,0,0,0,1.27,3.84,2.77,2.77,0,0,0,1.75,1,23.36,23.36,0,0,0,8.78-.17,1,1,0,0,0,.92-1,43.32,43.32,0,0,1,4.95-14.42A15.54,15.54,0,0,1,145.45.83,3.12,3.12,0,0,1,147,.27c2.9,0,5.8,0,8.7.08A4.59,4.59,0,0,1,158.48,1.62ZM142.66,18a7.87,7.87,0,0,0,.67-.44c1.1-.85,2.18-1.72,3.28-2.58.24-.18.58-.25.78-.46s.5-.77.77-1.13c1.1-1.45,2.3-2.84,3.31-4.35a9.21,9.21,0,0,0,1.64-5.76,2.45,2.45,0,0,0-1.2-2.09c-.4-.26-.72-.33-1.08,0-.65.64-1.35,1.23-2,1.92C145.21,7.38,143.78,12.54,142.66,18Zm-17,4.49-.09.19c.36.16.73.49,1.07.46a24.32,24.32,0,0,0,2.62-.53l0-.12ZM137.94,30l.2-.25a3.09,3.09,0,0,0-.76-.61c-.17-.06-.44.16-.73.29Z"/>
        <path class="73a5aa37-9a7c-4a38-b8f1-fe181e061014" d="M146.09,49l-1-.07c1.22.17,1.25-.74,1.44-1.54,1-4.12,2-8.24,3.07-12.35a12.69,12.69,0,0,1,.75-1.8c0-.14-.2-.36-.15-.53,1-3.32,2-6.65,3-9.95.27-.86.73-1.65,1-2.5a5.36,5.36,0,0,0,.09-1.25h6.42c.75,0,1.5,0,2.25,0a1.12,1.12,0,0,1,1.22.77,14.5,14.5,0,0,1,1,2.53,21.79,21.79,0,0,0,1,2.56,6.59,6.59,0,0,1,.16,1c0,.09,0,.19,0,.26,1.2,1.86,1.52,4.05,2.25,6.09a4.35,4.35,0,0,1,.08,1c-.32.21-.75.49-.36,1l.76.14c0,.35-.08.72,0,.77.74.41.71,1.18.89,1.83.6,2.19,1.15,4.39,1.73,6.59.28,1.09.6,2.17.9,3.25a13,13,0,0,1,.41,1.6A11.9,11.9,0,0,1,173,50c1,.78,1.05,2.11,1.16,3.45a6.72,6.72,0,0,0,.54,1.47,9,9,0,0,1,.78,2.87c0,.73.39,1.12.53,1.68a12,12,0,0,1,.19,1.2,1.2,1.2,0,0,0,0,.27c.24.75.56,1.49.74,2.26.25,1,1.07,1.91.82,3.07,0,.09.17.2.21.32a4.91,4.91,0,0,1,.24.74c.07.29.1.59.16,1l-.48.05c-.05.23,0,.75-.64.32.16.43.16.43,1.67.06.56,1.9,1.13,3.82,1.69,5.73l-.08.09-.65-1-.64.9.68,0c-.05.09-.07.19-.1.19-.54.05-1.09.13-1.63.13-2.24,0-4.47,0-6.71-.08a.87.87,0,0,1-.7-.37c-.56-1.45-1.06-2.93-1.6-4.45l.57-.17-1.33-2.51c.26-.4.1-.64-.31-1.08a3.8,3.8,0,0,1-.81-2.11c0-.43.45-.92.74-1.46a2.14,2.14,0,0,0-.67-.27c-.71,0-.81-.49-.95-1-.22-.81-.47-1.62-.71-2.41.3-.25.58-.3.14-.83s-.4-1.41-.57-2.14c0-.06,0-.18,0-.2-1-.64-.77-1.84-1.18-2.75a7.85,7.85,0,0,1-.47-1.85,3,3,0,0,1,.16-.94l-.24-.43.16.07c.2-.39.41-.77.6-1.16.31-.63-.16-.83-.59-.79-.6,0-.8-.08-.47-.8-.63.23-1.14.39-1.63.58a19.78,19.78,0,0,1-7,1.46.68.68,0,0,0-.53.35c-.88,2.71-1.69,5.44-2.59,8.14a14.29,14.29,0,0,1-2.4,4.73,1.73,1.73,0,0,1-1.07.6c-1.18.09-2.36.07-3.55.06-.2,0-.4-.2-.71-.36l-.23.21a13.59,13.59,0,0,1,0-2.31c.28-1.6.66-3.17,1-4.75.05-.22.29-.4.4-.56a4.07,4.07,0,0,1,0-1.05c.29-1.43.62-2.85.94-4.27C146,49.56,146,49.32,146.09,49ZM158.66,33c-1.18,4.29-2.35,8.56-3.54,12.92a1.89,1.89,0,0,0,.38-.09c2.13-1.08,4.26-2.15,6.35-3.29.23-.13.92-.27.67-.87l-1.34-.22c.24-.41.63-.76-.08-.86-.08,0-.14-.23-.17-.36a8,8,0,0,0-.16-.85c-.4-1.31-.84-2.6-1.22-3.91-.05-.16.12-.39.15-.49C159.36,34.29,159,33.66,158.66,33Zm-5.12-6.66,1.21.06a1.17,1.17,0,0,0-1.41-.24,1.25,1.25,0,0,0-.78,1l.2.13Z"/>
        <path class="73a5aa37-9a7c-4a38-b8f1-fe181e061014" d="M150.17,81.36c-.14-.35-.31-.7-.42-1.06a1.35,1.35,0,0,1,0-.49,1.86,1.86,0,0,1,.53.12c.13,0,.22.19.39.35-.58.08-.78.29-.29.72.05,0,0,.26,0,.39Z"/>
        <path class="73a5aa37-9a7c-4a38-b8f1-fe181e061014" d="M152.72,89.79h-1.07v-.16h1.08Z"/>
      </g>
    </g>
  </g>
</svg>
