<svg xmlns="http://www.w3.org/2000/svg" xmlns:xlink="http://www.w3.org/1999/xlink" viewBox="0 0 135.88 135.88">
  <defs>
    <style>
      .f8165d64-64e5-4077-b1e8-4d6446ffd42a {
        fill: none;
      }

      .\32 822b1d8-2239-4c7c-9fdd-79118bc33462 {
        clip-path: url(#ae366b71-beef-4a3d-991e-27692c568ede);
      }

      .\32 21b946a-ddb2-4140-b0b5-a34710d92fca {
        fill: #fffdf8;
      }

      .d3f5a570-f8f3-4e71-90b6-7ab8430262bb {
        fill: #f7f6ef;
      }

      .\32 7e75a96-3bd2-46b3-9383-48d85cab366c {
        fill: #b9b934;
      }
    </style>
    <clipPath id="ae366b71-beef-4a3d-991e-27692c568ede">
      <circle class="f8165d64-64e5-4077-b1e8-4d6446ffd42a" cx="67.94" cy="67.94" r="52.7"/>
    </clipPath>
  </defs>
  <title>Logo-CirclesIncluded</title>
  <g id="156592da-d75c-4ab2-91c9-92d3769986c0" data-name="Layer 2">
    <g id="062aa1e8-b57e-47c6-9d5a-8687b0b4fac7" data-name="Layer 1">
      <g>
        <g class="2822b1d8-2239-4c7c-9fdd-79118bc33462">
          <circle class="221b946a-ddb2-4140-b0b5-a34710d92fca" cx="67.94" cy="67.94" r="52.7"/>
        </g>
        <path class="d3f5a570-f8f3-4e71-90b6-7ab8430262bb" d="M67.94,135.88a67.94,67.94,0,1,1,67.94-67.94A68,68,0,0,1,67.94,135.88ZM67.94,1a66.94,66.94,0,1,0,66.94,66.94A67,67,0,0,0,67.94,1Z"/>
        <path class="d3f5a570-f8f3-4e71-90b6-7ab8430262bb" d="M67.94,127.39a59.45,59.45,0,1,1,59.45-59.45A59.51,59.51,0,0,1,67.94,127.39Zm0-116.89a57.45,57.45,0,1,0,57.45,57.44A57.51,57.51,0,0,0,67.94,10.5Z"/>
      </g>
      <g id="a9487ff5-9265-4fa8-8de3-6276f346b62d" data-name="h77Aio.tif">
        <g>
          <g>
            <path class="27e75a96-3bd2-46b3-9383-48d85cab366c" d="M46.73,41.23c0,.5,0,1,0,1.42s.08,1.1.12,1.65c0,.26.13.55-.16.75-.05,0-.05.16,0,.24,0,.44-.07.9.31,1.26.06.05.06.21,0,.3a2,2,0,0,1-.17.48,1.25,1.25,0,0,0-.08.63c0,.18-.17.35-.28.54l.25.22-.62.34a.55.55,0,0,1-.22,0,2.45,2.45,0,0,0,.08.29,3.41,3.41,0,0,1,.18.48.58.58,0,0,0,.73,0c.15-.12.35-.09.33.21,0,.1.06.2.06.29a2.54,2.54,0,0,1,0,.68.48.48,0,0,0,.06.43,5.6,5.6,0,0,1,.22.94c.12.48-.17,1,.06,1.45a.36.36,0,0,1-.28.49,2.56,2.56,0,0,1-.53.09c-1.58,0-3.15.07-4.73,0-1,0-1.05,0-1.39-1.12a8.12,8.12,0,0,1-.14-1.23c0-.33-.16-.65-.19-1a9.91,9.91,0,0,1,0-1.08l.62-.41v-.13l-.75-.13a.67.67,0,0,1,.13-.72.33.33,0,0,0,.06-.29,6.8,6.8,0,0,1-.32-.81,4.85,4.85,0,0,1,0-1c0-.09.06-.17,0-.26a.89.89,0,0,1,.52-.83c-.08-.09-.14-.19-.21-.27s-.28-.21-.14-.42c0,0,0-.1,0-.14-.11-.24-.22-.49-.34-.72s-.14-.43.29-.37c-.3-.63.36-.49.55-.76-.16-.16-.31-.25-.54-.13s-.45,0-.47-.33c0-.45,0-.91,0-1.37h.12l0,.34H40c0-.21,0-.46-.06-.61a2.68,2.68,0,0,1-.35-1.81c0-.23,0-.52.06-.66a1.64,1.64,0,0,0,.27-1.15c0-.16.14-.31.17-.48A4.54,4.54,0,0,0,40,36l-.7,0c0-.34,0-.7.09-1.06,0-.08.17-.13.28-.21a.25.25,0,0,0-.08-.11c-.11-.11-.32-.2-.32-.31a2,2,0,0,1,.14-.71,1.19,1.19,0,0,1,.25-.47c.15-.16.21-.44.56-.41.13,0,.36-.2.42-.36s-.08-.32-.15-.55l-.82.85-.11,0-.08-.4c-.37-.1-.44-.26-.33-.63a1,1,0,0,0,0-.39c0-.49-.1-1-.14-1.46s0-.75,0-1.12a3.25,3.25,0,0,1,.14-.58l.1,0a2.1,2.1,0,0,1-.29-.49,3.09,3.09,0,0,1,0-.61c0-.48-.06-1-.11-1.43s.33-.32.52-.44.09-.11.14-.16l-.1-.08c-.15-.2-.22-.38-.35-.44a.54.54,0,0,1-.31-.58c0-.24,0-.48,0-.72a.77.77,0,0,1,.13-.42.41.41,0,0,0,0-.58c-.25-.33-.2-.46.12-.73a2.29,2.29,0,0,0,.32-.61A.66.66,0,0,1,38.5,20c0-.95,0-1.91.16-2.85a1.29,1.29,0,0,1,1.62-.87c.17.09.26.34.38.52s.17.25.25.37l.09-.06-.16-.33.46-.33a1.26,1.26,0,0,1,1.31.11,2.72,2.72,0,0,1,1,1.48c.14.45.36.86.48,1.31.27,1,.51,1.94.74,2.92a2.44,2.44,0,0,1,0,.6c0,.06,0,.15,0,.2a2.79,2.79,0,0,1,.34,2.13,3.81,3.81,0,0,0,0,.68l-.25-.8-.82.65.82.48c.45-.13.6,0,.65.44s.13.93.17,1.4a.8.8,0,0,1-.09.46c-.28.43-.29.42.14.76A2.35,2.35,0,0,0,46,29c.58-.88,1.14-1.76,1.73-2.63,1.25-1.86,2.5-3.71,3.77-5.55a3.12,3.12,0,0,1,.69-.54c.05,0,.12-.13.11-.16-.17-.3.07-.46.22-.6.6-.55,1.22-1.09,1.83-1.61a.61.61,0,0,1,.36-.13c.68,0,1.36,0,2,0,.37,0,.51.25.6.55a2.31,2.31,0,0,1-.05,1.47c-.3.86-.64,1.71-1,2.53s-.78,1.62-1.2,2.41-.75,1.27-1.12,1.9c-.22.37-.42.75-.63,1.13-.76,1.37-1.5,2.75-2.3,4.1-.51.86-1.09,1.69-1.67,2.51-.36.5-.78.95-1.21,1.47a2.24,2.24,0,0,0,.3.33c2.76,2.52,5.53,5,8.28,7.56,1.28,1.17,2.58,2.34,3.78,3.6,2,2,3.85,4.13,5.74,6.23.68.76,1.29,1.59,1.93,2.4.4.5.8,1,1.19,1.51a4.1,4.1,0,0,1,.92,1.88c.16,1.12-.49,1.61-1.48,1.64a7.11,7.11,0,0,1-3.69-1,9.1,9.1,0,0,1-2.89-2.49c-1-1.31-2.1-2.59-3.08-3.93-.49-.69-1.16-1.2-1.67-1.86s-1.12-1.25-1.69-1.87c-2.16-2.36-4.52-4.52-6.88-6.68-.62-.57-1.24-1.16-1.86-1.74A3.47,3.47,0,0,0,46.73,41.23Zm8-16.89c-.15.1-.24.18-.35.24s-.36.43-.7.29c0,0-.11,0-.26,0,.42.26.7.65,1.15.37ZM46.18,45.16l.29.57C46.63,45.26,46.54,45.11,46.18,45.16Z"/>
            <path class="27e75a96-3bd2-46b3-9383-48d85cab366c" d="M70.66,38c.52,1.62,1,3.2,1.53,4.79A17.74,17.74,0,0,1,72.78,45a10.55,10.55,0,0,1,0,1.7,5.38,5.38,0,0,0-.67-.14,1.18,1.18,0,0,0-.37,0c-.16.05-.31.17-.46.17-.67,0-1.34-.06-2-.07a1.28,1.28,0,0,1-1.19-.88,6.6,6.6,0,0,1-.35-1,2.41,2.41,0,0,1-.37-.55c-.53-1.51-1-3-1.55-4.55l-.11-.28-2.81.8a2.3,2.3,0,0,1-.35.1,1.32,1.32,0,0,0-1.39,1.33.92.92,0,0,1-.88.68q-.75,0-1.5-.06a.77.77,0,0,1-.73-.61c-.2-.74-.21-.73-1-.75a1.38,1.38,0,0,1-.49-.06c.29-.14.58-.3.89-.42a.31.31,0,0,0,.24-.37,36.59,36.59,0,0,1-.05-7.25,14.69,14.69,0,0,1,.91-4.38,2.7,2.7,0,0,1,.4-.67c.08-.1.25-.13.39-.21s.31-.22.47-.23c1.46,0,2.93,0,4.39,0a1.76,1.76,0,0,1,1.23.52,10.66,10.66,0,0,1,2.33,3.2c.73,1.56,1.4,3.15,2.08,4.73.09.22.18.25.42.23C71.21,36,72.12,36,73,36a.45.45,0,0,1,.32.2.66.66,0,0,1-.32,1C72.26,37.45,71.48,37.71,70.66,38Zm-5.44-.21a71,71,0,0,0-2.87-7.39A48.25,48.25,0,0,0,61.63,39Z"/>
            <path class="27e75a96-3bd2-46b3-9383-48d85cab366c" d="M74.21,24.51c-.69.1-1.35.16-2,.28-1.41.25-2.81.59-4.23.78a13.53,13.53,0,0,1-2.62,0c.72-.19,1.43-.42,2.15-.55,1.72-.31,3.45-.57,5.18-.87.49-.08,1-.25,1.46-.36.21-.05.29-.18.37-.38.27-.77.55-1.53.88-2.27a5.48,5.48,0,0,1,.75-1.1,2.79,2.79,0,0,1,2.42-1.09c.94.06,1.89,0,2.84,0a2.69,2.69,0,0,1,.84.14c.35.12.38.34.17.64-.07.1-.11.34-.05.39.21.17.06.3,0,.43a4.74,4.74,0,0,1-1.77,1.81,25.82,25.82,0,0,1-2.52,1.27.48.48,0,0,0-.34.43,34,34,0,0,0-.15,5.53c0,.79,0,1.58,0,2.39l-.35.12.34.53,0-.05.93,9.3c.22,2.32.45,4.64.66,7a4.31,4.31,0,0,1-.11.86s0,.08,0,.1a2.83,2.83,0,0,1,.06,1.86,1.36,1.36,0,0,1-1.06,1.23A8.3,8.3,0,0,1,75.4,53c0-.17.14-.32.1-.42a9.46,9.46,0,0,1-.38-2.54c0-.78-.18-1.56-.26-2.34-.15-1.45-.3-2.9-.44-4.35-.07-.78-.11-1.56-.17-2.34-.15-1.82-.37-3.64-.46-5.47a61.37,61.37,0,0,1,.31-10.32C74.12,25,74.16,24.81,74.21,24.51Zm1.48,3.18.06-.14a2,2,0,0,1-.42-.4c-.17-.3-.4-.06-.6-.11,0,.15,0,.31,0,.47s0,.22,0,.41Z"/>
            <path class="27e75a96-3bd2-46b3-9383-48d85cab366c" d="M89.38,27a3.64,3.64,0,0,0-.53.31.66.66,0,0,0,.15.32s.17,0,.29,0l.21.27.25-.47a.6.6,0,0,1-.26.85,2.66,2.66,0,0,1-.13.65A20.09,20.09,0,0,1,85,34.13a1.77,1.77,0,0,0-.69,1.73,12.27,12.27,0,0,0,4.31,8c.53.47.41.47,1-.08a8.14,8.14,0,0,0,1.64-3c.13-.34.15-.73.26-1.07s.39-.61.36-.89a2.09,2.09,0,0,1,0-.79c.08-.25.22-.49.29-.75s0-.43.07-.64.23-.66.3-1,.07-.69.11-1a4.68,4.68,0,0,1,.07-.54c.07-.24.3-.37.47-.23a6.38,6.38,0,0,1,.74.86h-.55v.1c.06,0,.12.08.18.07.46-.07.61.24.78.58s.33.36.71,0v.89c0,.28.08.45.47.28-.06.61-.1,1.16-.17,1.71s-.16,1.15-.22,1.73,0,1.31-.66,1.74l.17.12.21-.33.07,0c-.11.3-.23.6-.34.91,0,.12-.06.26-.1.38a3.33,3.33,0,0,1-2.86,2.14,37.93,37.93,0,0,0-4.13,0,5.36,5.36,0,0,1-4.12-1.81,11.27,11.27,0,0,1-2.35-3.69c-.06-.15,0-.34-.07-.5s-.21-.31-.26-.49c-.18-.68-.34-1.36-.5-2a1.62,1.62,0,0,0,0-.19l-.48-.06s0-.08,0-.08c.45-.17.48-.53.49-.95a11.9,11.9,0,0,1,1-4.77,6.65,6.65,0,0,1,3.42-3.35,3.36,3.36,0,0,1,1.22-.24c1.12,0,2.25,0,3.38,0A1,1,0,0,1,89.38,27Zm-2.6.94a6,6,0,0,0-2.28,3.69A10.16,10.16,0,0,0,86.78,27.9Z"/>
          </g>
          <g>
            <path class="27e75a96-3bd2-46b3-9383-48d85cab366c" d="M63.55,126.09a2.66,2.66,0,0,0-.39-.07c-.48,0-1,0-1.44,0a2.26,2.26,0,0,1-1.27-.31,10.13,10.13,0,0,0-1.29-.61,2.18,2.18,0,0,1-1-1,1.34,1.34,0,0,0-.16-.23,31.43,31.43,0,0,1-5.33-7c-1-1.79-1.93-3.66-2.89-5.5-.14-.26-.33-.49-.46-.75-.06-.11,0-.28,0-.39-.15-.37-.33-.73-.51-1.1,0-.06-.11-.12-.1-.17,0-.3-.13-.38-.38-.39a1.08,1.08,0,0,1-.23-.09l.46-.22L47.8,108l.44-.13,0-.11-.59-.33.29-.13c.08-.16-.38-.87-.7-1.06l.17-.43-.24-.1s0-.07,0-.08c.23-.23.21-.39-.07-.55a.28.28,0,0,1-.13-.21c0-.29-.17-.4-.44-.41a4,4,0,0,1-.5-.06v-.11l.57-.06c.37-.79-.22-1.32-.46-2l-.11.18s0,.06-.12.12l-.21-.71c.3,0,.25-.17.16-.37-.24-.56-.49-1.13-.71-1.71a.48.48,0,0,1,.1-.39.76.76,0,0,0,.1-.82l.08-.06a1.28,1.28,0,0,1,.31.35c.35.75.68,1.51,1,2.26.06.13.15.26.22.38h.09l.1-.32.73,1.49-.43,0,0,.12.61.17-.43.1c.12.31.17.62.62.64.13,0,.25.26.41.43l-.31.14s0,.08,0,.08c.53,0,.51.5.7.79a10.79,10.79,0,0,1,.56,1.13.53.53,0,0,1,0,.22c0,.09,0,.25,0,.26.44.14.48.57.64.88a73,73,0,0,0,5.6,8.65,51.93,51.93,0,0,0,5.39,6.36,3.26,3.26,0,0,0,.65.41l1.34.89c.27.18.54.36.79.56a.49.49,0,0,0,.66,0c.19-.14.39-.27.57-.43.74-.66,1.5-1.3,2.2-2a13.15,13.15,0,0,0,1.2-1.48c.34-.47.62-1,1-1.46a3.21,3.21,0,0,1,.51-.46l.06.08s0,0,0-.06c-.14-.88.6-1.32,1-1.94.11-.19.23-.38.35-.57s0-.12.09-.15c.23-.11.44-.21.06-.41,0,0,0-.11,0-.17,0-.69.06-1.38.14-2.07a5.12,5.12,0,0,1,.24-.85.84.84,0,0,0,.09-.37c0-.07-.15-.12-.22-.2a.24.24,0,0,1-.09-.18c0-.28-.18-.62.2-.82,0,0,0-.08,0-.09-.21-.3,0-.51.17-.72-.26-.2.14-.65-.3-.8-.07,0-.11-.24-.11-.36,0-.41-.14-.82.14-1.22.1-.16,0-.45,0-.68v-.2l.3-.09c-.07-.07-.13-.17-.21-.2a.46.46,0,0,1-.29-.43c-.06-.4-.19-.78-.25-1.18a5.75,5.75,0,0,1,0-.83,3.86,3.86,0,0,0-.09-.49c.32-.15.3-.14,0-.39a1,1,0,0,1-.21-.47c-.08-.37-.14-.74-.21-1.12s-.12-.57.31-.72l-.3-.15c.12-.2.18-.39-.11-.51-.08,0-.12-.17-.14-.27-.11-.49-.16-1-.3-1.47a1.86,1.86,0,0,1,.26-1.53l-.45,0a1.8,1.8,0,0,1-.15-.6c0-.16.19-.3.3-.47l-.46-.06c-.12-.64-.25-1.28-.37-1.92,0,0,0-.12.09-.16a.36.36,0,0,0,0-.54,1,1,0,0,1-.39-1.1l.21.14,0,0-.47-.6c.13-.12.3-.2.29-.26a.56.56,0,0,0-.21-.33.75.75,0,0,1-.22-1.12c-.26-.2-.4-.41-.16-.75.09-.12,0-.4-.09-.6-.1-.35-.22-.71-.31-1s-.34-.25-.37-.38c-.06-.3,0-.62-.07-.93a.48.48,0,0,0-.07-.23,5.2,5.2,0,0,1-.32-.62c-.12-.35-.19-.72-.3-1.17l-.29.44a1.12,1.12,0,0,1-1,.59H61.33a2,2,0,0,1-1.53-.67,5.94,5.94,0,0,1-1.27-2.09c-.05-.12.13-.3.15-.46a.88.88,0,0,0-.09-.54c-.06-.1-.29-.07-.54-.11a9.85,9.85,0,0,1-.32-1c0-.16.1-.35.09-.52s-.08-.4-.19-.45c-.29-.13-.32-.35-.33-.61s-.26-.38.06-.61c.13-.09,0-.52,0-.82l-.36.08a3.88,3.88,0,0,1-.16-.63.48.48,0,0,1,.13-.34c.26-.28.27-.46,0-.7,0,0-.08-.11-.07-.14.08-.22,0-.31-.22-.32,0,0-.12-.15-.12-.23-.28-2.49-.55-5-.82-7.46a1.21,1.21,0,0,1,0-.46.55.55,0,0,1,.6-.44c.63,0,1.27,0,1.9,0A1.48,1.48,0,0,1,59.66,68a1.73,1.73,0,0,0,.14.42c.15.35.47.66.18,1.1a.32.32,0,0,0,.09.29c.33.06.32.34.37.55a6.82,6.82,0,0,1,.39,2c0,.46.29.75.27,1.14a10,10,0,0,0,.4,1.94,2.75,2.75,0,0,1,0,.47,3.54,3.54,0,0,1,.36,2.63c.36-.07.45.15.5.41s.13.75.21,1.12a3.36,3.36,0,0,0,.22.42c.25.62.5,1.23.74,1.85h.11c.12-.45.26-.9.37-1.35a29.58,29.58,0,0,0,.7-7.14,16,16,0,0,0-.44-2.32c-.06-.3-.25-.62,0-.94l.21-.27c-.13-.3-.06-.81-.6-1,0-.86,0-1.73,0-2.6,0-.13.15-.26.27-.46h4.16c.28,0,.24.2.26.37.14,1.19.26,2.38.43,3.56.08.54.32,1.06.38,1.6.08.75.44,1.41.57,2.13a3.08,3.08,0,0,1,0,.53.33.33,0,0,0,0,.14,2,2,0,0,1,.37,1.41.18.18,0,0,0,0,.16c.47.48.37,1.16.6,1.73a4.11,4.11,0,0,1,.23.85c0,.11,0,.24-.06.36l-.39-.11c0,.49.5.61.72.95l-.25.32.1,0c.13.25.27.51.39.77a1.74,1.74,0,0,1,.23.55c.06.76.47,1.42.59,2.16a3.1,3.1,0,0,1,.15,1.25c0,.18.13.39.19.59a1.42,1.42,0,0,1,.05.22c0,.06,0,.16,0,.19.48.54.43,1.25.61,1.89,0,.1-.14.26-.21.39l-.13.22.08.06.35-.37c.2.84.39,1.6.54,2.36a4.52,4.52,0,0,1,.06,1.1c0,.14-.15.27-.25.41l.12,0,.33-.14a1.42,1.42,0,0,1,.15.42,2.28,2.28,0,0,1-.08.52l-.64.22a.45.45,0,0,0,.68,0l.25.24-.25.19a4,4,0,0,1,.66,2.85L75,96.05l0,.56.27-.1c.15.4.29.78.42,1.17,0,0,0,.09,0,.13-.16.76.34,1.39.4,2.1s.24,1.44.32,2.16a4.58,4.58,0,0,1-.07,1l-.41-.16.07.47.32,0c.18,0,.27,0,.28.26s.09.57-.29.77c-.18.1-.1.38.09.58l.1-.22a1.85,1.85,0,0,1,.3.57,2.1,2.1,0,0,1,0,.86A3,3,0,0,0,77,107.4a.55.55,0,0,1-.1.63l-.26,0c0,.1,0,.26,0,.29.57.33.44.89.45,1.4s0,1.12,0,1.68,0,1.17,0,1.76c0,.4,0,.8,0,1.2,0,.08-.15.19-.25.23a3,3,0,0,0-.51.17l.2.05c.12.24.23.43.31.63a.78.78,0,0,1,.07.42c-.11.47-.24.93-.37,1.39-.18.62-.31,1.27-.55,1.87a19.94,19.94,0,0,1-1.28,2.82,9.41,9.41,0,0,1-2.42,3,8.58,8.58,0,0,1-1.27.82,3.16,3.16,0,0,1-1.06.25c-.47,0-1,0-1.43,0a3.4,3.4,0,0,0-.46.07Z"/>
            <path class="27e75a96-3bd2-46b3-9383-48d85cab366c" d="M105.5,81.56c.17.77.34,1.48.48,2.2,0,.3.25.6,0,.94,0,0,.14.22.19.35s.29.46-.06.68c.42.13.35.51.41.8.17.73.28,1.48.45,2.21s.4,1.52.61,2.28l1.56,5.87c.1.38.08.42-.32.42-1.31,0-2.63,0-4,0a.53.53,0,0,1-.61-.43c-.47-1.67-1-3.33-1.39-5-.34-1.29-.65-2.6-1-3.9-.13-.56-.18-1.14-.3-1.7s-.34-1.36-.48-2c-.05-.23-.21-.47.08-.71.08-.06,0-.39-.06-.54a1.55,1.55,0,0,1-.39-.88,10.9,10.9,0,0,0-.4-1.83c0-.18-.07-.37-.11-.58l-.88-.09v0l.86,0c-.08-.46-.16-.9-.23-1.34-.18-1.12-.34-2.25-.55-3.36s-.42-1.91-.64-2.86c-.28-1.17-.56-2.34-.83-3.52-.08-.32-.16-.63-.63-.54l.46-.26a1.88,1.88,0,0,0-.41-.22,8.29,8.29,0,0,0-.86,0c-.08,0-.18,0-.21,0-.31-.34-.61-.09-.86,0a26.05,26.05,0,0,0-2.64,1.46c-1.43,1-2.82,2-4.21,3.11h1.55a5.77,5.77,0,0,1,3.91,1.49,11.43,11.43,0,0,1,2.46,3.38,9.31,9.31,0,0,1,1,4.69.86.86,0,0,1-.29.66.4.4,0,0,0,.07.67.38.38,0,0,1,.16.3,7,7,0,0,1-1.33,3.92,1.79,1.79,0,0,1-1.44.76c-1.41,0-2.83,0-4.24,0a3.2,3.2,0,0,1-2.71-1.7c-.07-.12-.14-.24-.27-.43,0,.62,0,1.14,0,1.66,0,.7,0,1.41,0,2.11,0,.53,0,1.06,0,1.58a21.84,21.84,0,0,1-.88,5.26,3.29,3.29,0,0,1-.44,1,1,1,0,0,1-.66.34c-1.52,0-3,0-4.56,0a1.61,1.61,0,0,1-1.37-.84,1.19,1.19,0,0,1-.07-.31c-.07-.08-.23-.17-.28-.3-.31-.89-.6-1.78-.89-2.68L78.23,93l.51-.41-.06-.07-.46.17c-.16-.54-.33-1-.43-1.53s-.3-.82,0-1.24c0,0,0-.23-.06-.23-.34,0-.32-.31-.33-.51,0-.53,0-1.07,0-1.62l-.19.06c-.29-.72-.29-1.53,0-1.64-.14-.28-.1-.59-.41-.85s-.11-.67-.12-1c0-.09.1-.18.1-.19a2.24,2.24,0,0,1-.26-.56c-.08-.64-.14-1.28-.17-1.93,0-.13.13-.28.14-.42a.91.91,0,0,0-.07-.43c-.09-.24-.21-.46-.33-.72l.23-.06a2.71,2.71,0,0,1-.21-.58c-.14-1.17-.26-2.35-.39-3.52-.08-.85-.16-1.69-.23-2.54a1.41,1.41,0,0,1,.06-.37c-.08-.44-.17-.8-.21-1.18-.13-1-.22-2.07-.35-3.1-.18-1.39-.39-2.78-.57-4.16-.11-.79-.2-1.57-.28-2.35a11.94,11.94,0,0,1,.49-4.37c.15-.59.39-.73,1.07-.73s.82.13,1,.73c.25,1,.43,2,.68,2.94s.64,2.23.94,3.35.67,2.49.94,3.75c.08.38-.09.8.25,1.12q.44,2.61.85,5.24c0,.07,0,.17,0,.21-.27.36,0,.75-.07,1.11a4.86,4.86,0,0,0,0,.54,1.16,1.16,0,0,1,.35.84.93.93,0,0,0,0,.37c0,.25.12.49.16.73.09.58.16,1.16.24,1.81l-.32-.19-.09.5.33.12,0,.77.08,0c.07.1.19.2.22.32.07.34.11.68.15,1s.11.55-.22.72c0,0,0,.24,0,.26.64.33.49,1,.58,1.5.15.88.19,1.77.35,2.65.3,1.65.68,3.28,1,4.93.08.49.33.9.37,1.38h.1c.15-.49.31-1,.45-1.48a57.64,57.64,0,0,0,1.61-8.54c.13-1,.29-1.92.33-2.89a19.81,19.81,0,0,0-.15-2.43c-.16-2-.34-4-.51-6H84.17a12.88,12.88,0,0,0,3.15-2.06,29.28,29.28,0,0,1,4-2.54,7.82,7.82,0,0,1,3.41-.89h3.37c0-.55.08-.64.6-.64a2.09,2.09,0,0,0,.25,0,1.8,1.8,0,0,1,1.62.59,1.38,1.38,0,0,0,1.11.43c1.94,0,3.89,0,5.83,0a5.38,5.38,0,0,1,3.81,1.42c.08.08.14.17.26.32h-.33a.39.39,0,0,0-.23,0l.82.39c-.31.34-.31.34-.09.6l.15-.18.2-.26a5.2,5.2,0,0,1,.24,1,7.81,7.81,0,0,1-.12,2.64c-.05.13-.1.27-.16.4s-.25.22-.4,0c0,.09-.07.19-.05.22.29.32.09.59-.07.86a11.4,11.4,0,0,1-3.26,3.78,7.76,7.76,0,0,1-2.37,1.1.83.83,0,0,0-.32.14c.33,0,.67,0,1,0A8.56,8.56,0,0,1,110,81a37.83,37.83,0,0,1,7.19,6c1.62,1.65,3.23,3.32,4.85,5,.5.52,1,1,1.6,1.62a6.85,6.85,0,0,1-.81.1c-1.18,0-2.37,0-3.56,0a1.8,1.8,0,0,1-1.38-.56c-1.94-2-3.92-4-5.86-6a45.59,45.59,0,0,0-6.3-5.48ZM89.63,78l.12,0c.07.4.13.8.21,1.2a29.24,29.24,0,0,0,1.36,5.61A6.09,6.09,0,0,0,92.63,87l1-1.83c.19.26.4.32.65.13l-.54-.6a.35.35,0,0,1,0-.1,15.42,15.42,0,0,0,.32-5.11,4.27,4.27,0,0,0-.21-.94,12.15,12.15,0,0,0-1.84-3.6,6.64,6.64,0,0,0-2.7-2.31c-.23-.11-.48-.19-.79-.31l.09.28a26.18,26.18,0,0,1,.94,4.56,1.38,1.38,0,0,1-.13.49l-.15,0Zm12.09-10.31a54.08,54.08,0,0,1,3,9.85,19,19,0,0,0,1.6-1.91,15.16,15.16,0,0,0,1.09-1.76,5.69,5.69,0,0,0,.53-2.79,3.41,3.41,0,0,0-1.19-2.71C105.19,67.06,103.49,67.14,101.72,67.69Zm-3.5-.93.92-.06,0-.09c-.21,0,0-.53-.41-.32A3,3,0,0,0,98.22,66.76ZM102.05,76l.17.07.2-.42.34.16.12-.42a2.87,2.87,0,0,0-.63.23C102.14,75.68,102.11,75.86,102.05,76ZM78.78,81l-.21,0c.05.23.1.47.17.7,0,0,.17,0,.26,0v0l-.24-.19.1,0Zm-2.2-20.65c-.37-.23-.57-.13-.73.17Z"/>
            <path class="27e75a96-3bd2-46b3-9383-48d85cab366c" d="M49.39,57.41l-.3.1.25.41.3-.08a3.61,3.61,0,0,1,0,1.76,8.14,8.14,0,0,1-1.84,3.34,15.49,15.49,0,0,1-6.59,4.7.56.56,0,0,0-.43.56c-.11,1.57-.28,3.15-.35,4.73-.1,2.43-.14,4.86-.2,7.22-.19.08-.44.11-.51.23a.47.47,0,0,0,.21.74c.32.12.35.35.35.64,0,1.4,0,2.8,0,4.21a1.9,1.9,0,0,1-.1.46,1.31,1.31,0,0,1,.1.4q0,3.44-.12,6.87c0,.9-.06,1.81-.11,2.72,0,.19-.08.37-.09.56s0,.38,0,.56c-.1,1.6-.21,3.2-.32,4.79,0,.23,0,.46-.06.68s-.07.43-.37.23c-.08-.06-.21,0-.35,0l.16.3-.09,0-.39.82c.29,0,.61.16.91-.17a17.52,17.52,0,0,1-.25,1.79c-.25,1.08-.52,2.16-.86,3.22A2.46,2.46,0,0,1,35.71,111c-.39,0-.78,0-1.23,0,.52-4.27,1.16-8.5,1.33-12.76.27,0,.46.09.35-.34-.08-.28-.39-.45-.3-.82a6,6,0,0,0,0-1c0-.33.06-.66.07-1,0-1.09,0-2.17.08-3.26a4.19,4.19,0,0,1,.13-.69.78.78,0,0,0,0-.21,31.62,31.62,0,0,1-.05-5.24c.05-1.67,0-3.34.08-5,.13-2.91.31-5.82.49-8.72.06-.86.22-1.71.33-2.58l-1.23.17a2.58,2.58,0,0,1-.39,0H28.25A3.69,3.69,0,0,1,25.2,68a.82.82,0,0,0-.19-.22,2.07,2.07,0,0,1-.88-2.11,11.77,11.77,0,0,1,.75-3.32.57.57,0,0,1,.4-.26,32.25,32.25,0,0,1,5-.18.7.7,0,0,1,.6.66c0,.68.07,1.36.09,2,0,.25.21.58-.23.71,0,0,0,.12-.05.19a2.29,2.29,0,0,0,.67,2,1.45,1.45,0,0,0,.91.53A12.12,12.12,0,0,0,36.89,68a.52.52,0,0,0,.48-.5A22.84,22.84,0,0,1,40,59.89,8.27,8.27,0,0,1,42.55,57a1.73,1.73,0,0,1,.83-.29c1.52,0,3,0,4.57,0A2.46,2.46,0,0,1,49.39,57.41ZM41.09,66c.16-.11.26-.16.35-.23l1.72-1.36c.13-.09.31-.13.41-.24s.26-.4.41-.59c.58-.76,1.2-1.49,1.73-2.29a4.87,4.87,0,0,0,.87-3A1.29,1.29,0,0,0,46,57.2c-.21-.14-.38-.18-.57,0-.34.34-.71.65-1,1C42.43,60.43,41.68,63.14,41.09,66Zm-8.92,2.35-.05.1c.19.09.39.26.56.24a13,13,0,0,0,1.38-.28v-.06Zm6.44,3.94.11-.13a1.31,1.31,0,0,0-.4-.32c-.09,0-.23.08-.38.15Z"/>
            <path class="27e75a96-3bd2-46b3-9383-48d85cab366c" d="M42.89,82.28l-.54,0c.63.08.65-.4.75-.81.53-2.16,1.06-4.33,1.61-6.48a5.63,5.63,0,0,1,.4-.95c0-.07-.11-.19-.08-.28.52-1.74,1-3.48,1.58-5.22.15-.45.39-.86.55-1.31a2.68,2.68,0,0,0,.05-.66h3.36c.4,0,.8,0,1.19,0a.59.59,0,0,1,.64.41,8.72,8.72,0,0,1,.54,1.32,13.47,13.47,0,0,0,.51,1.35,2.34,2.34,0,0,1,.08.52c0,.05,0,.1,0,.13a14.64,14.64,0,0,1,1.18,3.2,2.07,2.07,0,0,1,.05.53c-.17.11-.4.26-.2.51l.41.07c0,.18-.05.37,0,.4.39.22.38.62.47,1,.32,1.15.6,2.31.91,3.46.15.57.31,1.14.47,1.71a6.1,6.1,0,0,1,.22.84,6.67,6.67,0,0,1,0,.86c.53.4.55,1.1.61,1.81a4,4,0,0,0,.28.77,4.74,4.74,0,0,1,.41,1.5c0,.39.2.59.28.89a6.37,6.37,0,0,1,.1.63s0,.09,0,.14c.13.39.3.78.39,1.18s.56,1,.44,1.62c0,0,.08.1.11.16a2.91,2.91,0,0,1,.12.39c0,.15,0,.31.09.52l-.26,0c0,.12,0,.4-.33.17.08.23.08.23.87,0l.89,3,0,0-.35-.55-.33.47.36,0s0,.1-.06.1a7.91,7.91,0,0,1-.85.06c-1.17,0-2.35,0-3.52,0a.47.47,0,0,1-.37-.19c-.29-.76-.56-1.54-.84-2.33l.3-.1-.7-1.31c.14-.21,0-.34-.16-.57a2,2,0,0,1-.43-1.1c0-.23.24-.49.4-.77-.13,0-.25-.15-.36-.14-.37,0-.42-.26-.5-.52-.11-.43-.24-.85-.37-1.27.16-.13.31-.15.08-.43s-.21-.74-.3-1.12c0,0,0-.1,0-.11-.55-.33-.41-1-.62-1.45a4,4,0,0,1-.25-1,1.86,1.86,0,0,1,.08-.49l-.12-.22.08,0c.11-.2.22-.4.32-.61s-.09-.43-.31-.41-.42,0-.25-.42l-.86.31a10.24,10.24,0,0,1-3.67.76.37.37,0,0,0-.28.18c-.46,1.43-.88,2.86-1.35,4.28a7.58,7.58,0,0,1-1.27,2.48.91.91,0,0,1-.55.31c-.62,0-1.25,0-1.87,0-.1,0-.21-.1-.37-.18,0,0,0,0-.12.11a7,7,0,0,1,0-1.22c.14-.83.34-1.66.54-2.49,0-.12.15-.21.21-.29a2,2,0,0,1,0-.55c.15-.75.33-1.5.49-2.25C42.84,82.57,42.86,82.44,42.89,82.28Zm6.59-8.43c-.61,2.26-1.23,4.5-1.85,6.78a1,1,0,0,0,.2,0c1.11-.57,2.23-1.13,3.33-1.73.12-.07.48-.14.35-.45l-.7-.12c.12-.22.33-.4-.05-.45,0,0-.07-.12-.08-.19s0-.31-.09-.45c-.21-.68-.44-1.36-.64-2,0-.09.06-.2.08-.26ZM46.8,70.36l.63,0a.59.59,0,0,0-.73-.12.64.64,0,0,0-.42.54l.11.07Z"/>
            <path class="27e75a96-3bd2-46b3-9383-48d85cab366c" d="M45,99.25a5.42,5.42,0,0,1-.22-.56.53.53,0,0,1,0-.25.94.94,0,0,1,.28.06,1.38,1.38,0,0,1,.2.18c-.31,0-.41.16-.16.38,0,0,0,.14,0,.21Z"/>
            <path class="27e75a96-3bd2-46b3-9383-48d85cab366c" d="M46.37,103.68h-.56v-.09h.56Z"/>
          </g>
        </g>
      </g>
    </g>
  </g>
</svg>
