<svg xmlns="http://www.w3.org/2000/svg" viewBox="0 0 159.96 69.4">
  <defs>
    <style>
      .\38 647a72e-f023-41c3-92de-ef00c904c535 {
        fill: #b9b934;
      }
    </style>
  </defs>
  <title>Logo_Horizontal</title>
  <g id="cfeafbfb-684f-4345-8265-9e9920d62dce" data-name="Layer 2">
    <g id="d3e308ce-afe4-4679-8721-454e3e5bec0c" data-name="Layer 1">
      <g id="f0976f96-d425-43e9-89eb-0121a76c60b3" data-name="h77Aio.tif">
        <g>
          <g>
            <path class="8647a72e-f023-41c3-92de-ef00c904c535" d="M8.24,29.62c0,.5,0,1,0,1.42s.08,1.1.12,1.65c0,.26.13.55-.16.75,0,0,0,.16,0,.24,0,.44-.07.9.31,1.26.06.05.06.21,0,.3a1.62,1.62,0,0,1-.17.48,1.37,1.37,0,0,0-.07.63c0,.18-.18.35-.28.54l.25.22c-.24.13-.43.24-.63.33a.73.73,0,0,1-.22,0,2.45,2.45,0,0,0,.08.29,2.53,2.53,0,0,1,.19.48.57.57,0,0,0,.72,0c.15-.12.36-.09.34.21,0,.1.06.19.06.29a2.57,2.57,0,0,1,0,.68.47.47,0,0,0,0,.43A4.77,4.77,0,0,1,9,40.8c.13.48-.16,1,.07,1.45a.36.36,0,0,1-.29.48,1.91,1.91,0,0,1-.53.1c-1.57,0-3.15.06-4.72,0-1,0-1.06,0-1.4-1.12A8.12,8.12,0,0,1,2,40.5c0-.33-.16-.65-.19-1s0-.79,0-1.09l.61-.4V37.9l-.75-.13a.69.69,0,0,1,.14-.72.33.33,0,0,0,.05-.29A6.8,6.8,0,0,1,1.54,36a5.66,5.66,0,0,1,0-1c0-.09.05-.18.05-.26a.9.9,0,0,1,.51-.83,3.17,3.17,0,0,0-.21-.27c-.1-.12-.28-.22-.14-.42,0,0,0-.1,0-.14-.1-.24-.21-.49-.33-.73s-.14-.43.29-.37c-.3-.62.36-.48.54-.75C2,31,1.89,30.92,1.66,31s-.45-.05-.46-.33c0-.45,0-.91,0-1.37h.12l0,.34h.12c0-.21,0-.46-.07-.61a2.74,2.74,0,0,1-.35-1.81c0-.23-.05-.52.07-.66a1.58,1.58,0,0,0,.26-1.15c0-.16.14-.31.17-.48a2.5,2.5,0,0,0,0-.58l-.69,0a9.89,9.89,0,0,1,.09-1.06c0-.08.16-.13.28-.21A.39.39,0,0,0,1.12,23c-.11-.11-.33-.21-.33-.31A2.19,2.19,0,0,1,.93,22a1.19,1.19,0,0,1,.25-.47c.16-.16.21-.44.57-.41.13,0,.35-.2.42-.36s-.09-.32-.16-.55l-.81.85-.12,0L1,20.63C.63,20.52.56,20.37.68,20a1.33,1.33,0,0,0,0-.39c0-.49-.1-1-.13-1.46A10.48,10.48,0,0,1,.47,17a2.45,2.45,0,0,1,.14-.58H.7A2.19,2.19,0,0,1,.41,16a3.1,3.1,0,0,1,0-.61c0-.48-.06-1-.11-1.44s.32-.31.51-.44a.5.5,0,0,0,.14-.15l-.1-.08c-.15-.2-.22-.38-.35-.44a.54.54,0,0,1-.31-.58c0-.24,0-.48,0-.72a.76.76,0,0,1,.12-.42.42.42,0,0,0,0-.58c-.25-.33-.2-.46.11-.73a2,2,0,0,0,.32-.61A.67.67,0,0,1,0,8.41c0-1,.05-1.91.16-2.85a1.3,1.3,0,0,1,1.62-.87c.17.08.26.34.38.52s.17.25.25.37l.1-.06-.17-.33.47-.33A1.24,1.24,0,0,1,4.12,5a2.72,2.72,0,0,1,1,1.48c.13.45.35.86.48,1.31.26,1,.5,1.94.73,2.92a2.43,2.43,0,0,1,0,.6c0,.06,0,.15,0,.19a2.78,2.78,0,0,1,.35,2.14,3.66,3.66,0,0,0,0,.68l-.25-.8-.82.65.82.48c.45-.13.6,0,.66.44s.13.93.16,1.4a.72.72,0,0,1-.09.46c-.28.43-.29.42.15.76.06-.08.13-.16.19-.25.57-.88,1.14-1.76,1.72-2.64,1.25-1.85,2.5-3.7,3.77-5.54a3.18,3.18,0,0,1,.7-.54c.05,0,.12-.13.1-.16-.16-.3.07-.46.23-.61.6-.55,1.21-1.08,1.83-1.6a.59.59,0,0,1,.36-.13c.68,0,1.35,0,2,0,.37,0,.51.25.6.55a2.31,2.31,0,0,1,0,1.47c-.29.86-.63,1.7-1,2.53s-.78,1.62-1.21,2.41-.75,1.27-1.12,1.9l-.63,1.13c-.76,1.37-1.5,2.75-2.29,4.1-.51.86-1.09,1.69-1.68,2.5-.36.51-.78,1-1.21,1.48a4.28,4.28,0,0,0,.3.33c2.76,2.52,5.54,5,8.29,7.56,1.28,1.17,2.57,2.34,3.77,3.59,2,2,3.85,4.14,5.74,6.24.69.76,1.29,1.59,1.93,2.4.4.5.8,1,1.19,1.51a4,4,0,0,1,.92,1.88c.16,1.12-.49,1.6-1.47,1.63a7,7,0,0,1-3.7-1A9.21,9.21,0,0,1,23.7,46c-1-1.32-2.09-2.59-3.07-3.94-.5-.68-1.17-1.19-1.68-1.85s-1.12-1.25-1.68-1.87c-2.16-2.36-4.52-4.52-6.88-6.68L8.52,29.87Zm8-16.89c-.15.1-.25.18-.36.24s-.36.43-.7.29c0,0-.11,0-.26,0,.43.26.71.64,1.16.37ZM7.68,33.54l.29.58C8.13,33.65,8.05,33.5,7.68,33.54Z"/>
            <path class="8647a72e-f023-41c3-92de-ef00c904c535" d="M32.16,26.39c.52,1.62,1,3.2,1.54,4.79a19.43,19.43,0,0,1,.59,2.24,10.75,10.75,0,0,1,0,1.71,5,5,0,0,0-.67-.14,1.18,1.18,0,0,0-.37,0,1.72,1.72,0,0,1-.46.17c-.67,0-1.34-.06-2-.07a1.27,1.27,0,0,1-1.19-.88,6,6,0,0,1-.36-1,2.79,2.79,0,0,1-.37-.55l-1.55-4.55c0-.09-.07-.17-.11-.28l-2.81.8a3.37,3.37,0,0,1-.34.1,1.33,1.33,0,0,0-1.4,1.32c0,.37-.51.69-.88.69s-1,0-1.5-.06a.77.77,0,0,1-.73-.61c-.19-.74-.2-.74-1-.75a1.4,1.4,0,0,1-.49-.06c.3-.14.59-.3.89-.42a.3.3,0,0,0,.24-.37,36.59,36.59,0,0,1,0-7.25,15,15,0,0,1,.91-4.38,3.09,3.09,0,0,1,.41-.67c.08-.1.25-.13.38-.21s.32-.23.48-.23c1.46,0,2.92,0,4.38,0a1.82,1.82,0,0,1,1.23.53,10.5,10.5,0,0,1,2.33,3.2c.73,1.56,1.4,3.15,2.08,4.73.09.22.19.25.42.23.91-.07,1.81-.1,2.72-.13a.48.48,0,0,1,.32.21.65.65,0,0,1-.31,1Zm-5.43-.21a75.82,75.82,0,0,0-2.87-7.39,47.33,47.33,0,0,0-.72,8.58Z"/>
            <path class="8647a72e-f023-41c3-92de-ef00c904c535" d="M35.72,12.9c-.7.09-1.35.16-2,.28-1.41.25-2.81.59-4.23.78a13.53,13.53,0,0,1-2.62,0c.72-.19,1.43-.42,2.16-.55,1.72-.31,3.45-.57,5.17-.87.49-.08,1-.25,1.46-.36a.48.48,0,0,0,.37-.38c.28-.77.55-1.53.89-2.27a5.05,5.05,0,0,1,.74-1.1,2.78,2.78,0,0,1,2.42-1.09c1,.06,1.9,0,2.84,0a3,3,0,0,1,.85.15c.35.12.37.34.16.64-.07.1-.1.34,0,.38.21.18.06.31,0,.44a4.85,4.85,0,0,1-1.76,1.81A27.17,27.17,0,0,1,39.58,12a.49.49,0,0,0-.34.43A33,33,0,0,0,39.1,18c0,.79,0,1.58,0,2.39l-.35.12.34.53,0-.05c.31,3.1.63,6.2.93,9.3q.34,3.48.66,7a3.67,3.67,0,0,1-.1.86s0,.08,0,.1a2.77,2.77,0,0,1,.07,1.86,1.37,1.37,0,0,1-1.07,1.23,8.3,8.3,0,0,1-2.71.14c.05-.17.14-.32.11-.42a9.15,9.15,0,0,1-.39-2.54c0-.78-.18-1.56-.26-2.34-.15-1.45-.3-2.9-.43-4.35-.08-.78-.11-1.57-.18-2.34-.15-1.83-.36-3.64-.46-5.47a61.37,61.37,0,0,1,.31-10.32C35.63,13.42,35.67,13.2,35.72,12.9Zm1.48,3.18.06-.14a1.84,1.84,0,0,1-.43-.4c-.17-.3-.4-.06-.59-.11,0,.15,0,.31,0,.47a3.91,3.91,0,0,0,0,.41Z"/>
            <path class="8647a72e-f023-41c3-92de-ef00c904c535" d="M50.88,15.35a3.56,3.56,0,0,0-.52.31s.07.23.14.32.17,0,.29,0l.22.27.25-.48a.62.62,0,0,1-.26.86,2.24,2.24,0,0,1-.14.65,20.25,20.25,0,0,1-4.4,5.26,1.76,1.76,0,0,0-.7,1.73,12.27,12.27,0,0,0,4.31,8c.54.47.41.47,1-.08a8.14,8.14,0,0,0,1.64-3c.13-.35.15-.73.27-1.07s.39-.62.36-.9a1.86,1.86,0,0,1,0-.78c.08-.25.22-.49.29-.75s0-.43.07-.64.23-.66.3-1,.08-.69.12-1a3.21,3.21,0,0,1,.07-.53c.06-.24.3-.37.46-.23a6.38,6.38,0,0,1,.74.86h-.54l0,.1c.06,0,.13.08.18.07.47-.07.62.24.78.58s.34.36.71,0v.89c0,.28.08.45.48.28-.06.61-.11,1.16-.17,1.7s-.16,1.16-.22,1.73,0,1.32-.67,1.75l.18.12.21-.33.07,0c-.12.31-.24.61-.34.92a2.36,2.36,0,0,0-.1.38A3.33,3.33,0,0,1,53,33.48a40.63,40.63,0,0,0-4.13,0,5.3,5.3,0,0,1-4.11-1.8A11.3,11.3,0,0,1,42.44,28c-.06-.15,0-.34-.07-.5s-.21-.32-.25-.49c-.18-.68-.34-1.36-.51-2,0-.06,0-.12,0-.2l-.48,0a.2.2,0,0,1,0-.09c.45-.16.48-.52.49-.94a11.62,11.62,0,0,1,1-4.78,6.61,6.61,0,0,1,3.41-3.34,3.36,3.36,0,0,1,1.22-.24c1.13,0,2.25,0,3.38,0A.8.8,0,0,1,50.88,15.35Zm-2.59.94A6,6,0,0,0,46,20,10.05,10.05,0,0,0,48.29,16.29Z"/>
          </g>
          <g>
            <path class="8647a72e-f023-41c3-92de-ef00c904c535" d="M99.86,69.4a1.78,1.78,0,0,0-.39-.07c-.48,0-1,0-1.44,0A2.26,2.26,0,0,1,96.76,69a9.58,9.58,0,0,0-1.29-.62,2.14,2.14,0,0,1-1-1,1.88,1.88,0,0,0-.16-.23,31.38,31.38,0,0,1-5.33-7c-1-1.8-1.93-3.67-2.89-5.5-.14-.26-.33-.5-.46-.76-.06-.11,0-.27,0-.38-.15-.38-.33-.74-.51-1.1,0-.06-.11-.12-.1-.18,0-.3-.13-.37-.38-.39a.87.87,0,0,1-.23-.08l.46-.23-.75-.31.44-.13,0-.1L84,50.71l.29-.13c.09-.17-.38-.87-.7-1.07l.17-.42-.24-.1s0-.08,0-.09c.23-.22.21-.38-.07-.55a.27.27,0,0,1-.13-.21.38.38,0,0,0-.44-.4c-.17,0-.34,0-.5-.06v-.12L83,47.5c.37-.78-.22-1.32-.46-2l-.11.18s0,.06-.11.11l-.22-.7c.3,0,.25-.18.16-.37-.24-.57-.49-1.14-.71-1.72a.46.46,0,0,1,.1-.38.78.78,0,0,0,.11-.82l.07-.07a1.8,1.8,0,0,1,.32.36c.34.74.67,1.5,1,2.26a3.59,3.59,0,0,0,.21.38l.09,0,.1-.31.73,1.48-.43-.05,0,.12.61.18-.43.09c.12.31.17.63.62.64.13,0,.25.26.41.44l-.31.13c0,.05,0,.08,0,.08.53,0,.51.51.7.8A10.63,10.63,0,0,1,86,49.4a.54.54,0,0,1,0,.22c0,.1,0,.26,0,.27.44.13.48.57.64.88a73,73,0,0,0,5.6,8.65,51.83,51.83,0,0,0,5.39,6.35,3.3,3.3,0,0,0,.65.42c.45.29.9.58,1.34.88.27.19.54.37.79.57a.5.5,0,0,0,.66,0c.19-.14.39-.27.57-.43.74-.66,1.5-1.3,2.2-2a12.13,12.13,0,0,0,1.2-1.48c.34-.48.62-1,1-1.46a2.79,2.79,0,0,1,.51-.46l.07.07s0,0,0-.06c-.14-.87.59-1.31,1-1.94.11-.19.23-.37.35-.56s.05-.13.09-.15c.23-.12.44-.22.06-.41,0,0,0-.11,0-.17,0-.69.06-1.39.14-2.08a5.3,5.3,0,0,1,.24-.84.84.84,0,0,0,.09-.37c0-.08-.15-.13-.22-.2a.26.26,0,0,1-.09-.18c0-.28-.18-.63.2-.82,0,0,0-.08,0-.1-.21-.3,0-.5.17-.71-.26-.2.14-.66-.3-.81-.07,0-.11-.23-.1-.36,0-.41-.15-.82.13-1.22.1-.16,0-.44,0-.67V50l.3-.1c-.07-.07-.13-.17-.21-.2s-.26-.22-.29-.43c-.06-.39-.19-.78-.25-1.18a5.79,5.79,0,0,1,0-.83,4.63,4.63,0,0,0-.09-.49c.32-.15.3-.13,0-.39a1,1,0,0,1-.21-.46c-.08-.37-.14-.75-.21-1.12s-.12-.58.32-.72l-.3-.16c.11-.19.17-.38-.12-.5-.08,0-.12-.17-.14-.27-.11-.49-.16-1-.3-1.48a1.88,1.88,0,0,1,.26-1.52l-.45,0a1.75,1.75,0,0,1-.15-.6c0-.16.19-.3.31-.47l-.47-.06c-.12-.63-.25-1.27-.37-1.91,0-.05,0-.12.1-.16a.36.36,0,0,0,0-.54,1,1,0,0,1-.39-1.1l.21.14,0,0-.48-.59c.13-.12.3-.21.29-.26a.56.56,0,0,0-.21-.33.76.76,0,0,1-.22-1.13c-.26-.2-.4-.4-.15-.75.08-.11-.05-.39-.1-.59-.1-.36-.22-.71-.31-1s-.34-.24-.36-.38a7,7,0,0,1-.08-.92.55.55,0,0,0-.07-.24,5.2,5.2,0,0,1-.32-.62c-.12-.35-.19-.72-.3-1.17l-.29.44a1.12,1.12,0,0,1-1,.59H97.64a2,2,0,0,1-1.53-.67,5.89,5.89,0,0,1-1.27-2.1c0-.11.13-.3.15-.46a1,1,0,0,0-.08-.54c-.07-.09-.3-.06-.55-.1a9.85,9.85,0,0,1-.32-1c0-.16.1-.35.09-.53s-.08-.39-.19-.44a.6.6,0,0,1-.33-.62c0-.19-.26-.37.07-.61.12-.09,0-.51,0-.81l-.36.07a3.64,3.64,0,0,1-.16-.63.5.5,0,0,1,.13-.34c.26-.28.27-.46,0-.7,0,0-.08-.1-.07-.13.08-.22,0-.31-.22-.33,0,0-.11-.14-.12-.23-.28-2.48-.55-5-.82-7.45a1.19,1.19,0,0,1,0-.46.55.55,0,0,1,.6-.44c.63,0,1.27,0,1.9,0A1.49,1.49,0,0,1,96,11.25a1.48,1.48,0,0,0,.14.42c.15.35.47.67.18,1.1a.34.34,0,0,0,.09.3c.33,0,.32.33.37.55a6.82,6.82,0,0,1,.39,2c0,.46.29.75.27,1.14a9.68,9.68,0,0,0,.4,1.94,2.75,2.75,0,0,1,0,.48,3.56,3.56,0,0,1,.35,2.62c.36-.07.45.15.5.42s.13.75.22,1.11a2.84,2.84,0,0,0,.21.43c.25.61.5,1.23.74,1.85h.11c.12-.45.26-.9.37-1.36a29.45,29.45,0,0,0,.7-7.13,15.54,15.54,0,0,0-.44-2.32c-.06-.31-.25-.63,0-.95l.21-.26c-.13-.31-.06-.82-.6-1,0-.86,0-1.73,0-2.6,0-.13.15-.26.27-.46h4.16c.28,0,.24.2.26.38.14,1.18.26,2.37.43,3.55.08.55.32,1.07.38,1.61.08.75.44,1.4.58,2.13a4.52,4.52,0,0,1,0,.52.37.37,0,0,0,0,.15,2,2,0,0,1,.37,1.4.24.24,0,0,0,0,.17c.47.48.37,1.16.6,1.72a3.64,3.64,0,0,1,.23.86c0,.11,0,.24-.06.36l-.39-.11c0,.48.5.61.72.94l-.25.33.1,0c.13.26.27.51.39.78a1.6,1.6,0,0,1,.23.54c.07.76.47,1.43.59,2.17a3.08,3.08,0,0,1,.15,1.25c0,.17.13.39.19.59a1.6,1.6,0,0,1,0,.21c0,.07,0,.16,0,.2.48.54.43,1.25.61,1.88,0,.11-.13.26-.21.39l-.13.23.08.06.35-.38c.2.84.39,1.6.54,2.37a5,5,0,0,1,.07,1.1c0,.13-.16.26-.26.41.08,0,.1,0,.12,0l.33-.14a1.38,1.38,0,0,1,.15.43,2.18,2.18,0,0,1-.08.51l-.64.23a.45.45,0,0,0,.68,0l.25.23-.25.2a4,4,0,0,1,.66,2.85l-.23-.28,0,.57.27-.11L112,41c0,.05,0,.1,0,.14-.16.76.34,1.38.4,2.1s.24,1.44.32,2.16a4.62,4.62,0,0,1-.07.95l-.41-.17.07.48.32,0c.18,0,.28,0,.28.27s.09.57-.29.77c-.18.09-.1.38.09.58l.1-.23a2,2,0,0,1,.3.58,2.29,2.29,0,0,1,0,.86,2.79,2.79,0,0,0,.12,1.27.56.56,0,0,1-.1.64l-.26,0c0,.09,0,.26,0,.28.57.34.45.89.45,1.4s0,1.12,0,1.69,0,1.17,0,1.75a11.93,11.93,0,0,1,0,1.2c0,.09-.15.2-.25.24a2.69,2.69,0,0,0-.5.17l.19,0c.12.25.23.44.31.64a.78.78,0,0,1,.07.42c-.11.46-.24.92-.37,1.38-.18.63-.31,1.27-.55,1.88A19.82,19.82,0,0,1,111,65.22a9.45,9.45,0,0,1-2.42,3,8.52,8.52,0,0,1-1.27.81,3,3,0,0,1-1.06.26c-.47,0-.95,0-1.43,0a3.69,3.69,0,0,0-.46.08Z"/>
            <path class="8647a72e-f023-41c3-92de-ef00c904c535" d="M141.81,24.86c.17.77.34,1.49.48,2.21.05.3.25.6.05.93,0,.06.13.23.18.36s.29.46-.06.68c.42.13.35.5.42.79.16.74.27,1.49.44,2.22s.4,1.52.61,2.27l1.56,5.88c.1.37.08.41-.32.41h-3.95a.55.55,0,0,1-.61-.43c-.47-1.67-1-3.34-1.39-5-.34-1.3-.65-2.6-.95-3.91-.13-.56-.18-1.13-.3-1.7s-.34-1.35-.48-2c-.05-.23-.21-.48.08-.71.08-.07,0-.4-.06-.54a1.55,1.55,0,0,1-.39-.88,11.7,11.7,0,0,0-.39-1.83c0-.19-.08-.38-.12-.59l-.88-.09v0l.86,0c-.08-.47-.16-.91-.23-1.35-.18-1.12-.34-2.24-.55-3.35s-.42-1.91-.64-2.87c-.28-1.17-.56-2.34-.83-3.51-.08-.32-.16-.63-.63-.55l.46-.25a1.28,1.28,0,0,0-.41-.22c-.29,0-.57,0-.86,0-.07,0-.18,0-.21,0-.31-.33-.61-.09-.86.05a26.05,26.05,0,0,0-2.64,1.46c-1.43,1-2.82,2-4.21,3.1h1.55a5.87,5.87,0,0,1,3.91,1.49,11.43,11.43,0,0,1,2.46,3.38,9.24,9.24,0,0,1,1,4.7.88.88,0,0,1-.29.66.4.4,0,0,0,.07.66.38.38,0,0,1,.16.3,6.85,6.85,0,0,1-1.33,3.92,1.8,1.8,0,0,1-1.44.77c-1.41,0-2.82,0-4.24,0a3.18,3.18,0,0,1-2.71-1.7l-.27-.43c0,.62,0,1.14,0,1.66,0,.71,0,1.42,0,2.12,0,.53,0,1.05,0,1.58a21.84,21.84,0,0,1-.88,5.26,3.41,3.41,0,0,1-.44,1,.92.92,0,0,1-.66.33c-1.52,0-3,0-4.56,0a1.62,1.62,0,0,1-1.37-.85,1.1,1.1,0,0,1-.07-.31c-.07-.07-.23-.16-.28-.3-.31-.88-.6-1.78-.89-2.67l-.15-.51.51-.42-.06-.07-.46.17c-.16-.53-.33-1-.43-1.52s-.3-.82,0-1.24c0,0,0-.23-.06-.23-.34,0-.32-.31-.33-.51,0-.54,0-1.07,0-1.62l-.19.05c-.29-.72-.29-1.53,0-1.63-.14-.28-.1-.59-.41-.86s-.11-.66-.12-1c0-.09.1-.19.1-.2a2,2,0,0,1-.26-.55c-.08-.64-.13-1.29-.17-1.93,0-.14.13-.28.14-.43a.93.93,0,0,0-.07-.43c-.09-.23-.21-.46-.33-.72l.23-.05a2.5,2.5,0,0,1-.2-.58c-.15-1.17-.27-2.35-.4-3.53-.08-.84-.16-1.69-.23-2.53a1.12,1.12,0,0,1,.07-.38c-.09-.43-.18-.8-.22-1.17-.13-1-.22-2.07-.35-3.11-.18-1.38-.39-2.77-.57-4.16-.11-.78-.2-1.56-.28-2.35A12,12,0,0,1,111,.93c.15-.59.39-.72,1.07-.72s.82.13,1,.72c.25,1,.43,2,.68,2.94.29,1.13.64,2.23.94,3.36s.67,2.49.94,3.75c.08.37-.09.8.25,1.11q.43,2.63.85,5.25c0,.07,0,.17,0,.21-.27.36,0,.74-.07,1.11a4.86,4.86,0,0,0,0,.54A1.1,1.1,0,0,1,117,20a1,1,0,0,0,0,.38c0,.24.12.48.16.73.09.57.16,1.16.24,1.81l-.32-.19-.09.5.34.12,0,.76.08,0c.07.11.19.21.22.33.07.33.11.68.15,1s.11.55-.22.72c0,0,0,.25,0,.27.64.32.49,1,.58,1.49.15.88.19,1.78.35,2.65.3,1.65.69,3.29,1,4.94.08.48.33.89.37,1.38h.1c.15-.5.31-1,.46-1.49a58.55,58.55,0,0,0,1.6-8.53c.13-1,.29-1.93.33-2.89a20,20,0,0,0-.15-2.44c-.16-2-.34-4-.51-6h-1.09a13.18,13.18,0,0,0,3.15-2.06,28.34,28.34,0,0,1,4-2.54,7.56,7.56,0,0,1,3.41-.89h3.37c0-.55.08-.64.6-.64h.25a1.82,1.82,0,0,1,1.62.59,1.35,1.35,0,0,0,1.11.43c1.94,0,3.89,0,5.83,0a5.39,5.39,0,0,1,3.81,1.43,2.56,2.56,0,0,1,.26.31h-.33a.49.49,0,0,0-.23,0l.82.4c-.31.33-.31.33-.09.6l.15-.19.2-.26a5.2,5.2,0,0,1,.24,1,7.79,7.79,0,0,1-.12,2.64,3.7,3.7,0,0,1-.16.4c-.12.24-.25.22-.4,0,0,.09-.07.19-.05.22.29.31.09.59-.07.86a11.5,11.5,0,0,1-3.26,3.78,8,8,0,0,1-2.37,1.09,1,1,0,0,0-.32.14c.33,0,.67,0,1,.06a8.29,8.29,0,0,1,3.46,1.42,37.46,37.46,0,0,1,7.19,6c1.62,1.65,3.23,3.31,4.85,5l1.6,1.61a7.19,7.19,0,0,1-.8.11c-1.19,0-2.38,0-3.57,0a1.83,1.83,0,0,1-1.38-.55c-1.94-2-3.91-4-5.86-6a44.93,44.93,0,0,0-6.3-5.48ZM126,21.3l.11,0c.07.4.13.8.21,1.2a29.42,29.42,0,0,0,1.36,5.61,6.05,6.05,0,0,0,1.31,2.18l1-1.83c.19.27.4.33.65.14l-.54-.61a.56.56,0,0,1,0-.1,15.36,15.36,0,0,0,.32-5.1,4,4,0,0,0-.21-.95,12.27,12.27,0,0,0-1.84-3.6,6.64,6.64,0,0,0-2.7-2.31c-.23-.1-.48-.18-.79-.3l.09.27a26.48,26.48,0,0,1,.94,4.57,1.28,1.28,0,0,1-.13.48l-.15,0ZM138,11a54,54,0,0,1,3,9.84,20.13,20.13,0,0,0,1.6-1.9,14.48,14.48,0,0,0,1.09-1.77,5.63,5.63,0,0,0,.53-2.78A3.43,3.43,0,0,0,143,11.67C141.5,10.37,139.8,10.45,138,11Zm-3.5-.94.92-.06,0-.08c-.21,0,0-.54-.41-.33A4.08,4.08,0,0,0,134.53,10.06Zm3.83,9.24.17.07.2-.42.35.16.11-.42a2.44,2.44,0,0,0-.63.23C138.45,19,138.42,19.17,138.36,19.3Zm-23.27,5.05-.21,0c.05.24.1.48.17.71,0,0,.17,0,.26,0v0l-.24-.18.1,0Zm-2.2-20.66c-.37-.23-.57-.12-.73.18Z"/>
            <path class="8647a72e-f023-41c3-92de-ef00c904c535" d="M85.7.71l-.3.11.25.41.3-.08a3.74,3.74,0,0,1,0,1.76,8.44,8.44,0,0,1-1.84,3.34,15.48,15.48,0,0,1-6.6,4.69.56.56,0,0,0-.43.56c-.11,1.58-.28,3.15-.35,4.73-.1,2.43-.14,4.87-.2,7.22-.18.08-.44.11-.51.24s-.15.6.21.74.35.34.35.63c0,1.41,0,2.81,0,4.21a1.8,1.8,0,0,1-.1.46,1.17,1.17,0,0,1,.1.41c0,2.29-.07,4.57-.12,6.86,0,.91-.06,1.82-.11,2.72,0,.19-.08.38-.09.57s0,.37,0,.56l-.33,4.79c0,.23,0,.45-.06.68s-.07.43-.37.22a.89.89,0,0,0-.35,0l.16.3-.09,0-.39.81a.83.83,0,0,0,.91-.16,17.72,17.72,0,0,1-.25,1.78c-.25,1.09-.51,2.17-.86,3.22A2.44,2.44,0,0,1,72,54.28c-.39,0-.78,0-1.23,0C71.31,50,72,45.79,72.12,41.52c.27,0,.46.1.35-.33s-.39-.46-.3-.82a6,6,0,0,0,0-1c0-.33.06-.67.07-1,0-1.09,0-2.18.08-3.27a4.19,4.19,0,0,1,.13-.69.75.75,0,0,0,0-.21,31.5,31.5,0,0,1,0-5.23c0-1.67,0-3.34.08-5,.13-2.9.31-5.81.49-8.72.06-.85.22-1.7.33-2.57l-1.23.17c-.13,0-.26,0-.39,0H64.56a3.66,3.66,0,0,1-3.05-1.55,1,1,0,0,0-.19-.21A2.09,2.09,0,0,1,60.44,9a11.7,11.7,0,0,1,.75-3.31.57.57,0,0,1,.4-.27,33.53,33.53,0,0,1,5-.18.7.7,0,0,1,.6.67c0,.68.07,1.36.09,2,0,.25.21.58-.23.7,0,0,0,.13,0,.2a2.27,2.27,0,0,0,.67,2,1.46,1.46,0,0,0,.91.54,12.32,12.32,0,0,0,4.61-.09.55.55,0,0,0,.49-.51A22.47,22.47,0,0,1,76.28,3.2,8.18,8.18,0,0,1,78.86.3,1.73,1.73,0,0,1,79.69,0c1.53,0,3,0,4.57,0A2.44,2.44,0,0,1,85.7.71ZM77.4,9.32c.16-.1.26-.16.35-.23l1.73-1.35c.12-.1.3-.13.4-.25s.26-.4.41-.59c.58-.76,1.2-1.49,1.73-2.28a4.89,4.89,0,0,0,.87-3A1.33,1.33,0,0,0,82.26.5c-.21-.14-.38-.17-.57,0-.34.33-.71.64-1,1C78.74,3.74,78,6.44,77.4,9.32Zm-8.92,2.36,0,.09c.19.09.39.26.56.25a13,13,0,0,0,1.38-.28v-.06Zm6.44,3.93.11-.13a1.71,1.71,0,0,0-.4-.32c-.09,0-.23.09-.38.15Z"/>
            <path class="8647a72e-f023-41c3-92de-ef00c904c535" d="M79.2,25.59l-.54,0c.63.09.65-.39.75-.81.53-2.16,1.06-4.32,1.61-6.48a5.53,5.53,0,0,1,.4-.94c0-.07-.11-.19-.08-.28.52-1.74,1-3.49,1.59-5.22.14-.45.38-.87.54-1.31a2.68,2.68,0,0,0,0-.66h3.37c.39,0,.79,0,1.18,0a.58.58,0,0,1,.64.41,8.32,8.32,0,0,1,.54,1.32c.11.48.36.89.51,1.35a2.17,2.17,0,0,1,.08.52s0,.1,0,.13A14.64,14.64,0,0,1,91,16.77a2,2,0,0,1,0,.53c-.17.11-.4.25-.19.5l.4.08c0,.18,0,.37,0,.4.39.21.38.62.47,1,.32,1.15.61,2.3.91,3.45.15.58.31,1.14.47,1.71a6.5,6.5,0,0,1,.22.84,6.61,6.61,0,0,1,0,.86c.53.41.55,1.11.61,1.81a3.75,3.75,0,0,0,.28.77,4.73,4.73,0,0,1,.41,1.51c0,.38.2.59.28.88s.07.42.1.63c0,.05,0,.1,0,.14.13.4.3.78.39,1.19s.56,1,.44,1.61c0,0,.08.11.11.17a2.4,2.4,0,0,1,.12.38c0,.16,0,.31.09.52l-.26,0c0,.12,0,.39-.33.17.08.23.08.23.87,0l.89,3,0,0L97,38.45l-.34.47.36,0s0,.09,0,.09a8.31,8.31,0,0,1-.86.07c-1.17,0-2.35,0-3.52,0a.47.47,0,0,1-.37-.19c-.29-.77-.55-1.54-.84-2.34l.3-.09-.7-1.31c.14-.21.06-.34-.16-.57a2,2,0,0,1-.43-1.11c0-.23.24-.48.4-.77a1.16,1.16,0,0,0-.36-.14c-.37,0-.42-.25-.49-.52-.12-.42-.25-.84-.38-1.26.16-.13.31-.16.08-.44s-.21-.74-.3-1.12c0,0,0-.09,0-.1-.55-.34-.41-1-.62-1.45a4,4,0,0,1-.25-1,1.81,1.81,0,0,1,.08-.49l-.12-.22.08,0c.11-.2.22-.4.32-.61s-.09-.43-.31-.42-.42,0-.25-.41l-.86.3a10.47,10.47,0,0,1-3.67.77.36.36,0,0,0-.28.18c-.46,1.42-.88,2.85-1.35,4.27a7.39,7.39,0,0,1-1.27,2.48.92.92,0,0,1-.55.32c-.62,0-1.24,0-1.87,0-.1,0-.21-.1-.37-.19l-.12.11a6.94,6.94,0,0,1,0-1.21c.14-.84.35-1.67.54-2.49a.81.81,0,0,1,.21-.29,2.1,2.1,0,0,1,0-.56c.15-.75.33-1.49.49-2.24C79.15,25.87,79.17,25.74,79.2,25.59Zm6.59-8.43c-.61,2.25-1.23,4.49-1.85,6.78l.2-.05c1.11-.57,2.23-1.12,3.33-1.72.12-.07.48-.14.35-.46l-.7-.11c.12-.22.33-.41-.05-.46,0,0-.07-.12-.08-.19s0-.3-.09-.44c-.21-.69-.44-1.37-.64-2.05,0-.09.06-.21.08-.26Zm-2.68-3.49.63,0a.59.59,0,0,0-.73-.13.66.66,0,0,0-.42.54l.11.08Z"/>
            <path class="8647a72e-f023-41c3-92de-ef00c904c535" d="M81.34,42.56c-.07-.19-.16-.37-.22-.56a.77.77,0,0,1,0-.26,2.8,2.8,0,0,1,.28.06,1.08,1.08,0,0,1,.2.19c-.31,0-.41.15-.16.38,0,0,0,.13,0,.2Z"/>
            <path class="8647a72e-f023-41c3-92de-ef00c904c535" d="M82.68,47h-.56V46.9h.56Z"/>
          </g>
        </g>
      </g>
    </g>
  </g>
</svg>
