<svg xmlns="http://www.w3.org/2000/svg" viewBox="0 0 99.53 109.86">
  <defs>
    <style>
      .\34 ce8a332-b43c-411d-8f1a-9870f88148f5 {
        fill: #b9b934;
      }
    </style>
  </defs>
  <title>Logo</title>
  <g id="429e2bdf-0068-4cf5-b23b-70ba6e06bc12" data-name="Layer 2">
    <g id="ddb79dc5-fe03-4ea6-8f6c-32529a8ae9a1" data-name="Layer 1">
      <g id="482f0433-7a95-4091-bafc-cc8cf62a9f66" data-name="h77Aio.tif">
        <g>
          <g>
            <path class="4ce8a332-b43c-411d-8f1a-9870f88148f5" d="M22.62,25c0,.5,0,1,0,1.43s.08,1.09.12,1.64c0,.27.13.55-.16.76,0,0,0,.15,0,.23,0,.44-.07.9.31,1.26a.38.38,0,0,1,0,.3,1.62,1.62,0,0,1-.17.48,1.39,1.39,0,0,0-.07.64c0,.17-.17.34-.28.53l.25.22-.63.34a.71.71,0,0,1-.21,0,1.43,1.43,0,0,0,.07.28,2.53,2.53,0,0,1,.19.48.57.57,0,0,0,.72,0c.15-.12.36-.09.34.21,0,.1.06.2.06.29a2.54,2.54,0,0,1,0,.68.47.47,0,0,0,.05.43,4.16,4.16,0,0,1,.22.94c.13.48-.16,1,.07,1.45.1.2,0,.42-.29.49a2.35,2.35,0,0,1-.53.09c-1.57,0-3.15.07-4.72,0-1,0-1.06,0-1.4-1.11a7.24,7.24,0,0,1-.13-1.24c-.05-.33-.17-.65-.2-1s0-.79,0-1.08l.62-.41v-.13l-.75-.13a.69.69,0,0,1,.14-.72.37.37,0,0,0,.06-.29,5.1,5.1,0,0,1-.33-.81,5.63,5.63,0,0,1,0-1c0-.08,0-.17,0-.26a.87.87,0,0,1,.51-.82L16.24,29c-.1-.12-.28-.21-.14-.42,0,0,0-.1,0-.14-.11-.24-.22-.48-.34-.72s-.14-.43.29-.37c-.3-.63.36-.48.54-.76-.16-.16-.31-.25-.54-.13s-.45-.05-.46-.33c0-.45,0-.91,0-1.37h.12l.05.34h.11c0-.21,0-.46-.07-.61a2.74,2.74,0,0,1-.35-1.81c0-.22,0-.52.07-.66a1.58,1.58,0,0,0,.26-1.15c0-.16.14-.31.17-.47a2.46,2.46,0,0,0,0-.58l-.69,0c0-.34,0-.7.09-1.06,0-.08.17-.13.28-.21a.25.25,0,0,0-.08-.11c-.11-.11-.32-.2-.33-.31a2.24,2.24,0,0,1,.14-.71,1.63,1.63,0,0,1,.25-.47c.16-.16.22-.44.57-.41.13,0,.35-.2.42-.36s-.08-.32-.16-.55l-.81.86-.12,0L15.38,16c-.36-.1-.44-.26-.32-.63A1.06,1.06,0,0,0,15,15c0-.48-.09-1-.13-1.45a10.67,10.67,0,0,1,0-1.13,3,3,0,0,1,.14-.57h.09a2.25,2.25,0,0,1-.29-.49,3.1,3.1,0,0,1,0-.61c0-.48-.06-1-.11-1.43s.33-.32.51-.44a.77.77,0,0,0,.15-.16l-.11-.08c-.15-.2-.22-.38-.34-.44a.56.56,0,0,1-.32-.58c0-.24-.05-.48,0-.72a.7.7,0,0,1,.13-.42.42.42,0,0,0,0-.58c-.25-.33-.2-.46.11-.73a2,2,0,0,0,.32-.61.67.67,0,0,1-.67-.76c0-1,0-1.91.16-2.86A1.3,1.3,0,0,1,16.16.07c.18.09.26.35.39.52s.16.25.25.37L16.89.9,16.73.57l.46-.33A1.26,1.26,0,0,1,18.5.35a2.71,2.71,0,0,1,1,1.49c.13.44.36.85.48,1.3.27,1,.5,1.95.73,2.92a2,2,0,0,1,0,.6c0,.07,0,.15,0,.2A2.79,2.79,0,0,1,21,9a3.68,3.68,0,0,0,0,.68l-.25-.79L20,9.52l.81.48c.45-.13.6,0,.66.44s.13.93.17,1.4a.8.8,0,0,1-.1.46c-.27.43-.29.43.15.76.06-.08.13-.16.19-.25.57-.88,1.14-1.76,1.72-2.63,1.25-1.86,2.5-3.71,3.77-5.55.16-.23.47-.35.7-.54.05,0,.12-.13.1-.16-.16-.29.07-.46.23-.6.6-.55,1.21-1.09,1.83-1.61a.59.59,0,0,1,.36-.13c.68,0,1.35,0,2,0,.37,0,.51.24.61.54a2.38,2.38,0,0,1-.06,1.47c-.29.86-.63,1.71-1,2.53s-.78,1.62-1.21,2.41-.74,1.27-1.12,1.9l-.63,1.13c-.76,1.37-1.5,2.75-2.29,4.1-.51.87-1.09,1.69-1.68,2.51-.35.5-.78,1-1.2,1.47a2.78,2.78,0,0,0,.29.34c2.76,2.51,5.54,5,8.29,7.55,1.28,1.18,2.57,2.34,3.77,3.6,2,2,3.85,4.13,5.74,6.23.69.76,1.3,1.59,1.93,2.4.4.5.8,1,1.19,1.51a4.12,4.12,0,0,1,.93,1.88c.15,1.12-.5,1.61-1.48,1.64a7.23,7.23,0,0,1-3.7-1,9.34,9.34,0,0,1-2.89-2.49C37.07,40,36,38.74,35,37.4c-.5-.69-1.17-1.19-1.68-1.86s-1.11-1.25-1.68-1.87c-2.16-2.36-4.52-4.52-6.88-6.68-.63-.57-1.24-1.16-1.86-1.74A3.47,3.47,0,0,1,22.62,25Zm8-16.89c-.15.1-.25.18-.36.24s-.36.43-.69.29a1.09,1.09,0,0,0-.26,0c.42.26.7.65,1.15.37ZM22.07,28.93l.28.57C22.51,29,22.43,28.88,22.07,28.93Z"/>
            <path class="4ce8a332-b43c-411d-8f1a-9870f88148f5" d="M46.54,21.77c.52,1.62,1,3.2,1.54,4.79a17.74,17.74,0,0,1,.59,2.25,10.55,10.55,0,0,1,0,1.7c-.26-.06-.47-.11-.68-.14a1.18,1.18,0,0,0-.37.05,1.6,1.6,0,0,1-.46.17c-.67,0-1.33-.06-2-.07A1.27,1.27,0,0,1,44,29.64a5.66,5.66,0,0,1-.36-1,2.74,2.74,0,0,1-.36-.55c-.53-1.51-1-3-1.56-4.55,0-.08-.06-.17-.11-.28l-2.81.8a1.91,1.91,0,0,1-.34.1c-.81.08-1.33.43-1.39,1.33a.93.93,0,0,1-.89.68q-.75,0-1.5-.06a.75.75,0,0,1-.72-.61c-.2-.74-.21-.73-1-.75a1.67,1.67,0,0,1-.49-.05c.3-.15.59-.3.89-.43a.3.3,0,0,0,.24-.37,36.49,36.49,0,0,1,0-7.24,15.2,15.2,0,0,1,.91-4.38,3.16,3.16,0,0,1,.41-.68c.08-.1.25-.13.38-.21s.32-.22.48-.22c1.46,0,2.92,0,4.38,0a1.74,1.74,0,0,1,1.23.52,10.33,10.33,0,0,1,2.33,3.2c.74,1.56,1.4,3.15,2.08,4.73.1.23.19.25.42.23.91-.06,1.82-.1,2.72-.12a.42.42,0,0,1,.32.2.65.65,0,0,1-.31,1Zm-5.43-.21a75.82,75.82,0,0,0-2.87-7.39,48.28,48.28,0,0,0-.72,8.59Z"/>
            <path class="4ce8a332-b43c-411d-8f1a-9870f88148f5" d="M50.1,8.28c-.7.1-1.35.16-2,.28-1.42.25-2.82.59-4.24.78a13.53,13.53,0,0,1-2.62,0c.72-.18,1.43-.42,2.16-.55,1.72-.31,3.45-.57,5.17-.87.5-.08,1-.25,1.46-.36a.48.48,0,0,0,.37-.38c.28-.76.55-1.53.89-2.27a5,5,0,0,1,.75-1.09A2.74,2.74,0,0,1,54.46,2.7c.95,0,1.9,0,2.84,0a2.7,2.7,0,0,1,.85.14c.35.12.37.34.16.65-.07.09-.1.33,0,.38s0,.3,0,.43a4.71,4.71,0,0,1-1.76,1.81A26,26,0,0,1,54,7.4a.49.49,0,0,0-.34.43,35.24,35.24,0,0,0-.14,5.53c0,.79,0,1.58,0,2.4l-.35.11.34.53.06,0q.47,4.65.92,9.3c.23,2.32.45,4.65.66,7a3.67,3.67,0,0,1-.1.86s0,.08,0,.1a2.77,2.77,0,0,1,.07,1.86A1.36,1.36,0,0,1,54,36.67a8,8,0,0,1-2.71.14c0-.17.14-.32.11-.42A9.09,9.09,0,0,1,51,33.85c0-.78-.17-1.56-.26-2.33-.15-1.46-.3-2.91-.43-4.36-.08-.78-.11-1.56-.18-2.34-.15-1.82-.36-3.64-.46-5.47A61.37,61.37,0,0,1,50,9C50,8.81,50.05,8.58,50.1,8.28Zm1.48,3.18.06-.14a1.65,1.65,0,0,1-.43-.4c-.17-.3-.4-.06-.59-.11,0,.16,0,.31,0,.47a3.91,3.91,0,0,0,0,.41Z"/>
            <path class="4ce8a332-b43c-411d-8f1a-9870f88148f5" d="M65.27,10.73a3.64,3.64,0,0,0-.53.31.66.66,0,0,0,.15.32s.16,0,.28,0l.22.26.25-.47a.6.6,0,0,1-.26.85,2.24,2.24,0,0,1-.14.65,19.86,19.86,0,0,1-4.4,5.26,1.81,1.81,0,0,0-.7,1.74,12.29,12.29,0,0,0,4.31,8c.54.48.42.48,1-.07a8.44,8.44,0,0,0,1.65-3c.12-.34.14-.72.26-1.07s.39-.61.36-.89a1.9,1.9,0,0,1,0-.79c.08-.25.22-.49.29-.75s0-.43.07-.63.23-.67.3-1,.08-.69.12-1a3.19,3.19,0,0,1,.07-.54c.06-.24.3-.37.46-.23a5.74,5.74,0,0,1,.74.86H69.2v.1c.06,0,.12.08.17.07.47-.07.62.24.78.58s.34.36.71,0c0,.21,0,.34,0,.46v.43c0,.28.09.46.48.28-.06.61-.11,1.16-.17,1.71s-.16,1.15-.22,1.73,0,1.31-.67,1.74l.18.12.21-.33.07,0c-.11.3-.23.6-.34.91,0,.12-.06.26-.1.38a3.31,3.31,0,0,1-2.86,2.14,38.12,38.12,0,0,0-4.14,0A5.36,5.36,0,0,1,59.18,27a11.3,11.3,0,0,1-2.36-3.69c-.06-.15,0-.34-.07-.5s-.21-.31-.25-.49c-.18-.67-.34-1.36-.51-2l0-.19-.48-.06s0-.08,0-.08c.45-.17.48-.53.49-.95a11.57,11.57,0,0,1,1-4.77,6.67,6.67,0,0,1,3.41-3.35,3.36,3.36,0,0,1,1.22-.24c1.13,0,2.26,0,3.38,0A1,1,0,0,1,65.27,10.73Zm-2.6.94a6,6,0,0,0-2.29,3.69A10.05,10.05,0,0,0,62.67,11.67Z"/>
          </g>
          <g>
            <path class="4ce8a332-b43c-411d-8f1a-9870f88148f5" d="M39.44,109.86a2.57,2.57,0,0,0-.4-.07c-.48,0-1,0-1.43,0a2.24,2.24,0,0,1-1.27-.31,12.64,12.64,0,0,0-1.29-.61,2.09,2.09,0,0,1-1-1,1.37,1.37,0,0,0-.17-.23,31.39,31.39,0,0,1-5.32-7c-1-1.79-1.93-3.66-2.89-5.5-.14-.26-.33-.49-.47-.75-.05-.11,0-.28,0-.39-.16-.37-.34-.73-.51-1.09,0-.07-.11-.13-.1-.18,0-.3-.14-.38-.38-.39-.06,0-.11,0-.23-.09l.45-.22-.74-.31.43-.13.05-.11-.6-.33.3-.13c.08-.16-.38-.87-.71-1.06l.18-.42-.24-.1s0-.08,0-.09c.24-.23.21-.39-.07-.55a.36.36,0,0,1-.13-.21c0-.29-.16-.4-.44-.41a4.45,4.45,0,0,1-.5,0V88l.57-.06c.37-.79-.23-1.32-.47-2-.06.12-.09.15-.1.18a.21.21,0,0,1-.12.12l-.21-.71c.3,0,.24-.17.16-.36-.25-.57-.5-1.14-.72-1.72a.48.48,0,0,1,.11-.39.76.76,0,0,0,.1-.82l.08-.06a1.47,1.47,0,0,1,.31.35c.35.75.67,1.51,1,2.26a2.88,2.88,0,0,0,.22.38H23l.09-.32.74,1.49-.43,0,0,.12.6.17-.43.1c.13.31.18.62.62.64.13,0,.26.26.41.43l-.31.14s0,.08,0,.08c.53,0,.51.5.7.79a9.07,9.07,0,0,1,.55,1.13.75.75,0,0,1,0,.22c0,.09,0,.25,0,.27.44.13.47.57.64.87a70.22,70.22,0,0,0,5.6,8.65,51.85,51.85,0,0,0,5.38,6.36,4,4,0,0,0,.65.41l1.35.89c.27.18.53.37.79.57a.49.49,0,0,0,.65,0,6.13,6.13,0,0,0,.58-.42c.74-.66,1.5-1.31,2.2-2a11.34,11.34,0,0,0,1.19-1.48c.35-.47.63-1,1-1.46a2.76,2.76,0,0,1,.5-.46l.07.08s0,0,0-.06c-.14-.88.59-1.32,1-1.94.11-.19.24-.38.36-.57s0-.12.09-.15c.23-.11.43-.21,0-.41,0,0,0-.11,0-.17,0-.69.07-1.38.14-2.07a4.25,4.25,0,0,1,.25-.84,1.39,1.39,0,0,0,.09-.38c0-.07-.16-.12-.22-.2a.3.3,0,0,1-.1-.18c0-.28-.17-.62.2-.82,0,0,.06-.08,0-.09-.21-.3,0-.51.17-.72-.27-.2.14-.65-.31-.8-.07,0-.1-.24-.1-.36,0-.41-.14-.82.13-1.22.11-.16,0-.45,0-.67V90.5l.3-.09c-.07-.07-.12-.17-.21-.2s-.25-.22-.28-.43c-.06-.4-.2-.78-.25-1.18a7.66,7.66,0,0,1,0-.83,2.78,2.78,0,0,0-.08-.49c.31-.15.3-.14,0-.39a.91.91,0,0,1-.2-.47c-.09-.37-.14-.74-.21-1.11s-.12-.58.31-.72l-.3-.16c.11-.2.18-.39-.12-.5-.07,0-.12-.18-.14-.28-.1-.49-.15-1-.29-1.47a1.86,1.86,0,0,1,.25-1.53l-.45,0a1.76,1.76,0,0,1-.14-.6c0-.16.18-.3.3-.47l-.46-.06c-.13-.63-.25-1.28-.37-1.92,0,0,0-.12.09-.16a.36.36,0,0,0,0-.54,1,1,0,0,1-.39-1.09l.22.13,0,0-.48-.6c.14-.11.3-.2.29-.26a.57.57,0,0,0-.2-.33A.74.74,0,0,1,45,73.63c-.27-.2-.4-.41-.16-.75.08-.12,0-.4-.1-.59-.09-.36-.21-.72-.3-1s-.34-.25-.37-.38A7.14,7.14,0,0,1,44,70a.88.88,0,0,0-.07-.23,4.05,4.05,0,0,1-.32-.62c-.12-.35-.19-.72-.3-1.17-.13.2-.22.31-.29.44A1.12,1.12,0,0,1,42,69H37.21a2.06,2.06,0,0,1-1.53-.68,6.05,6.05,0,0,1-1.27-2.09c0-.12.14-.3.15-.46a.88.88,0,0,0-.08-.54c-.06-.09-.3-.07-.55-.11a9.77,9.77,0,0,1-.31-1c0-.17.1-.36.08-.53s-.07-.4-.18-.45c-.3-.13-.32-.35-.33-.61s-.27-.38.06-.61c.13-.09,0-.52,0-.81l-.36.07c0-.21-.13-.42-.16-.63a.49.49,0,0,1,.14-.34c.26-.28.27-.46,0-.7,0,0-.08-.11-.07-.14.09-.22,0-.31-.21-.32,0,0-.12-.15-.13-.23-.28-2.49-.55-5-.81-7.46a1,1,0,0,1,0-.45.52.52,0,0,1,.59-.44c.64,0,1.27,0,1.91,0a1.5,1.5,0,0,1,1.33,1.28,1.69,1.69,0,0,0,.13.42c.15.35.48.67.18,1.1a.39.39,0,0,0,.09.29c.34.06.32.34.38.55a7.57,7.57,0,0,1,.39,2c0,.46.29.75.27,1.14a9.81,9.81,0,0,0,.39,1.94,2.64,2.64,0,0,1,0,.47,3.54,3.54,0,0,1,.35,2.63c.37-.07.46.15.51.42s.12.74.21,1.11a3.36,3.36,0,0,0,.22.42L39.39,66h.1c.13-.45.27-.9.37-1.35a29.1,29.1,0,0,0,.71-7.14,16.08,16.08,0,0,0-.45-2.32c0-.3-.25-.62,0-.94,0-.08.12-.15.21-.27-.13-.3-.06-.81-.6-1,0-.86,0-1.73,0-2.6,0-.13.14-.25.27-.46h4.15c.29,0,.24.2.26.37.15,1.19.27,2.38.44,3.56.08.54.32,1.06.37,1.6.08.75.45,1.41.58,2.13a4.58,4.58,0,0,1,0,.53.32.32,0,0,0,0,.14,2,2,0,0,1,.38,1.41.21.21,0,0,0,0,.17c.47.47.36,1.15.6,1.72a4.84,4.84,0,0,1,.23.85,1,1,0,0,1-.07.36l-.39-.11c0,.49.51.62.72.95l-.25.32.1,0,.4.77a2,2,0,0,1,.22.55c.07.76.47,1.42.6,2.16a3.1,3.1,0,0,1,.15,1.25c0,.18.12.39.19.59a1.7,1.7,0,0,1,0,.22c0,.06,0,.16,0,.19.49.54.44,1.26.62,1.89,0,.1-.14.26-.22.39l-.13.23.09,0,.35-.37c.19.84.39,1.6.54,2.36a5.08,5.08,0,0,1,.06,1.1c0,.14-.16.27-.25.41.07,0,.1.05.11,0l.33-.14a1.45,1.45,0,0,1,.16.42,2.86,2.86,0,0,1-.08.52l-.65.22a.46.46,0,0,0,.69,0l.25.24-.26.19a4.08,4.08,0,0,1,.67,2.85l-.24-.27.06.57.26-.11.43,1.17a.33.33,0,0,1,0,.14c-.16.75.34,1.38.4,2.1s.24,1.43.32,2.15a5.32,5.32,0,0,1-.07,1l-.42-.16.08.47.31,0c.19,0,.28,0,.28.26s.09.58-.28.77c-.19.1-.11.38.09.58l.09-.22a2,2,0,0,1,.3.58,1.89,1.89,0,0,1,0,.85,2.7,2.7,0,0,0,.13,1.28c.06.26.1.41-.1.63l-.26,0c0,.1,0,.26,0,.29.58.33.45.89.45,1.4s0,1.12,0,1.68,0,1.17,0,1.76c0,.4,0,.8,0,1.2,0,.09-.15.19-.26.23a3,3,0,0,0-.5.17l.19,0c.12.24.23.43.31.63a.8.8,0,0,1,.07.42c-.1.47-.24.93-.37,1.39-.18.62-.31,1.27-.55,1.87a19.9,19.9,0,0,1-1.27,2.82,9.59,9.59,0,0,1-2.43,3,8.72,8.72,0,0,1-1.26.81,3.17,3.17,0,0,1-1.06.26c-.48,0-1,0-1.44,0a3.5,3.5,0,0,0-.45.07Z"/>
            <path class="4ce8a332-b43c-411d-8f1a-9870f88148f5" d="M81.38,65.33c.17.77.35,1.48.48,2.2.06.3.25.6,0,.94,0,.06.14.22.19.35s.29.46-.07.68c.42.13.36.51.42.8.16.73.27,1.48.44,2.21s.41,1.52.61,2.28l1.56,5.87c.1.38.08.42-.31.42-1.32,0-2.64,0-4,0a.55.55,0,0,1-.61-.43c-.46-1.67-.94-3.33-1.39-5-.34-1.29-.65-2.6-1-3.9-.13-.56-.18-1.14-.3-1.7s-.33-1.36-.48-2c0-.22-.21-.47.08-.71.08-.06,0-.39-.06-.54a1.7,1.7,0,0,1-.39-.88A10,10,0,0,0,76.3,64c0-.18-.07-.37-.11-.58l-.88-.09v0l.86,0c-.08-.46-.16-.9-.23-1.34-.19-1.12-.34-2.24-.55-3.36-.18-1-.43-1.91-.65-2.86-.27-1.17-.55-2.34-.83-3.51-.07-.33-.15-.64-.62-.55l.45-.25c-.17-.1-.28-.21-.41-.22a8.14,8.14,0,0,0-.86,0c-.07,0-.17,0-.21,0-.31-.34-.6-.09-.86,0-.89.47-1.8.91-2.63,1.46-1.44,1-2.82,2-4.22,3.11h1.56A5.77,5.77,0,0,1,70,57.25a11.4,11.4,0,0,1,2.45,3.38,9.32,9.32,0,0,1,1,4.69.86.86,0,0,1-.3.66.41.41,0,0,0,.08.67.41.41,0,0,1,.16.3,7,7,0,0,1-1.33,3.92,1.79,1.79,0,0,1-1.44.76c-1.42,0-2.83,0-4.24,0a3.19,3.19,0,0,1-2.71-1.7c-.07-.12-.15-.23-.28-.43,0,.62,0,1.14,0,1.66,0,.71,0,1.41,0,2.12,0,.52,0,1,0,1.57a22.35,22.35,0,0,1-.88,5.26,3.56,3.56,0,0,1-.44,1,1,1,0,0,1-.66.34c-1.52,0-3,0-4.56,0a1.61,1.61,0,0,1-1.38-.84.9.9,0,0,1-.06-.31c-.07-.08-.24-.17-.29-.3-.31-.89-.59-1.78-.88-2.68-.06-.16-.1-.34-.16-.51l.51-.41-.06-.07-.46.17c-.15-.54-.32-1-.43-1.53s-.29-.82,0-1.24c0,0,0-.23-.06-.23-.34,0-.32-.3-.33-.51,0-.53,0-1.07,0-1.62l-.2.06c-.29-.72-.28-1.53,0-1.63-.14-.29-.09-.59-.41-.86s-.1-.66-.11-1a.28.28,0,0,1,.1-.2,2.2,2.2,0,0,1-.26-.55c-.08-.65-.14-1.29-.18-1.94,0-.13.13-.27.15-.42a1.05,1.05,0,0,0-.07-.43,7.65,7.65,0,0,0-.34-.72l.23-.06A2.66,2.66,0,0,1,52,63c-.14-1.17-.27-2.34-.39-3.52-.09-.84-.17-1.69-.23-2.54a1.09,1.09,0,0,1,.06-.37c-.08-.43-.17-.8-.22-1.18-.12-1-.22-2.07-.35-3.1-.18-1.39-.38-2.77-.57-4.16-.1-.79-.19-1.57-.27-2.35a12,12,0,0,1,.48-4.37c.16-.59.4-.73,1.07-.73s.83.13,1,.73c.24,1,.43,2,.68,2.94s.64,2.23.93,3.35.68,2.49,1,3.76c.07.37-.09.79.25,1.11l.84,5.24c0,.07.05.17,0,.21-.27.36,0,.75-.07,1.11a3.25,3.25,0,0,0,0,.54,1.09,1.09,0,0,1,.35.84,1,1,0,0,0,0,.38c0,.24.12.48.16.72.08.58.15,1.16.24,1.81l-.33-.19-.09.51.34.11,0,.77.08,0c.08.11.2.2.22.32a9.17,9.17,0,0,1,.16,1c0,.27.1.55-.23.72,0,0,0,.24,0,.26.65.33.5,1,.58,1.5.15.88.19,1.77.35,2.65.31,1.65.69,3.28,1,4.93.09.49.33.9.38,1.38h.1l.45-1.49a56.35,56.35,0,0,0,1.6-8.54,28.11,28.11,0,0,0,.34-2.89A22,22,0,0,0,61.66,62c-.17-2-.34-4-.52-6H60.06A13.07,13.07,0,0,0,63.21,54a29.18,29.18,0,0,1,3.95-2.54,7.82,7.82,0,0,1,3.41-.89H74c0-.55.07-.64.59-.64a2.26,2.26,0,0,0,.26,0,1.79,1.79,0,0,1,1.61.59,1.36,1.36,0,0,0,1.12.43c1.94,0,3.88,0,5.82,0a5.35,5.35,0,0,1,3.81,1.42c.08.08.14.17.27.32H87.1a.39.39,0,0,0-.23,0l.81.39c-.3.34-.3.34-.08.6l.14-.18a2.49,2.49,0,0,0,.2-.26,5.31,5.31,0,0,1,.25,1,7.82,7.82,0,0,1-.13,2.64,2,2,0,0,1-.16.4c-.11.23-.25.22-.39,0,0,.1-.08.19-.05.22.28.32.09.59-.07.86a11.51,11.51,0,0,1-3.26,3.78,7.76,7.76,0,0,1-2.37,1.1.83.83,0,0,0-.32.14c.33,0,.66,0,1,.05a8.56,8.56,0,0,1,3.46,1.42,37.58,37.58,0,0,1,7.2,6c1.62,1.65,3.22,3.32,4.84,5l1.6,1.62a6.7,6.7,0,0,1-.8.1l-3.56,0a1.79,1.79,0,0,1-1.38-.56c-2-2-3.92-4-5.87-6a45.68,45.68,0,0,0-6.3-5.48A1.52,1.52,0,0,0,81.38,65.33ZM65.52,61.77l.12-.05c.06.4.13.8.2,1.2a29.26,29.26,0,0,0,1.37,5.61,6.06,6.06,0,0,0,1.3,2.19l1-1.83a.41.41,0,0,0,.65.13l-.55-.6a.65.65,0,0,0,0-.1A15.42,15.42,0,0,0,70,63.21a3.75,3.75,0,0,0-.2-.94,12.39,12.39,0,0,0-1.84-3.6,6.71,6.71,0,0,0-2.7-2.31c-.24-.11-.48-.19-.79-.31l.09.28a25.44,25.44,0,0,1,.93,4.56c0,.16-.08.33-.12.49l-.16,0ZM77.6,51.46a54.11,54.11,0,0,1,3,9.85,20.37,20.37,0,0,0,1.59-1.91,13.91,13.91,0,0,0,1.09-1.76,5.69,5.69,0,0,0,.54-2.79,3.39,3.39,0,0,0-1.2-2.71C81.07,50.83,79.38,50.91,77.6,51.46Zm-3.5-.93.93-.06,0-.09c-.2,0,0-.53-.41-.32A3,3,0,0,0,74.1,50.53Zm3.83,9.23.18.07.19-.42.35.17.12-.43a2.78,2.78,0,0,0-.64.23C78,59.45,78,59.63,77.93,59.76ZM54.66,64.81l-.21,0c.06.24.1.47.18.7,0,0,.17,0,.26,0v0l-.24-.18.1,0Zm-2.2-20.65c-.36-.23-.57-.13-.73.17Z"/>
            <path class="4ce8a332-b43c-411d-8f1a-9870f88148f5" d="M25.28,41.18l-.31.11.26.4.3-.08a3.73,3.73,0,0,1,0,1.76,8.14,8.14,0,0,1-1.84,3.34,15.46,15.46,0,0,1-6.6,4.7.57.57,0,0,0-.43.56c-.11,1.58-.27,3.15-.34,4.73-.11,2.43-.14,4.86-.21,7.22-.18.08-.44.11-.51.24s-.15.6.21.73.36.35.35.64c0,1.4,0,2.8,0,4.21a2.49,2.49,0,0,1-.09.46,1.67,1.67,0,0,1,.1.4c0,2.29-.07,4.58-.12,6.87,0,.91-.07,1.81-.11,2.72,0,.19-.08.37-.09.56s0,.38,0,.56c-.1,1.6-.22,3.2-.33,4.79,0,.23,0,.46,0,.69s-.07.42-.38.22c-.07-.05-.2,0-.34-.05l.16.3-.1,0-.38.82c.29,0,.61.16.9-.16a17.7,17.7,0,0,1-.24,1.78c-.25,1.08-.52,2.16-.86,3.22a2.46,2.46,0,0,1-2.62,1.86c-.39,0-.79,0-1.24,0,.52-4.27,1.17-8.5,1.34-12.76.26,0,.46.09.34-.33s-.39-.46-.3-.83a5.88,5.88,0,0,0,0-1c0-.34.07-.67.08-1,0-1.08,0-2.17.07-3.26a4.22,4.22,0,0,1,.14-.69.74.74,0,0,0,0-.21,30.57,30.57,0,0,1,0-5.24c0-1.66,0-3.34.08-5,.13-2.91.3-5.82.49-8.72.05-.86.21-1.71.33-2.57l-1.23.16a2.58,2.58,0,0,1-.39,0H4.13a3.69,3.69,0,0,1-3-1.55.79.79,0,0,0-.18-.22A2.06,2.06,0,0,1,0,49.43a11.44,11.44,0,0,1,.75-3.32.57.57,0,0,1,.4-.26,33.48,33.48,0,0,1,5-.18.7.7,0,0,1,.6.67c0,.67.06,1.35.08,2,0,.25.21.59-.23.71,0,0,0,.12,0,.19a2.28,2.28,0,0,0,.66,2,1.45,1.45,0,0,0,.92.53,12.12,12.12,0,0,0,4.61-.09.54.54,0,0,0,.48-.5,22.84,22.84,0,0,1,2.6-7.57,8.17,8.17,0,0,1,2.58-2.9,1.8,1.8,0,0,1,.83-.29c1.52,0,3,0,4.56,0A2.46,2.46,0,0,1,25.28,41.18ZM17,49.79c.17-.11.27-.16.36-.23l1.72-1.36a2.75,2.75,0,0,0,.41-.24c.15-.18.26-.4.4-.59.58-.76,1.21-1.49,1.74-2.28a4.91,4.91,0,0,0,.86-3A1.29,1.29,0,0,0,21.83,41c-.21-.14-.38-.18-.57,0-.34.34-.71.65-1,1C18.31,44.2,17.56,46.91,17,49.79ZM8.06,52.14l-.05.1c.19.09.38.26.56.24a12.76,12.76,0,0,0,1.37-.27v-.07Zm6.44,3.94.1-.13a1.71,1.71,0,0,0-.4-.32c-.08,0-.23.08-.38.15Z"/>
            <path class="4ce8a332-b43c-411d-8f1a-9870f88148f5" d="M18.77,66.05l-.54,0c.64.08.65-.39.76-.81q.8-3.24,1.6-6.48a8.7,8.7,0,0,1,.4-.95c0-.07-.1-.19-.08-.28.52-1.74,1-3.48,1.59-5.22.14-.45.39-.86.54-1.31a2.23,2.23,0,0,0,.05-.65h3.37c.4,0,.79,0,1.19,0a.57.57,0,0,1,.63.4A7.62,7.62,0,0,1,28.83,52a12,12,0,0,0,.51,1.34,4.67,4.67,0,0,1,.08.52c0,.05,0,.1,0,.13a14.64,14.64,0,0,1,1.18,3.2,2.16,2.16,0,0,1,0,.53c-.17.11-.39.26-.19.51l.4.07c0,.18,0,.38,0,.4.39.22.38.62.47,1,.31,1.15.6,2.31.9,3.46.15.57.32,1.14.48,1.71a6.07,6.07,0,0,1,.21.84,6.48,6.48,0,0,1,0,.86c.52.4.55,1.1.6,1.81a3.46,3.46,0,0,0,.29.77,4.74,4.74,0,0,1,.41,1.5c0,.39.2.59.28.89a6.37,6.37,0,0,1,.1.63.65.65,0,0,0,0,.14c.13.39.29.78.39,1.18s.56,1,.43,1.62c0,0,.09.1.11.16a3,3,0,0,1,.13.39c0,.15.05.31.08.52l-.25,0c0,.13,0,.4-.34.17.08.23.08.23.88,0l.89,3-.05,0-.34-.55-.33.47.35,0s0,.1,0,.1a8.12,8.12,0,0,1-.85.07l-3.53,0a.5.5,0,0,1-.36-.2c-.3-.76-.56-1.54-.84-2.33l.3-.09-.7-1.32c.13-.21.05-.33-.17-.57a2,2,0,0,1-.42-1.1c0-.23.24-.49.39-.77A1.11,1.11,0,0,0,30,73c-.37,0-.43-.26-.5-.52-.12-.43-.25-.85-.37-1.27.16-.13.3-.15.07-.43a2.93,2.93,0,0,1-.3-1.12s0-.1,0-.11c-.55-.33-.4-1-.62-1.44a4.61,4.61,0,0,1-.25-1,2,2,0,0,1,.09-.5L28,66.39l.09,0,.31-.6c.16-.33-.08-.44-.31-.42s-.42,0-.24-.42l-.86.31a10.29,10.29,0,0,1-3.67.76.36.36,0,0,0-.28.19c-.46,1.42-.89,2.85-1.36,4.27A7.37,7.37,0,0,1,20.38,73a.86.86,0,0,1-.56.31c-.62,0-1.24,0-1.86,0-.11,0-.21-.11-.37-.19,0,0,0,0-.13.11a8.2,8.2,0,0,1,0-1.22c.15-.83.35-1.66.55-2.49,0-.11.14-.21.2-.29a2.51,2.51,0,0,1,0-.55c.15-.75.33-1.5.5-2.24C18.72,66.34,18.74,66.21,18.77,66.05Zm6.6-8.43c-.62,2.26-1.23,4.5-1.86,6.78a.71.71,0,0,0,.2,0c1.12-.57,2.24-1.13,3.34-1.73.12-.07.48-.14.35-.45l-.71-.12c.13-.21.33-.4,0-.45,0,0-.07-.12-.09-.19s0-.3-.08-.45c-.21-.68-.44-1.36-.64-2,0-.08.06-.2.08-.26Zm-2.69-3.49.64,0a.61.61,0,0,0-.74-.12.65.65,0,0,0-.41.54l.1.07Z"/>
            <path class="4ce8a332-b43c-411d-8f1a-9870f88148f5" d="M20.92,83c-.08-.18-.16-.37-.23-.56a1.07,1.07,0,0,1,0-.25,1.15,1.15,0,0,1,.28.06,1,1,0,0,1,.21.18c-.31,0-.41.16-.16.38,0,0,0,.14,0,.21Z"/>
            <path class="4ce8a332-b43c-411d-8f1a-9870f88148f5" d="M22.26,87.45h-.57v-.09h.56Z"/>
          </g>
        </g>
      </g>
    </g>
  </g>
</svg>
